G75*
%MOIN*%
%OFA0B0*%
%FSLAX25Y25*%
%IPPOS*%
%LPD*%
%AMOC8*
5,1,8,0,0,1.08239X$1,22.5*
%
%ADD10C,0.18100*%
%ADD11OC8,0.18100*%
%ADD12C,0.10000*%
%ADD13OC8,0.05200*%
%ADD14R,0.06496X0.06496*%
%ADD15C,0.06496*%
%ADD16R,0.12661X0.12661*%
%ADD17C,0.12661*%
%ADD18OC8,0.05600*%
%ADD19C,0.10039*%
%ADD20C,0.15000*%
%ADD21C,0.01600*%
D10*
X0458371Y0083800D03*
X0458371Y0263800D03*
X0463371Y0418800D03*
X0468371Y0683800D03*
D11*
X0468371Y0723800D03*
X0463371Y0458800D03*
X0458371Y0303800D03*
X0458371Y0123800D03*
D12*
X0460371Y0125800D01*
X0460371Y0181300D01*
X0458371Y0123800D02*
X0414371Y0123800D01*
X0377623Y0160548D01*
X0328371Y0209300D01*
X0327871Y0504300D01*
X0427985Y0604414D01*
X0522371Y0604414D01*
X0522371Y0635595D02*
X0536576Y0635595D01*
X0546871Y0625300D01*
X0546871Y0362300D01*
X0533666Y0349095D01*
X0527371Y0349095D01*
X0525421Y0349293D01*
X0524914Y0349800D01*
X0487871Y0349800D01*
X0488371Y0350300D01*
X0451871Y0350300D01*
X0488371Y0350300D02*
X0488371Y0272300D01*
X0479871Y0263800D01*
X0458371Y0263800D01*
X0403371Y0263800D01*
X0377623Y0289548D01*
X0377623Y0312619D01*
X0371284Y0416713D02*
X0373371Y0418800D01*
X0463371Y0418800D01*
X0477871Y0418800D01*
X0492871Y0433800D01*
X0492871Y0527595D01*
X0477076Y0527595D01*
X0492871Y0527800D01*
X0492871Y0567300D01*
X0492871Y0527800D02*
X0492871Y0527595D01*
X0477076Y0527595D02*
X0451371Y0527595D01*
X0463371Y0418800D02*
X0412371Y0418800D01*
X0371284Y0416713D02*
X0370930Y0416713D01*
X0408871Y0640300D02*
X0408871Y0683300D01*
X0409371Y0683800D01*
X0468371Y0683800D01*
X0489757Y0683800D01*
X0522371Y0651186D01*
X0409371Y0683800D02*
X0408371Y0683800D01*
X0377623Y0714548D01*
X0377623Y0727619D01*
X0135497Y0739300D02*
X0135497Y0739430D01*
X0067780Y0579300D02*
X0067780Y0579115D01*
X0038371Y0345800D02*
X0135497Y0345800D01*
X0135497Y0346083D01*
X0135497Y0324430D02*
X0135497Y0324300D01*
X0165371Y0324300D02*
X0165871Y0324300D01*
X0067713Y0258800D02*
X0057713Y0258800D01*
X0048028Y0258800D02*
X0038028Y0258800D01*
X0038371Y0258800D02*
X0043028Y0258800D01*
X0039528Y0139800D02*
X0049528Y0139800D01*
X0059213Y0139800D02*
X0069213Y0139800D01*
X0135497Y0139430D02*
X0135497Y0139300D01*
X0377623Y0127619D02*
X0377623Y0109548D01*
X0403371Y0083800D01*
X0458371Y0083800D01*
X0377623Y0160548D02*
X0377623Y0161083D01*
D13*
X0038371Y0178800D03*
X0038371Y0208800D03*
D14*
X0377623Y0161083D03*
X0377623Y0346083D03*
X0377623Y0761083D03*
D15*
X0377623Y0727619D03*
X0135497Y0739430D03*
X0135497Y0761083D03*
X0067780Y0579115D03*
X0067780Y0552540D03*
X0135497Y0346083D03*
X0135497Y0324430D03*
X0135497Y0161083D03*
X0135497Y0139430D03*
X0377623Y0127619D03*
X0377623Y0312619D03*
D16*
X0370930Y0416713D03*
D17*
X0370930Y0438367D03*
D18*
X0421871Y0350300D03*
X0451871Y0350300D03*
X0460371Y0181300D03*
X0430371Y0181300D03*
X0462871Y0567300D03*
X0492871Y0567300D03*
X0438871Y0640300D03*
X0408871Y0640300D03*
D19*
X0446351Y0527595D02*
X0456391Y0527595D01*
X0456391Y0512005D02*
X0446351Y0512005D01*
X0517351Y0604414D02*
X0527391Y0604414D01*
X0527391Y0620005D02*
X0517351Y0620005D01*
X0517351Y0635595D02*
X0527391Y0635595D01*
X0527391Y0651186D02*
X0517351Y0651186D01*
X0522351Y0349095D02*
X0532391Y0349095D01*
X0532391Y0333505D02*
X0522351Y0333505D01*
D20*
X0165871Y0324300D02*
X0165871Y0552540D01*
X0067780Y0552540D01*
X0067780Y0579115D02*
X0038371Y0579615D01*
X0038371Y0578800D01*
X0038371Y0346083D01*
X0135497Y0346083D01*
X0135497Y0324300D02*
X0165371Y0324300D01*
X0165371Y0139430D01*
X0135497Y0139430D01*
X0135497Y0139300D02*
X0038371Y0139300D01*
X0038371Y0178800D01*
X0038371Y0208800D02*
X0038371Y0258800D01*
X0038371Y0259300D02*
X0102371Y0259300D01*
X0102371Y0161800D01*
X0137871Y0161800D01*
X0038371Y0259300D02*
X0038371Y0345800D01*
X0038371Y0346083D01*
X0165871Y0552540D02*
X0165871Y0739300D01*
X0135497Y0739300D01*
X0135497Y0761083D02*
X0038371Y0761300D01*
X0038371Y0579615D01*
X0038371Y0578800D02*
X0067780Y0579300D01*
D21*
X0014771Y0107800D02*
X0014771Y0009200D01*
X0227871Y0009200D01*
X0227871Y0107800D01*
X0014771Y0107800D01*
X0014771Y0106703D02*
X0227871Y0106703D01*
X0227871Y0105105D02*
X0014771Y0105105D01*
X0014771Y0103506D02*
X0227871Y0103506D01*
X0227871Y0101908D02*
X0014771Y0101908D01*
X0014771Y0100309D02*
X0227871Y0100309D01*
X0227871Y0098711D02*
X0014771Y0098711D01*
X0014771Y0097112D02*
X0227871Y0097112D01*
X0227871Y0095514D02*
X0014771Y0095514D01*
X0014771Y0093915D02*
X0227871Y0093915D01*
X0227871Y0092317D02*
X0014771Y0092317D01*
X0014771Y0090718D02*
X0077996Y0090718D01*
X0078015Y0090729D02*
X0074851Y0088903D01*
X0072268Y0086319D01*
X0070441Y0083156D01*
X0069496Y0079627D01*
X0069496Y0075973D01*
X0070441Y0072444D01*
X0072268Y0069281D01*
X0074851Y0066697D01*
X0078015Y0064871D01*
X0081544Y0063925D01*
X0085198Y0063925D01*
X0088726Y0064871D01*
X0091890Y0066697D01*
X0094474Y0069281D01*
X0096300Y0072444D01*
X0097246Y0075973D01*
X0097246Y0079627D01*
X0096300Y0083156D01*
X0094474Y0086319D01*
X0091890Y0088903D01*
X0088726Y0090729D01*
X0085198Y0091675D01*
X0081544Y0091675D01*
X0078015Y0090729D01*
X0075227Y0089120D02*
X0014771Y0089120D01*
X0014771Y0087521D02*
X0073470Y0087521D01*
X0072039Y0085923D02*
X0014771Y0085923D01*
X0014771Y0084324D02*
X0071116Y0084324D01*
X0070326Y0082726D02*
X0014771Y0082726D01*
X0014771Y0081127D02*
X0069898Y0081127D01*
X0069496Y0079529D02*
X0014771Y0079529D01*
X0014771Y0077930D02*
X0069496Y0077930D01*
X0069496Y0076332D02*
X0014771Y0076332D01*
X0014771Y0074733D02*
X0069828Y0074733D01*
X0070257Y0073134D02*
X0014771Y0073134D01*
X0014771Y0071536D02*
X0070966Y0071536D01*
X0071889Y0069937D02*
X0014771Y0069937D01*
X0014771Y0068339D02*
X0073210Y0068339D01*
X0074808Y0066740D02*
X0014771Y0066740D01*
X0014771Y0065142D02*
X0077545Y0065142D01*
X0089196Y0065142D02*
X0227871Y0065142D01*
X0227871Y0066740D02*
X0091934Y0066740D01*
X0093532Y0068339D02*
X0227871Y0068339D01*
X0227871Y0069937D02*
X0094853Y0069937D01*
X0095776Y0071536D02*
X0227871Y0071536D01*
X0227871Y0073134D02*
X0096485Y0073134D01*
X0096914Y0074733D02*
X0227871Y0074733D01*
X0227871Y0076332D02*
X0097246Y0076332D01*
X0097246Y0077930D02*
X0227871Y0077930D01*
X0227871Y0079529D02*
X0097246Y0079529D01*
X0096844Y0081127D02*
X0227871Y0081127D01*
X0227871Y0082726D02*
X0096416Y0082726D01*
X0095626Y0084324D02*
X0227871Y0084324D01*
X0227871Y0085923D02*
X0094703Y0085923D01*
X0093272Y0087521D02*
X0227871Y0087521D01*
X0227871Y0089120D02*
X0091515Y0089120D01*
X0088746Y0090718D02*
X0227871Y0090718D01*
X0227871Y0063543D02*
X0014771Y0063543D01*
X0014771Y0061945D02*
X0227871Y0061945D01*
X0227871Y0060346D02*
X0014771Y0060346D01*
X0014771Y0058748D02*
X0227871Y0058748D01*
X0227871Y0057149D02*
X0014771Y0057149D01*
X0014771Y0055551D02*
X0227871Y0055551D01*
X0227871Y0053952D02*
X0014771Y0053952D01*
X0014771Y0052354D02*
X0227871Y0052354D01*
X0227871Y0050755D02*
X0014771Y0050755D01*
X0014771Y0049157D02*
X0227871Y0049157D01*
X0227871Y0047558D02*
X0014771Y0047558D01*
X0014771Y0045960D02*
X0227871Y0045960D01*
X0227871Y0044361D02*
X0014771Y0044361D01*
X0014771Y0042763D02*
X0227871Y0042763D01*
X0227871Y0041164D02*
X0014771Y0041164D01*
X0014771Y0039566D02*
X0227871Y0039566D01*
X0227871Y0037967D02*
X0014771Y0037967D01*
X0014771Y0036369D02*
X0227871Y0036369D01*
X0227871Y0034770D02*
X0014771Y0034770D01*
X0014771Y0033172D02*
X0227871Y0033172D01*
X0227871Y0031573D02*
X0014771Y0031573D01*
X0014771Y0029975D02*
X0227871Y0029975D01*
X0227871Y0028376D02*
X0014771Y0028376D01*
X0014771Y0026778D02*
X0227871Y0026778D01*
X0227871Y0025179D02*
X0014771Y0025179D01*
X0014771Y0023581D02*
X0227871Y0023581D01*
X0227871Y0021982D02*
X0014771Y0021982D01*
X0014771Y0020384D02*
X0227871Y0020384D01*
X0227871Y0018785D02*
X0014771Y0018785D01*
X0014771Y0017187D02*
X0227871Y0017187D01*
X0227871Y0015588D02*
X0014771Y0015588D01*
X0014771Y0013990D02*
X0227871Y0013990D01*
X0227871Y0012391D02*
X0014771Y0012391D01*
X0014771Y0010793D02*
X0227871Y0010793D01*
X0196871Y0010793D02*
X0550971Y0010793D01*
X0550971Y0010200D02*
X0196871Y0010200D01*
X0196871Y0795400D01*
X0550971Y0795400D01*
X0550971Y0638736D01*
X0544189Y0645518D01*
X0541362Y0647150D01*
X0539314Y0647699D01*
X0539810Y0649551D01*
X0539810Y0652821D01*
X0538964Y0655980D01*
X0537329Y0658812D01*
X0535016Y0661124D01*
X0532184Y0662759D01*
X0529026Y0663605D01*
X0527487Y0663605D01*
X0497370Y0693722D01*
X0494543Y0695355D01*
X0491389Y0696200D01*
X0479235Y0696200D01*
X0478471Y0696963D01*
X0474720Y0699129D01*
X0470537Y0700250D01*
X0466205Y0700250D01*
X0462021Y0699129D01*
X0458270Y0696963D01*
X0457507Y0696200D01*
X0413507Y0696200D01*
X0390023Y0719684D01*
X0390023Y0729251D01*
X0389178Y0732405D01*
X0387545Y0735233D01*
X0385237Y0737541D01*
X0382409Y0739174D01*
X0379255Y0740019D01*
X0375990Y0740019D01*
X0372837Y0739174D01*
X0370009Y0737541D01*
X0367700Y0735233D01*
X0366068Y0732405D01*
X0365223Y0729251D01*
X0365223Y0712916D01*
X0366068Y0709762D01*
X0367700Y0706934D01*
X0396471Y0678164D01*
X0396471Y0638667D01*
X0397316Y0635514D01*
X0398948Y0632686D01*
X0401257Y0630378D01*
X0404085Y0628745D01*
X0407238Y0627900D01*
X0410503Y0627900D01*
X0413657Y0628745D01*
X0416485Y0630378D01*
X0418793Y0632686D01*
X0420426Y0635514D01*
X0421271Y0638667D01*
X0421271Y0671400D01*
X0457507Y0671400D01*
X0458270Y0670637D01*
X0462021Y0668471D01*
X0466205Y0667350D01*
X0470537Y0667350D01*
X0474720Y0668471D01*
X0478471Y0670637D01*
X0479235Y0671400D01*
X0484620Y0671400D01*
X0504931Y0651089D01*
X0504931Y0649551D01*
X0505778Y0646392D01*
X0507413Y0643560D01*
X0507582Y0643391D01*
X0507413Y0643221D01*
X0505778Y0640389D01*
X0504931Y0637230D01*
X0504931Y0633960D01*
X0505778Y0630801D01*
X0507413Y0627969D01*
X0509725Y0625657D01*
X0512557Y0624022D01*
X0515716Y0623176D01*
X0529026Y0623176D01*
X0529099Y0623195D01*
X0531439Y0623195D01*
X0534471Y0620164D01*
X0534471Y0614667D01*
X0532184Y0615987D01*
X0529026Y0616834D01*
X0515716Y0616834D01*
X0515643Y0616814D01*
X0426353Y0616814D01*
X0423199Y0615969D01*
X0420371Y0614337D01*
X0320250Y0514215D01*
X0320240Y0514210D01*
X0319099Y0513064D01*
X0317948Y0511914D01*
X0317943Y0511904D01*
X0317936Y0511897D01*
X0317129Y0510494D01*
X0316316Y0509086D01*
X0316313Y0509076D01*
X0316308Y0509067D01*
X0315891Y0507502D01*
X0315471Y0505932D01*
X0315471Y0505922D01*
X0315468Y0505911D01*
X0315471Y0504293D01*
X0315471Y0502667D01*
X0315474Y0502657D01*
X0315968Y0210890D01*
X0315963Y0210869D01*
X0315971Y0209259D01*
X0315974Y0207646D01*
X0315979Y0207626D01*
X0315979Y0207604D01*
X0316404Y0206052D01*
X0316824Y0204494D01*
X0316835Y0204476D01*
X0316840Y0204455D01*
X0317653Y0203063D01*
X0318461Y0201669D01*
X0318477Y0201654D01*
X0318487Y0201636D01*
X0319635Y0200500D01*
X0320774Y0199365D01*
X0320793Y0199354D01*
X0368877Y0151758D01*
X0404448Y0116186D01*
X0406757Y0113878D01*
X0409585Y0112245D01*
X0412738Y0111400D01*
X0447507Y0111400D01*
X0451557Y0107350D01*
X0465185Y0107350D01*
X0474821Y0116986D01*
X0474821Y0130614D01*
X0472771Y0132664D01*
X0472771Y0182932D01*
X0471926Y0186086D01*
X0470293Y0188914D01*
X0467985Y0191222D01*
X0465157Y0192855D01*
X0462003Y0193700D01*
X0458738Y0193700D01*
X0455585Y0192855D01*
X0452757Y0191222D01*
X0450448Y0188914D01*
X0448816Y0186086D01*
X0447971Y0182932D01*
X0447971Y0136664D01*
X0447507Y0136200D01*
X0419507Y0136200D01*
X0388277Y0167430D01*
X0387545Y0168697D01*
X0385237Y0171006D01*
X0383911Y0171771D01*
X0340762Y0214482D01*
X0340280Y0499172D01*
X0433121Y0592014D01*
X0515643Y0592014D01*
X0515716Y0591994D01*
X0529026Y0591994D01*
X0532184Y0592841D01*
X0534471Y0594161D01*
X0534471Y0367436D01*
X0528667Y0361632D01*
X0526547Y0362200D01*
X0491869Y0362200D01*
X0490003Y0362700D01*
X0450238Y0362700D01*
X0447085Y0361855D01*
X0444257Y0360222D01*
X0441948Y0357914D01*
X0440316Y0355086D01*
X0439471Y0351932D01*
X0439471Y0348667D01*
X0440316Y0345514D01*
X0441948Y0342686D01*
X0444257Y0340378D01*
X0447085Y0338745D01*
X0450238Y0337900D01*
X0475971Y0337900D01*
X0475971Y0277436D01*
X0474735Y0276200D01*
X0469235Y0276200D01*
X0468471Y0276963D01*
X0464720Y0279129D01*
X0460537Y0280250D01*
X0456205Y0280250D01*
X0452021Y0279129D01*
X0448270Y0276963D01*
X0447507Y0276200D01*
X0408507Y0276200D01*
X0390023Y0294684D01*
X0390023Y0314251D01*
X0389178Y0317405D01*
X0387545Y0320233D01*
X0385237Y0322541D01*
X0382409Y0324174D01*
X0379255Y0325019D01*
X0375990Y0325019D01*
X0372837Y0324174D01*
X0370009Y0322541D01*
X0367700Y0320233D01*
X0366068Y0317405D01*
X0365223Y0314251D01*
X0365223Y0287916D01*
X0366068Y0284762D01*
X0367700Y0281934D01*
X0393448Y0256186D01*
X0395757Y0253878D01*
X0398585Y0252245D01*
X0401738Y0251400D01*
X0447507Y0251400D01*
X0448270Y0250637D01*
X0452021Y0248471D01*
X0456205Y0247350D01*
X0460537Y0247350D01*
X0464720Y0248471D01*
X0468471Y0250637D01*
X0469235Y0251400D01*
X0481503Y0251400D01*
X0484657Y0252245D01*
X0487485Y0253878D01*
X0489793Y0256186D01*
X0489793Y0256186D01*
X0495985Y0262378D01*
X0498293Y0264686D01*
X0499926Y0267514D01*
X0500771Y0270667D01*
X0500771Y0337400D01*
X0518013Y0337400D01*
X0520716Y0336676D01*
X0526936Y0336676D01*
X0527742Y0336594D01*
X0528247Y0336676D01*
X0534026Y0336676D01*
X0534099Y0336695D01*
X0535299Y0336695D01*
X0538452Y0337540D01*
X0541280Y0339173D01*
X0550971Y0348864D01*
X0550971Y0010200D01*
X0550971Y0012391D02*
X0196871Y0012391D01*
X0196871Y0013990D02*
X0550971Y0013990D01*
X0550971Y0015588D02*
X0196871Y0015588D01*
X0196871Y0017187D02*
X0550971Y0017187D01*
X0550971Y0018785D02*
X0196871Y0018785D01*
X0196871Y0020384D02*
X0550971Y0020384D01*
X0550971Y0021982D02*
X0196871Y0021982D01*
X0196871Y0023581D02*
X0550971Y0023581D01*
X0550971Y0025179D02*
X0196871Y0025179D01*
X0196871Y0026778D02*
X0550971Y0026778D01*
X0550971Y0028376D02*
X0196871Y0028376D01*
X0196871Y0029975D02*
X0550971Y0029975D01*
X0550971Y0031573D02*
X0196871Y0031573D01*
X0196871Y0033172D02*
X0550971Y0033172D01*
X0550971Y0034770D02*
X0196871Y0034770D01*
X0196871Y0036369D02*
X0550971Y0036369D01*
X0550971Y0037967D02*
X0510487Y0037967D01*
X0510329Y0037925D02*
X0514112Y0038939D01*
X0517504Y0040897D01*
X0520274Y0043667D01*
X0522232Y0047058D01*
X0523246Y0050842D01*
X0523246Y0054758D01*
X0522232Y0058542D01*
X0520274Y0061933D01*
X0517504Y0064703D01*
X0514112Y0066661D01*
X0510329Y0067675D01*
X0506413Y0067675D01*
X0502629Y0066661D01*
X0499237Y0064703D01*
X0496468Y0061933D01*
X0494510Y0058542D01*
X0493496Y0054758D01*
X0493496Y0050842D01*
X0494510Y0047058D01*
X0496468Y0043667D01*
X0499237Y0040897D01*
X0502629Y0038939D01*
X0506413Y0037925D01*
X0510329Y0037925D01*
X0506255Y0037967D02*
X0196871Y0037967D01*
X0196871Y0039566D02*
X0501543Y0039566D01*
X0498970Y0041164D02*
X0196871Y0041164D01*
X0196871Y0042763D02*
X0497372Y0042763D01*
X0496067Y0044361D02*
X0196871Y0044361D01*
X0196871Y0045960D02*
X0495144Y0045960D01*
X0494376Y0047558D02*
X0196871Y0047558D01*
X0196871Y0049157D02*
X0493947Y0049157D01*
X0493519Y0050755D02*
X0196871Y0050755D01*
X0196871Y0052354D02*
X0493496Y0052354D01*
X0493496Y0053952D02*
X0196871Y0053952D01*
X0196871Y0055551D02*
X0493708Y0055551D01*
X0494137Y0057149D02*
X0196871Y0057149D01*
X0196871Y0058748D02*
X0494629Y0058748D01*
X0495552Y0060346D02*
X0196871Y0060346D01*
X0196871Y0061945D02*
X0496479Y0061945D01*
X0498078Y0063543D02*
X0196871Y0063543D01*
X0196871Y0065142D02*
X0499998Y0065142D01*
X0502925Y0066740D02*
X0196871Y0066740D01*
X0196871Y0068339D02*
X0550971Y0068339D01*
X0550971Y0069937D02*
X0196871Y0069937D01*
X0196871Y0071536D02*
X0550971Y0071536D01*
X0550971Y0073134D02*
X0196871Y0073134D01*
X0196871Y0074733D02*
X0550971Y0074733D01*
X0550971Y0076332D02*
X0196871Y0076332D01*
X0196871Y0077930D02*
X0550971Y0077930D01*
X0550971Y0079529D02*
X0196871Y0079529D01*
X0196871Y0081127D02*
X0550971Y0081127D01*
X0550971Y0082726D02*
X0196871Y0082726D01*
X0196871Y0084324D02*
X0550971Y0084324D01*
X0550971Y0085923D02*
X0196871Y0085923D01*
X0196871Y0087521D02*
X0550971Y0087521D01*
X0550971Y0089120D02*
X0196871Y0089120D01*
X0196871Y0090718D02*
X0550971Y0090718D01*
X0550971Y0092317D02*
X0196871Y0092317D01*
X0196871Y0093915D02*
X0550971Y0093915D01*
X0550971Y0095514D02*
X0196871Y0095514D01*
X0196871Y0097112D02*
X0550971Y0097112D01*
X0550971Y0098711D02*
X0196871Y0098711D01*
X0196871Y0100309D02*
X0550971Y0100309D01*
X0550971Y0101908D02*
X0196871Y0101908D01*
X0196871Y0103506D02*
X0550971Y0103506D01*
X0550971Y0105105D02*
X0196871Y0105105D01*
X0196871Y0106703D02*
X0550971Y0106703D01*
X0550971Y0108302D02*
X0466136Y0108302D01*
X0467735Y0109900D02*
X0550971Y0109900D01*
X0550971Y0111499D02*
X0469333Y0111499D01*
X0470932Y0113097D02*
X0550971Y0113097D01*
X0550971Y0114696D02*
X0472530Y0114696D01*
X0474129Y0116294D02*
X0550971Y0116294D01*
X0550971Y0117893D02*
X0474821Y0117893D01*
X0474821Y0119491D02*
X0550971Y0119491D01*
X0550971Y0121090D02*
X0474821Y0121090D01*
X0474821Y0122688D02*
X0550971Y0122688D01*
X0550971Y0124287D02*
X0474821Y0124287D01*
X0474821Y0125885D02*
X0550971Y0125885D01*
X0550971Y0127484D02*
X0474821Y0127484D01*
X0474821Y0129082D02*
X0550971Y0129082D01*
X0550971Y0130681D02*
X0474754Y0130681D01*
X0473155Y0132279D02*
X0550971Y0132279D01*
X0550971Y0133878D02*
X0472771Y0133878D01*
X0472771Y0135476D02*
X0550971Y0135476D01*
X0550971Y0137075D02*
X0472771Y0137075D01*
X0472771Y0138673D02*
X0550971Y0138673D01*
X0550971Y0140272D02*
X0472771Y0140272D01*
X0472771Y0141870D02*
X0550971Y0141870D01*
X0550971Y0143469D02*
X0472771Y0143469D01*
X0472771Y0145068D02*
X0550971Y0145068D01*
X0550971Y0146666D02*
X0472771Y0146666D01*
X0472771Y0148265D02*
X0550971Y0148265D01*
X0550971Y0149863D02*
X0472771Y0149863D01*
X0472771Y0151462D02*
X0550971Y0151462D01*
X0550971Y0153060D02*
X0472771Y0153060D01*
X0472771Y0154659D02*
X0550971Y0154659D01*
X0550971Y0156257D02*
X0472771Y0156257D01*
X0472771Y0157856D02*
X0550971Y0157856D01*
X0550971Y0159454D02*
X0472771Y0159454D01*
X0472771Y0161053D02*
X0550971Y0161053D01*
X0550971Y0162651D02*
X0472771Y0162651D01*
X0472771Y0164250D02*
X0550971Y0164250D01*
X0550971Y0165848D02*
X0472771Y0165848D01*
X0472771Y0167447D02*
X0550971Y0167447D01*
X0550971Y0169045D02*
X0472771Y0169045D01*
X0472771Y0170644D02*
X0550971Y0170644D01*
X0550971Y0172242D02*
X0472771Y0172242D01*
X0472771Y0173841D02*
X0550971Y0173841D01*
X0550971Y0175439D02*
X0472771Y0175439D01*
X0472771Y0177038D02*
X0550971Y0177038D01*
X0550971Y0178636D02*
X0472771Y0178636D01*
X0472771Y0180235D02*
X0550971Y0180235D01*
X0550971Y0181833D02*
X0472771Y0181833D01*
X0472637Y0183432D02*
X0550971Y0183432D01*
X0550971Y0185030D02*
X0472209Y0185030D01*
X0471613Y0186629D02*
X0550971Y0186629D01*
X0550971Y0188227D02*
X0470690Y0188227D01*
X0469381Y0189826D02*
X0550971Y0189826D01*
X0550971Y0191424D02*
X0467635Y0191424D01*
X0464530Y0193023D02*
X0550971Y0193023D01*
X0550971Y0194621D02*
X0360826Y0194621D01*
X0359212Y0196220D02*
X0550971Y0196220D01*
X0550971Y0197818D02*
X0357597Y0197818D01*
X0355982Y0199417D02*
X0550971Y0199417D01*
X0550971Y0201015D02*
X0354367Y0201015D01*
X0352752Y0202614D02*
X0550971Y0202614D01*
X0550971Y0204212D02*
X0351137Y0204212D01*
X0349522Y0205811D02*
X0550971Y0205811D01*
X0550971Y0207409D02*
X0347907Y0207409D01*
X0346292Y0209008D02*
X0550971Y0209008D01*
X0550971Y0210606D02*
X0344677Y0210606D01*
X0343062Y0212205D02*
X0550971Y0212205D01*
X0550971Y0213803D02*
X0341448Y0213803D01*
X0340761Y0215402D02*
X0550971Y0215402D01*
X0550971Y0217001D02*
X0340758Y0217001D01*
X0340755Y0218599D02*
X0550971Y0218599D01*
X0550971Y0220198D02*
X0340752Y0220198D01*
X0340750Y0221796D02*
X0550971Y0221796D01*
X0550971Y0223395D02*
X0340747Y0223395D01*
X0340744Y0224993D02*
X0550971Y0224993D01*
X0550971Y0226592D02*
X0340742Y0226592D01*
X0340739Y0228190D02*
X0550971Y0228190D01*
X0550971Y0229789D02*
X0340736Y0229789D01*
X0340733Y0231387D02*
X0550971Y0231387D01*
X0550971Y0232986D02*
X0340731Y0232986D01*
X0340728Y0234584D02*
X0550971Y0234584D01*
X0550971Y0236183D02*
X0340725Y0236183D01*
X0340723Y0237781D02*
X0550971Y0237781D01*
X0550971Y0239380D02*
X0340720Y0239380D01*
X0340717Y0240978D02*
X0550971Y0240978D01*
X0550971Y0242577D02*
X0340714Y0242577D01*
X0340712Y0244175D02*
X0550971Y0244175D01*
X0550971Y0245774D02*
X0340709Y0245774D01*
X0340706Y0247372D02*
X0456122Y0247372D01*
X0460620Y0247372D02*
X0550971Y0247372D01*
X0550971Y0248971D02*
X0465586Y0248971D01*
X0468355Y0250569D02*
X0550971Y0250569D01*
X0550971Y0252168D02*
X0484369Y0252168D01*
X0487292Y0253766D02*
X0550971Y0253766D01*
X0550971Y0255365D02*
X0488972Y0255365D01*
X0490570Y0256963D02*
X0550971Y0256963D01*
X0550971Y0258562D02*
X0492169Y0258562D01*
X0493767Y0260160D02*
X0550971Y0260160D01*
X0550971Y0261759D02*
X0495366Y0261759D01*
X0495985Y0262378D02*
X0495985Y0262378D01*
X0496964Y0263357D02*
X0550971Y0263357D01*
X0550971Y0264956D02*
X0498449Y0264956D01*
X0499372Y0266554D02*
X0550971Y0266554D01*
X0550971Y0268153D02*
X0500097Y0268153D01*
X0500525Y0269751D02*
X0550971Y0269751D01*
X0550971Y0271350D02*
X0500771Y0271350D01*
X0500771Y0272948D02*
X0550971Y0272948D01*
X0550971Y0274547D02*
X0500771Y0274547D01*
X0500771Y0276145D02*
X0550971Y0276145D01*
X0550971Y0277744D02*
X0500771Y0277744D01*
X0500771Y0279342D02*
X0550971Y0279342D01*
X0550971Y0280941D02*
X0500771Y0280941D01*
X0500771Y0282539D02*
X0550971Y0282539D01*
X0550971Y0284138D02*
X0500771Y0284138D01*
X0500771Y0285737D02*
X0550971Y0285737D01*
X0550971Y0287335D02*
X0500771Y0287335D01*
X0500771Y0288934D02*
X0550971Y0288934D01*
X0550971Y0290532D02*
X0500771Y0290532D01*
X0500771Y0292131D02*
X0550971Y0292131D01*
X0550971Y0293729D02*
X0500771Y0293729D01*
X0500771Y0295328D02*
X0550971Y0295328D01*
X0550971Y0296926D02*
X0500771Y0296926D01*
X0500771Y0298525D02*
X0550971Y0298525D01*
X0550971Y0300123D02*
X0500771Y0300123D01*
X0500771Y0301722D02*
X0550971Y0301722D01*
X0550971Y0303320D02*
X0500771Y0303320D01*
X0500771Y0304919D02*
X0550971Y0304919D01*
X0550971Y0306517D02*
X0500771Y0306517D01*
X0500771Y0308116D02*
X0550971Y0308116D01*
X0550971Y0309714D02*
X0500771Y0309714D01*
X0500771Y0311313D02*
X0550971Y0311313D01*
X0550971Y0312911D02*
X0500771Y0312911D01*
X0500771Y0314510D02*
X0550971Y0314510D01*
X0550971Y0316108D02*
X0500771Y0316108D01*
X0500771Y0317707D02*
X0550971Y0317707D01*
X0550971Y0319305D02*
X0500771Y0319305D01*
X0500771Y0320904D02*
X0550971Y0320904D01*
X0550971Y0322502D02*
X0500771Y0322502D01*
X0500771Y0324101D02*
X0550971Y0324101D01*
X0550971Y0325699D02*
X0500771Y0325699D01*
X0500771Y0327298D02*
X0550971Y0327298D01*
X0550971Y0328896D02*
X0500771Y0328896D01*
X0500771Y0330495D02*
X0550971Y0330495D01*
X0550971Y0332093D02*
X0500771Y0332093D01*
X0500771Y0333692D02*
X0550971Y0333692D01*
X0550971Y0335290D02*
X0500771Y0335290D01*
X0500771Y0336889D02*
X0519920Y0336889D01*
X0536021Y0336889D02*
X0550971Y0336889D01*
X0550971Y0338487D02*
X0540093Y0338487D01*
X0542193Y0340086D02*
X0550971Y0340086D01*
X0550971Y0341684D02*
X0543791Y0341684D01*
X0545390Y0343283D02*
X0550971Y0343283D01*
X0550971Y0344881D02*
X0546989Y0344881D01*
X0548587Y0346480D02*
X0550971Y0346480D01*
X0550971Y0348078D02*
X0550186Y0348078D01*
X0532697Y0365662D02*
X0340506Y0365662D01*
X0340509Y0364064D02*
X0531098Y0364064D01*
X0529500Y0362465D02*
X0490880Y0362465D01*
X0475971Y0336889D02*
X0340555Y0336889D01*
X0340552Y0338487D02*
X0448046Y0338487D01*
X0444762Y0340086D02*
X0340549Y0340086D01*
X0340546Y0341684D02*
X0442950Y0341684D01*
X0441604Y0343283D02*
X0340544Y0343283D01*
X0340541Y0344881D02*
X0440681Y0344881D01*
X0440057Y0346480D02*
X0340538Y0346480D01*
X0340536Y0348078D02*
X0439629Y0348078D01*
X0439471Y0349677D02*
X0340533Y0349677D01*
X0340530Y0351275D02*
X0439471Y0351275D01*
X0439723Y0352874D02*
X0340528Y0352874D01*
X0340525Y0354472D02*
X0440151Y0354472D01*
X0440884Y0356071D02*
X0340522Y0356071D01*
X0340519Y0357670D02*
X0441807Y0357670D01*
X0443303Y0359268D02*
X0340517Y0359268D01*
X0340514Y0360867D02*
X0445373Y0360867D01*
X0449362Y0362465D02*
X0340511Y0362465D01*
X0340503Y0367261D02*
X0534295Y0367261D01*
X0534471Y0368859D02*
X0340500Y0368859D01*
X0340498Y0370458D02*
X0534471Y0370458D01*
X0534471Y0372056D02*
X0340495Y0372056D01*
X0340492Y0373655D02*
X0534471Y0373655D01*
X0534471Y0375253D02*
X0340490Y0375253D01*
X0340487Y0376852D02*
X0534471Y0376852D01*
X0534471Y0378450D02*
X0340484Y0378450D01*
X0340481Y0380049D02*
X0534471Y0380049D01*
X0534471Y0381647D02*
X0340479Y0381647D01*
X0340476Y0383246D02*
X0534471Y0383246D01*
X0534471Y0384844D02*
X0340473Y0384844D01*
X0340471Y0386443D02*
X0534471Y0386443D01*
X0534471Y0388041D02*
X0340468Y0388041D01*
X0340465Y0389640D02*
X0534471Y0389640D01*
X0534471Y0391238D02*
X0340463Y0391238D01*
X0340460Y0392837D02*
X0534471Y0392837D01*
X0534471Y0394435D02*
X0340457Y0394435D01*
X0340454Y0396034D02*
X0534471Y0396034D01*
X0534471Y0397632D02*
X0340452Y0397632D01*
X0340449Y0399231D02*
X0534471Y0399231D01*
X0534471Y0400829D02*
X0340446Y0400829D01*
X0340444Y0402428D02*
X0460915Y0402428D01*
X0461205Y0402350D02*
X0465537Y0402350D01*
X0469720Y0403471D01*
X0473471Y0405637D01*
X0474235Y0406400D01*
X0479503Y0406400D01*
X0482657Y0407245D01*
X0485485Y0408878D01*
X0500485Y0423878D01*
X0502793Y0426186D01*
X0504426Y0429014D01*
X0505271Y0432167D01*
X0505271Y0526249D01*
X0505291Y0526328D01*
X0505271Y0527880D01*
X0505271Y0568932D01*
X0504426Y0572086D01*
X0502793Y0574914D01*
X0500485Y0577222D01*
X0497657Y0578855D01*
X0494503Y0579700D01*
X0491238Y0579700D01*
X0488085Y0578855D01*
X0485257Y0577222D01*
X0482948Y0574914D01*
X0481316Y0572086D01*
X0480471Y0568932D01*
X0480471Y0540040D01*
X0476995Y0539995D01*
X0458099Y0539995D01*
X0458026Y0540015D01*
X0444716Y0540015D01*
X0441557Y0539169D01*
X0438725Y0537533D01*
X0436413Y0535221D01*
X0434778Y0532389D01*
X0433931Y0529230D01*
X0433931Y0525960D01*
X0434778Y0522801D01*
X0436413Y0519969D01*
X0438725Y0517657D01*
X0441557Y0516022D01*
X0444716Y0515176D01*
X0458026Y0515176D01*
X0458099Y0515195D01*
X0475525Y0515195D01*
X0475604Y0515175D01*
X0477156Y0515195D01*
X0480471Y0515195D01*
X0480471Y0438936D01*
X0473485Y0431950D01*
X0473471Y0431963D01*
X0469720Y0434129D01*
X0465537Y0435250D01*
X0461205Y0435250D01*
X0457021Y0434129D01*
X0453270Y0431963D01*
X0452507Y0431200D01*
X0371738Y0431200D01*
X0368917Y0430444D01*
X0363127Y0430444D01*
X0360407Y0429317D01*
X0358326Y0427236D01*
X0357199Y0424516D01*
X0357199Y0408911D01*
X0358326Y0406191D01*
X0360407Y0404109D01*
X0363127Y0402983D01*
X0378733Y0402983D01*
X0381452Y0404109D01*
X0383534Y0406191D01*
X0383621Y0406400D01*
X0452507Y0406400D01*
X0453270Y0405637D01*
X0457021Y0403471D01*
X0461205Y0402350D01*
X0465827Y0402428D02*
X0534471Y0402428D01*
X0534471Y0404026D02*
X0470682Y0404026D01*
X0473451Y0405625D02*
X0534471Y0405625D01*
X0534471Y0407223D02*
X0482576Y0407223D01*
X0485388Y0408822D02*
X0534471Y0408822D01*
X0534471Y0410420D02*
X0487027Y0410420D01*
X0488626Y0412019D02*
X0534471Y0412019D01*
X0534471Y0413617D02*
X0490225Y0413617D01*
X0491823Y0415216D02*
X0534471Y0415216D01*
X0534471Y0416814D02*
X0493422Y0416814D01*
X0495020Y0418413D02*
X0534471Y0418413D01*
X0534471Y0420011D02*
X0496619Y0420011D01*
X0498217Y0421610D02*
X0534471Y0421610D01*
X0534471Y0423208D02*
X0499816Y0423208D01*
X0501414Y0424807D02*
X0534471Y0424807D01*
X0534471Y0426405D02*
X0502920Y0426405D01*
X0503843Y0428004D02*
X0534471Y0428004D01*
X0534471Y0429603D02*
X0504584Y0429603D01*
X0505012Y0431201D02*
X0534471Y0431201D01*
X0534471Y0432800D02*
X0505271Y0432800D01*
X0505271Y0434398D02*
X0534471Y0434398D01*
X0534471Y0435997D02*
X0505271Y0435997D01*
X0505271Y0437595D02*
X0534471Y0437595D01*
X0534471Y0439194D02*
X0505271Y0439194D01*
X0505271Y0440792D02*
X0534471Y0440792D01*
X0534471Y0442391D02*
X0505271Y0442391D01*
X0505271Y0443989D02*
X0534471Y0443989D01*
X0534471Y0445588D02*
X0505271Y0445588D01*
X0505271Y0447186D02*
X0534471Y0447186D01*
X0534471Y0448785D02*
X0505271Y0448785D01*
X0505271Y0450383D02*
X0534471Y0450383D01*
X0534471Y0451982D02*
X0505271Y0451982D01*
X0505271Y0453580D02*
X0534471Y0453580D01*
X0534471Y0455179D02*
X0505271Y0455179D01*
X0505271Y0456777D02*
X0534471Y0456777D01*
X0534471Y0458376D02*
X0505271Y0458376D01*
X0505271Y0459974D02*
X0534471Y0459974D01*
X0534471Y0461573D02*
X0505271Y0461573D01*
X0505271Y0463171D02*
X0534471Y0463171D01*
X0534471Y0464770D02*
X0505271Y0464770D01*
X0505271Y0466368D02*
X0534471Y0466368D01*
X0534471Y0467967D02*
X0505271Y0467967D01*
X0505271Y0469565D02*
X0534471Y0469565D01*
X0534471Y0471164D02*
X0505271Y0471164D01*
X0505271Y0472762D02*
X0534471Y0472762D01*
X0534471Y0474361D02*
X0505271Y0474361D01*
X0505271Y0475959D02*
X0534471Y0475959D01*
X0534471Y0477558D02*
X0505271Y0477558D01*
X0505271Y0479156D02*
X0534471Y0479156D01*
X0534471Y0480755D02*
X0505271Y0480755D01*
X0505271Y0482353D02*
X0534471Y0482353D01*
X0534471Y0483952D02*
X0505271Y0483952D01*
X0505271Y0485550D02*
X0534471Y0485550D01*
X0534471Y0487149D02*
X0505271Y0487149D01*
X0505271Y0488747D02*
X0534471Y0488747D01*
X0534471Y0490346D02*
X0505271Y0490346D01*
X0505271Y0491944D02*
X0534471Y0491944D01*
X0534471Y0493543D02*
X0505271Y0493543D01*
X0505271Y0495141D02*
X0534471Y0495141D01*
X0534471Y0496740D02*
X0505271Y0496740D01*
X0505271Y0498339D02*
X0534471Y0498339D01*
X0534471Y0499937D02*
X0505271Y0499937D01*
X0505271Y0501536D02*
X0534471Y0501536D01*
X0534471Y0503134D02*
X0505271Y0503134D01*
X0505271Y0504733D02*
X0534471Y0504733D01*
X0534471Y0506331D02*
X0505271Y0506331D01*
X0505271Y0507930D02*
X0534471Y0507930D01*
X0534471Y0509528D02*
X0505271Y0509528D01*
X0505271Y0511127D02*
X0534471Y0511127D01*
X0534471Y0512725D02*
X0505271Y0512725D01*
X0505271Y0514324D02*
X0534471Y0514324D01*
X0534471Y0515922D02*
X0505271Y0515922D01*
X0505271Y0517521D02*
X0534471Y0517521D01*
X0534471Y0519119D02*
X0505271Y0519119D01*
X0505271Y0520718D02*
X0534471Y0520718D01*
X0534471Y0522316D02*
X0505271Y0522316D01*
X0505271Y0523915D02*
X0534471Y0523915D01*
X0534471Y0525513D02*
X0505271Y0525513D01*
X0505281Y0527112D02*
X0534471Y0527112D01*
X0534471Y0528710D02*
X0505271Y0528710D01*
X0505271Y0530309D02*
X0534471Y0530309D01*
X0534471Y0531907D02*
X0505271Y0531907D01*
X0505271Y0533506D02*
X0534471Y0533506D01*
X0534471Y0535104D02*
X0505271Y0535104D01*
X0505271Y0536703D02*
X0534471Y0536703D01*
X0534471Y0538301D02*
X0505271Y0538301D01*
X0505271Y0539900D02*
X0534471Y0539900D01*
X0534471Y0541498D02*
X0505271Y0541498D01*
X0505271Y0543097D02*
X0534471Y0543097D01*
X0534471Y0544695D02*
X0505271Y0544695D01*
X0505271Y0546294D02*
X0534471Y0546294D01*
X0534471Y0547892D02*
X0505271Y0547892D01*
X0505271Y0549491D02*
X0534471Y0549491D01*
X0534471Y0551089D02*
X0505271Y0551089D01*
X0505271Y0552688D02*
X0534471Y0552688D01*
X0534471Y0554286D02*
X0505271Y0554286D01*
X0505271Y0555885D02*
X0534471Y0555885D01*
X0534471Y0557483D02*
X0505271Y0557483D01*
X0505271Y0559082D02*
X0534471Y0559082D01*
X0534471Y0560680D02*
X0505271Y0560680D01*
X0505271Y0562279D02*
X0534471Y0562279D01*
X0534471Y0563877D02*
X0505271Y0563877D01*
X0505271Y0565476D02*
X0534471Y0565476D01*
X0534471Y0567074D02*
X0505271Y0567074D01*
X0505271Y0568673D02*
X0534471Y0568673D01*
X0534471Y0570272D02*
X0504912Y0570272D01*
X0504484Y0571870D02*
X0534471Y0571870D01*
X0534471Y0573469D02*
X0503628Y0573469D01*
X0502640Y0575067D02*
X0534471Y0575067D01*
X0534471Y0576666D02*
X0501042Y0576666D01*
X0498681Y0578264D02*
X0534471Y0578264D01*
X0534471Y0579863D02*
X0420970Y0579863D01*
X0422568Y0581461D02*
X0534471Y0581461D01*
X0534471Y0583060D02*
X0424167Y0583060D01*
X0425765Y0584658D02*
X0534471Y0584658D01*
X0534471Y0586257D02*
X0427364Y0586257D01*
X0428962Y0587855D02*
X0534471Y0587855D01*
X0534471Y0589454D02*
X0430561Y0589454D01*
X0432159Y0591052D02*
X0534471Y0591052D01*
X0534471Y0592651D02*
X0531475Y0592651D01*
X0533843Y0615030D02*
X0534471Y0615030D01*
X0534471Y0616628D02*
X0529793Y0616628D01*
X0534471Y0618227D02*
X0196871Y0618227D01*
X0196871Y0619825D02*
X0534471Y0619825D01*
X0533211Y0621424D02*
X0196871Y0621424D01*
X0196871Y0623022D02*
X0531612Y0623022D01*
X0511520Y0624621D02*
X0196871Y0624621D01*
X0196871Y0626219D02*
X0509163Y0626219D01*
X0507564Y0627818D02*
X0196871Y0627818D01*
X0196871Y0629416D02*
X0402922Y0629416D01*
X0400620Y0631015D02*
X0196871Y0631015D01*
X0196871Y0632613D02*
X0399021Y0632613D01*
X0398067Y0634212D02*
X0196871Y0634212D01*
X0196871Y0635810D02*
X0397236Y0635810D01*
X0396808Y0637409D02*
X0196871Y0637409D01*
X0196871Y0639008D02*
X0396471Y0639008D01*
X0396471Y0640606D02*
X0196871Y0640606D01*
X0196871Y0642205D02*
X0396471Y0642205D01*
X0396471Y0643803D02*
X0196871Y0643803D01*
X0196871Y0645402D02*
X0396471Y0645402D01*
X0396471Y0647000D02*
X0196871Y0647000D01*
X0196871Y0648599D02*
X0396471Y0648599D01*
X0396471Y0650197D02*
X0196871Y0650197D01*
X0196871Y0651796D02*
X0396471Y0651796D01*
X0396471Y0653394D02*
X0196871Y0653394D01*
X0196871Y0654993D02*
X0396471Y0654993D01*
X0396471Y0656591D02*
X0196871Y0656591D01*
X0196871Y0658190D02*
X0396471Y0658190D01*
X0396471Y0659788D02*
X0196871Y0659788D01*
X0196871Y0661387D02*
X0396471Y0661387D01*
X0396471Y0662985D02*
X0196871Y0662985D01*
X0196871Y0664584D02*
X0396471Y0664584D01*
X0396471Y0666182D02*
X0196871Y0666182D01*
X0196871Y0667781D02*
X0396471Y0667781D01*
X0396471Y0669379D02*
X0196871Y0669379D01*
X0196871Y0670978D02*
X0396471Y0670978D01*
X0396471Y0672576D02*
X0196871Y0672576D01*
X0196871Y0674175D02*
X0396471Y0674175D01*
X0396471Y0675773D02*
X0196871Y0675773D01*
X0196871Y0677372D02*
X0396471Y0677372D01*
X0395664Y0678970D02*
X0196871Y0678970D01*
X0196871Y0680569D02*
X0394066Y0680569D01*
X0392467Y0682167D02*
X0196871Y0682167D01*
X0196871Y0683766D02*
X0390869Y0683766D01*
X0389270Y0685364D02*
X0196871Y0685364D01*
X0196871Y0686963D02*
X0387672Y0686963D01*
X0386073Y0688561D02*
X0196871Y0688561D01*
X0196871Y0690160D02*
X0384475Y0690160D01*
X0382876Y0691758D02*
X0196871Y0691758D01*
X0196871Y0693357D02*
X0381278Y0693357D01*
X0379679Y0694955D02*
X0196871Y0694955D01*
X0196871Y0696554D02*
X0378081Y0696554D01*
X0376482Y0698152D02*
X0196871Y0698152D01*
X0196871Y0699751D02*
X0374884Y0699751D01*
X0373285Y0701349D02*
X0196871Y0701349D01*
X0196871Y0702948D02*
X0371687Y0702948D01*
X0370088Y0704546D02*
X0196871Y0704546D01*
X0196871Y0706145D02*
X0368490Y0706145D01*
X0367233Y0707743D02*
X0196871Y0707743D01*
X0196871Y0709342D02*
X0366310Y0709342D01*
X0365752Y0710941D02*
X0196871Y0710941D01*
X0196871Y0712539D02*
X0365324Y0712539D01*
X0365223Y0714138D02*
X0196871Y0714138D01*
X0196871Y0715736D02*
X0365223Y0715736D01*
X0365223Y0717335D02*
X0196871Y0717335D01*
X0196871Y0718933D02*
X0365223Y0718933D01*
X0365223Y0720532D02*
X0196871Y0720532D01*
X0196871Y0722130D02*
X0365223Y0722130D01*
X0365223Y0723729D02*
X0196871Y0723729D01*
X0196871Y0725327D02*
X0365223Y0725327D01*
X0365223Y0726926D02*
X0196871Y0726926D01*
X0196871Y0728524D02*
X0365223Y0728524D01*
X0365456Y0730123D02*
X0196871Y0730123D01*
X0196871Y0731721D02*
X0365885Y0731721D01*
X0366596Y0733320D02*
X0196871Y0733320D01*
X0196871Y0734918D02*
X0367519Y0734918D01*
X0368984Y0736517D02*
X0196871Y0736517D01*
X0196871Y0738115D02*
X0371003Y0738115D01*
X0374851Y0739714D02*
X0196871Y0739714D01*
X0196871Y0741312D02*
X0498822Y0741312D01*
X0499237Y0740897D02*
X0496468Y0743667D01*
X0494510Y0747058D01*
X0493496Y0750842D01*
X0493496Y0754758D01*
X0494510Y0758542D01*
X0496468Y0761933D01*
X0499237Y0764703D01*
X0502629Y0766661D01*
X0506413Y0767675D01*
X0510329Y0767675D01*
X0514112Y0766661D01*
X0517504Y0764703D01*
X0520274Y0761933D01*
X0522232Y0758542D01*
X0523246Y0754758D01*
X0523246Y0750842D01*
X0522232Y0747058D01*
X0520274Y0743667D01*
X0517504Y0740897D01*
X0514112Y0738939D01*
X0510329Y0737925D01*
X0506413Y0737925D01*
X0502629Y0738939D01*
X0499237Y0740897D01*
X0501287Y0739714D02*
X0380394Y0739714D01*
X0384243Y0738115D02*
X0505703Y0738115D01*
X0511039Y0738115D02*
X0550971Y0738115D01*
X0550971Y0736517D02*
X0386261Y0736517D01*
X0387727Y0734918D02*
X0550971Y0734918D01*
X0550971Y0733320D02*
X0388650Y0733320D01*
X0389361Y0731721D02*
X0550971Y0731721D01*
X0550971Y0730123D02*
X0389789Y0730123D01*
X0390023Y0728524D02*
X0550971Y0728524D01*
X0550971Y0726926D02*
X0390023Y0726926D01*
X0390023Y0725327D02*
X0550971Y0725327D01*
X0550971Y0723729D02*
X0390023Y0723729D01*
X0390023Y0722130D02*
X0550971Y0722130D01*
X0550971Y0720532D02*
X0390023Y0720532D01*
X0390774Y0718933D02*
X0550971Y0718933D01*
X0550971Y0717335D02*
X0392373Y0717335D01*
X0393971Y0715736D02*
X0550971Y0715736D01*
X0550971Y0714138D02*
X0395570Y0714138D01*
X0397168Y0712539D02*
X0550971Y0712539D01*
X0550971Y0710941D02*
X0398767Y0710941D01*
X0400365Y0709342D02*
X0550971Y0709342D01*
X0550971Y0707743D02*
X0401964Y0707743D01*
X0403562Y0706145D02*
X0550971Y0706145D01*
X0550971Y0704546D02*
X0405161Y0704546D01*
X0406759Y0702948D02*
X0550971Y0702948D01*
X0550971Y0701349D02*
X0408358Y0701349D01*
X0409956Y0699751D02*
X0464343Y0699751D01*
X0460330Y0698152D02*
X0411555Y0698152D01*
X0413153Y0696554D02*
X0457861Y0696554D01*
X0472399Y0699751D02*
X0550971Y0699751D01*
X0550971Y0698152D02*
X0476412Y0698152D01*
X0478881Y0696554D02*
X0550971Y0696554D01*
X0550971Y0694955D02*
X0495235Y0694955D01*
X0497736Y0693357D02*
X0550971Y0693357D01*
X0550971Y0691758D02*
X0499335Y0691758D01*
X0500933Y0690160D02*
X0550971Y0690160D01*
X0550971Y0688561D02*
X0502532Y0688561D01*
X0504130Y0686963D02*
X0550971Y0686963D01*
X0550971Y0685364D02*
X0505729Y0685364D01*
X0507327Y0683766D02*
X0550971Y0683766D01*
X0550971Y0682167D02*
X0508926Y0682167D01*
X0510524Y0680569D02*
X0550971Y0680569D01*
X0550971Y0678970D02*
X0512123Y0678970D01*
X0513721Y0677372D02*
X0550971Y0677372D01*
X0550971Y0675773D02*
X0515320Y0675773D01*
X0516918Y0674175D02*
X0550971Y0674175D01*
X0550971Y0672576D02*
X0518517Y0672576D01*
X0520115Y0670978D02*
X0550971Y0670978D01*
X0550971Y0669379D02*
X0521714Y0669379D01*
X0523312Y0667781D02*
X0550971Y0667781D01*
X0550971Y0666182D02*
X0524911Y0666182D01*
X0526509Y0664584D02*
X0550971Y0664584D01*
X0550971Y0662985D02*
X0531341Y0662985D01*
X0534562Y0661387D02*
X0550971Y0661387D01*
X0550971Y0659788D02*
X0536352Y0659788D01*
X0537688Y0658190D02*
X0550971Y0658190D01*
X0550971Y0656591D02*
X0538611Y0656591D01*
X0539228Y0654993D02*
X0550971Y0654993D01*
X0550971Y0653394D02*
X0539657Y0653394D01*
X0539810Y0651796D02*
X0550971Y0651796D01*
X0550971Y0650197D02*
X0539810Y0650197D01*
X0539555Y0648599D02*
X0550971Y0648599D01*
X0550971Y0647000D02*
X0541622Y0647000D01*
X0544306Y0645402D02*
X0550971Y0645402D01*
X0550971Y0643803D02*
X0545904Y0643803D01*
X0547503Y0642205D02*
X0550971Y0642205D01*
X0550971Y0640606D02*
X0549101Y0640606D01*
X0550700Y0639008D02*
X0550971Y0639008D01*
X0507273Y0643803D02*
X0421271Y0643803D01*
X0421271Y0642205D02*
X0506826Y0642205D01*
X0505903Y0640606D02*
X0421271Y0640606D01*
X0421271Y0639008D02*
X0505408Y0639008D01*
X0504979Y0637409D02*
X0420934Y0637409D01*
X0420505Y0635810D02*
X0504931Y0635810D01*
X0504931Y0634212D02*
X0419674Y0634212D01*
X0418721Y0632613D02*
X0505292Y0632613D01*
X0505721Y0631015D02*
X0417122Y0631015D01*
X0414820Y0629416D02*
X0506578Y0629416D01*
X0506350Y0645402D02*
X0421271Y0645402D01*
X0421271Y0647000D02*
X0505615Y0647000D01*
X0505187Y0648599D02*
X0421271Y0648599D01*
X0421271Y0650197D02*
X0504931Y0650197D01*
X0504225Y0651796D02*
X0421271Y0651796D01*
X0421271Y0653394D02*
X0502626Y0653394D01*
X0501028Y0654993D02*
X0421271Y0654993D01*
X0421271Y0656591D02*
X0499429Y0656591D01*
X0497831Y0658190D02*
X0421271Y0658190D01*
X0421271Y0659788D02*
X0496232Y0659788D01*
X0494634Y0661387D02*
X0421271Y0661387D01*
X0421271Y0662985D02*
X0493035Y0662985D01*
X0491437Y0664584D02*
X0421271Y0664584D01*
X0421271Y0666182D02*
X0489838Y0666182D01*
X0488240Y0667781D02*
X0472144Y0667781D01*
X0476293Y0669379D02*
X0486641Y0669379D01*
X0485043Y0670978D02*
X0478812Y0670978D01*
X0464598Y0667781D02*
X0421271Y0667781D01*
X0421271Y0669379D02*
X0460448Y0669379D01*
X0457929Y0670978D02*
X0421271Y0670978D01*
X0425659Y0616628D02*
X0196871Y0616628D01*
X0196871Y0615030D02*
X0421572Y0615030D01*
X0419466Y0613431D02*
X0196871Y0613431D01*
X0196871Y0611833D02*
X0417867Y0611833D01*
X0416269Y0610234D02*
X0196871Y0610234D01*
X0196871Y0608636D02*
X0414670Y0608636D01*
X0413072Y0607037D02*
X0196871Y0607037D01*
X0196871Y0605439D02*
X0411473Y0605439D01*
X0409875Y0603840D02*
X0196871Y0603840D01*
X0196871Y0602242D02*
X0408276Y0602242D01*
X0406678Y0600643D02*
X0196871Y0600643D01*
X0196871Y0599045D02*
X0405079Y0599045D01*
X0403481Y0597446D02*
X0196871Y0597446D01*
X0196871Y0595848D02*
X0401882Y0595848D01*
X0400284Y0594249D02*
X0196871Y0594249D01*
X0196871Y0592651D02*
X0398685Y0592651D01*
X0397087Y0591052D02*
X0196871Y0591052D01*
X0196871Y0589454D02*
X0395488Y0589454D01*
X0393890Y0587855D02*
X0196871Y0587855D01*
X0196871Y0586257D02*
X0392291Y0586257D01*
X0390693Y0584658D02*
X0196871Y0584658D01*
X0196871Y0583060D02*
X0389094Y0583060D01*
X0387496Y0581461D02*
X0196871Y0581461D01*
X0196871Y0579863D02*
X0385897Y0579863D01*
X0384299Y0578264D02*
X0196871Y0578264D01*
X0196871Y0576666D02*
X0382700Y0576666D01*
X0381102Y0575067D02*
X0196871Y0575067D01*
X0196871Y0573469D02*
X0379503Y0573469D01*
X0377905Y0571870D02*
X0196871Y0571870D01*
X0196871Y0570272D02*
X0376306Y0570272D01*
X0374708Y0568673D02*
X0196871Y0568673D01*
X0196871Y0567074D02*
X0373109Y0567074D01*
X0371511Y0565476D02*
X0196871Y0565476D01*
X0196871Y0563877D02*
X0369912Y0563877D01*
X0368314Y0562279D02*
X0196871Y0562279D01*
X0196871Y0560680D02*
X0366715Y0560680D01*
X0365117Y0559082D02*
X0196871Y0559082D01*
X0196871Y0557483D02*
X0363518Y0557483D01*
X0361920Y0555885D02*
X0196871Y0555885D01*
X0196871Y0554286D02*
X0360321Y0554286D01*
X0358723Y0552688D02*
X0196871Y0552688D01*
X0196871Y0551089D02*
X0357124Y0551089D01*
X0355526Y0549491D02*
X0196871Y0549491D01*
X0196871Y0547892D02*
X0353927Y0547892D01*
X0352328Y0546294D02*
X0196871Y0546294D01*
X0196871Y0544695D02*
X0350730Y0544695D01*
X0349131Y0543097D02*
X0196871Y0543097D01*
X0196871Y0541498D02*
X0347533Y0541498D01*
X0345934Y0539900D02*
X0196871Y0539900D01*
X0196871Y0538301D02*
X0344336Y0538301D01*
X0342737Y0536703D02*
X0196871Y0536703D01*
X0196871Y0535104D02*
X0341139Y0535104D01*
X0339540Y0533506D02*
X0196871Y0533506D01*
X0196871Y0531907D02*
X0337942Y0531907D01*
X0336343Y0530309D02*
X0196871Y0530309D01*
X0196871Y0528710D02*
X0334745Y0528710D01*
X0333146Y0527112D02*
X0196871Y0527112D01*
X0196871Y0525513D02*
X0331548Y0525513D01*
X0329949Y0523915D02*
X0196871Y0523915D01*
X0196871Y0522316D02*
X0328351Y0522316D01*
X0326752Y0520718D02*
X0196871Y0520718D01*
X0196871Y0519119D02*
X0325154Y0519119D01*
X0323555Y0517521D02*
X0196871Y0517521D01*
X0196871Y0515922D02*
X0321957Y0515922D01*
X0320358Y0514324D02*
X0196871Y0514324D01*
X0196871Y0512725D02*
X0318760Y0512725D01*
X0317493Y0511127D02*
X0196871Y0511127D01*
X0196871Y0509528D02*
X0316571Y0509528D01*
X0316005Y0507930D02*
X0196871Y0507930D01*
X0196871Y0506331D02*
X0315578Y0506331D01*
X0315470Y0504733D02*
X0196871Y0504733D01*
X0196871Y0503134D02*
X0315471Y0503134D01*
X0315476Y0501536D02*
X0196871Y0501536D01*
X0196871Y0499937D02*
X0315478Y0499937D01*
X0315481Y0498339D02*
X0196871Y0498339D01*
X0196871Y0496740D02*
X0315484Y0496740D01*
X0315486Y0495141D02*
X0196871Y0495141D01*
X0196871Y0493543D02*
X0315489Y0493543D01*
X0315492Y0491944D02*
X0196871Y0491944D01*
X0196871Y0490346D02*
X0315495Y0490346D01*
X0315497Y0488747D02*
X0196871Y0488747D01*
X0196871Y0487149D02*
X0315500Y0487149D01*
X0315503Y0485550D02*
X0196871Y0485550D01*
X0196871Y0483952D02*
X0315505Y0483952D01*
X0315508Y0482353D02*
X0196871Y0482353D01*
X0196871Y0480755D02*
X0315511Y0480755D01*
X0315513Y0479156D02*
X0196871Y0479156D01*
X0196871Y0477558D02*
X0315516Y0477558D01*
X0315519Y0475959D02*
X0196871Y0475959D01*
X0196871Y0474361D02*
X0315522Y0474361D01*
X0315524Y0472762D02*
X0196871Y0472762D01*
X0196871Y0471164D02*
X0315527Y0471164D01*
X0315530Y0469565D02*
X0196871Y0469565D01*
X0196871Y0467967D02*
X0315532Y0467967D01*
X0315535Y0466368D02*
X0196871Y0466368D01*
X0196871Y0464770D02*
X0315538Y0464770D01*
X0315541Y0463171D02*
X0196871Y0463171D01*
X0196871Y0461573D02*
X0315543Y0461573D01*
X0315546Y0459974D02*
X0196871Y0459974D01*
X0196871Y0458376D02*
X0315549Y0458376D01*
X0315551Y0456777D02*
X0196871Y0456777D01*
X0196871Y0455179D02*
X0315554Y0455179D01*
X0315557Y0453580D02*
X0196871Y0453580D01*
X0196871Y0451982D02*
X0315560Y0451982D01*
X0315562Y0450383D02*
X0196871Y0450383D01*
X0196871Y0448785D02*
X0315565Y0448785D01*
X0315568Y0447186D02*
X0196871Y0447186D01*
X0196871Y0445588D02*
X0315570Y0445588D01*
X0315573Y0443989D02*
X0196871Y0443989D01*
X0196871Y0442391D02*
X0315576Y0442391D01*
X0315578Y0440792D02*
X0196871Y0440792D01*
X0196871Y0439194D02*
X0315581Y0439194D01*
X0315584Y0437595D02*
X0196871Y0437595D01*
X0196871Y0435997D02*
X0315587Y0435997D01*
X0315589Y0434398D02*
X0196871Y0434398D01*
X0196871Y0432800D02*
X0315592Y0432800D01*
X0315595Y0431201D02*
X0196871Y0431201D01*
X0196871Y0429603D02*
X0315597Y0429603D01*
X0315600Y0428004D02*
X0196871Y0428004D01*
X0196871Y0426405D02*
X0315603Y0426405D01*
X0315606Y0424807D02*
X0196871Y0424807D01*
X0196871Y0423208D02*
X0315608Y0423208D01*
X0315611Y0421610D02*
X0196871Y0421610D01*
X0196871Y0420011D02*
X0315614Y0420011D01*
X0315616Y0418413D02*
X0196871Y0418413D01*
X0196871Y0416814D02*
X0315619Y0416814D01*
X0315622Y0415216D02*
X0196871Y0415216D01*
X0196871Y0413617D02*
X0315625Y0413617D01*
X0315627Y0412019D02*
X0196871Y0412019D01*
X0196871Y0410420D02*
X0315630Y0410420D01*
X0315633Y0408822D02*
X0196871Y0408822D01*
X0196871Y0407223D02*
X0315635Y0407223D01*
X0315638Y0405625D02*
X0196871Y0405625D01*
X0196871Y0404026D02*
X0315641Y0404026D01*
X0315644Y0402428D02*
X0196871Y0402428D01*
X0196871Y0400829D02*
X0315646Y0400829D01*
X0315649Y0399231D02*
X0196871Y0399231D01*
X0196871Y0397632D02*
X0315652Y0397632D01*
X0315654Y0396034D02*
X0196871Y0396034D01*
X0196871Y0394435D02*
X0315657Y0394435D01*
X0315660Y0392837D02*
X0196871Y0392837D01*
X0196871Y0391238D02*
X0315662Y0391238D01*
X0315665Y0389640D02*
X0196871Y0389640D01*
X0196871Y0388041D02*
X0315668Y0388041D01*
X0315671Y0386443D02*
X0196871Y0386443D01*
X0196871Y0384844D02*
X0315673Y0384844D01*
X0315676Y0383246D02*
X0196871Y0383246D01*
X0196871Y0381647D02*
X0315679Y0381647D01*
X0315681Y0380049D02*
X0196871Y0380049D01*
X0196871Y0378450D02*
X0315684Y0378450D01*
X0315687Y0376852D02*
X0196871Y0376852D01*
X0196871Y0375253D02*
X0315690Y0375253D01*
X0315692Y0373655D02*
X0196871Y0373655D01*
X0196871Y0372056D02*
X0315695Y0372056D01*
X0315698Y0370458D02*
X0196871Y0370458D01*
X0196871Y0368859D02*
X0315700Y0368859D01*
X0315703Y0367261D02*
X0196871Y0367261D01*
X0196871Y0365662D02*
X0315706Y0365662D01*
X0315709Y0364064D02*
X0196871Y0364064D01*
X0196871Y0362465D02*
X0315711Y0362465D01*
X0315714Y0360867D02*
X0196871Y0360867D01*
X0196871Y0359268D02*
X0315717Y0359268D01*
X0315719Y0357670D02*
X0196871Y0357670D01*
X0196871Y0356071D02*
X0315722Y0356071D01*
X0315725Y0354472D02*
X0196871Y0354472D01*
X0196871Y0352874D02*
X0315727Y0352874D01*
X0315730Y0351275D02*
X0196871Y0351275D01*
X0196871Y0349677D02*
X0315733Y0349677D01*
X0315736Y0348078D02*
X0196871Y0348078D01*
X0196871Y0346480D02*
X0315738Y0346480D01*
X0315741Y0344881D02*
X0196871Y0344881D01*
X0196871Y0343283D02*
X0315744Y0343283D01*
X0315746Y0341684D02*
X0196871Y0341684D01*
X0196871Y0340086D02*
X0315749Y0340086D01*
X0315752Y0338487D02*
X0196871Y0338487D01*
X0196871Y0336889D02*
X0315755Y0336889D01*
X0315757Y0335290D02*
X0196871Y0335290D01*
X0196871Y0333692D02*
X0315760Y0333692D01*
X0315763Y0332093D02*
X0196871Y0332093D01*
X0196871Y0330495D02*
X0315765Y0330495D01*
X0315768Y0328896D02*
X0196871Y0328896D01*
X0196871Y0327298D02*
X0315771Y0327298D01*
X0315774Y0325699D02*
X0196871Y0325699D01*
X0196871Y0324101D02*
X0315776Y0324101D01*
X0315779Y0322502D02*
X0196871Y0322502D01*
X0196871Y0320904D02*
X0315782Y0320904D01*
X0315784Y0319305D02*
X0196871Y0319305D01*
X0196871Y0317707D02*
X0315787Y0317707D01*
X0315790Y0316108D02*
X0196871Y0316108D01*
X0196871Y0314510D02*
X0315793Y0314510D01*
X0315795Y0312911D02*
X0196871Y0312911D01*
X0196871Y0311313D02*
X0315798Y0311313D01*
X0315801Y0309714D02*
X0196871Y0309714D01*
X0196871Y0308116D02*
X0315803Y0308116D01*
X0315806Y0306517D02*
X0196871Y0306517D01*
X0196871Y0304919D02*
X0315809Y0304919D01*
X0315811Y0303320D02*
X0196871Y0303320D01*
X0196871Y0301722D02*
X0315814Y0301722D01*
X0315817Y0300123D02*
X0196871Y0300123D01*
X0196871Y0298525D02*
X0315820Y0298525D01*
X0315822Y0296926D02*
X0196871Y0296926D01*
X0196871Y0295328D02*
X0315825Y0295328D01*
X0315828Y0293729D02*
X0196871Y0293729D01*
X0196871Y0292131D02*
X0315830Y0292131D01*
X0315833Y0290532D02*
X0196871Y0290532D01*
X0196871Y0288934D02*
X0315836Y0288934D01*
X0315839Y0287335D02*
X0196871Y0287335D01*
X0196871Y0285737D02*
X0315841Y0285737D01*
X0315844Y0284138D02*
X0196871Y0284138D01*
X0196871Y0282539D02*
X0315847Y0282539D01*
X0315849Y0280941D02*
X0196871Y0280941D01*
X0196871Y0279342D02*
X0315852Y0279342D01*
X0315855Y0277744D02*
X0196871Y0277744D01*
X0196871Y0276145D02*
X0315858Y0276145D01*
X0315860Y0274547D02*
X0196871Y0274547D01*
X0196871Y0272948D02*
X0315863Y0272948D01*
X0315866Y0271350D02*
X0196871Y0271350D01*
X0196871Y0269751D02*
X0315868Y0269751D01*
X0315871Y0268153D02*
X0196871Y0268153D01*
X0196871Y0266554D02*
X0315874Y0266554D01*
X0315877Y0264956D02*
X0196871Y0264956D01*
X0196871Y0263357D02*
X0315879Y0263357D01*
X0315882Y0261759D02*
X0196871Y0261759D01*
X0196871Y0260160D02*
X0315885Y0260160D01*
X0315887Y0258562D02*
X0196871Y0258562D01*
X0196871Y0256963D02*
X0315890Y0256963D01*
X0315893Y0255365D02*
X0196871Y0255365D01*
X0196871Y0253766D02*
X0315895Y0253766D01*
X0315898Y0252168D02*
X0196871Y0252168D01*
X0196871Y0250569D02*
X0315901Y0250569D01*
X0315904Y0248971D02*
X0196871Y0248971D01*
X0196871Y0247372D02*
X0315906Y0247372D01*
X0315909Y0245774D02*
X0196871Y0245774D01*
X0196871Y0244175D02*
X0315912Y0244175D01*
X0315914Y0242577D02*
X0196871Y0242577D01*
X0196871Y0240978D02*
X0315917Y0240978D01*
X0315920Y0239380D02*
X0196871Y0239380D01*
X0196871Y0237781D02*
X0315923Y0237781D01*
X0315925Y0236183D02*
X0196871Y0236183D01*
X0196871Y0234584D02*
X0315928Y0234584D01*
X0315931Y0232986D02*
X0196871Y0232986D01*
X0196871Y0231387D02*
X0315933Y0231387D01*
X0315936Y0229789D02*
X0196871Y0229789D01*
X0196871Y0228190D02*
X0315939Y0228190D01*
X0315942Y0226592D02*
X0196871Y0226592D01*
X0196871Y0224993D02*
X0315944Y0224993D01*
X0315947Y0223395D02*
X0196871Y0223395D01*
X0196871Y0221796D02*
X0315950Y0221796D01*
X0315952Y0220198D02*
X0196871Y0220198D01*
X0196871Y0218599D02*
X0315955Y0218599D01*
X0315958Y0217001D02*
X0196871Y0217001D01*
X0196871Y0215402D02*
X0315960Y0215402D01*
X0315963Y0213803D02*
X0196871Y0213803D01*
X0196871Y0212205D02*
X0315966Y0212205D01*
X0315964Y0210606D02*
X0196871Y0210606D01*
X0196871Y0209008D02*
X0315971Y0209008D01*
X0316033Y0207409D02*
X0196871Y0207409D01*
X0196871Y0205811D02*
X0316469Y0205811D01*
X0316982Y0204212D02*
X0196871Y0204212D01*
X0196871Y0202614D02*
X0317914Y0202614D01*
X0319114Y0201015D02*
X0196871Y0201015D01*
X0196871Y0199417D02*
X0320721Y0199417D01*
X0322344Y0197818D02*
X0196871Y0197818D01*
X0196871Y0196220D02*
X0323959Y0196220D01*
X0325574Y0194621D02*
X0196871Y0194621D01*
X0196871Y0193023D02*
X0327189Y0193023D01*
X0328803Y0191424D02*
X0196871Y0191424D01*
X0196871Y0189826D02*
X0330418Y0189826D01*
X0332033Y0188227D02*
X0196871Y0188227D01*
X0196871Y0186629D02*
X0333648Y0186629D01*
X0335263Y0185030D02*
X0196871Y0185030D01*
X0196871Y0183432D02*
X0336878Y0183432D01*
X0338493Y0181833D02*
X0196871Y0181833D01*
X0196871Y0180235D02*
X0340108Y0180235D01*
X0341723Y0178636D02*
X0196871Y0178636D01*
X0196871Y0177038D02*
X0343338Y0177038D01*
X0344953Y0175439D02*
X0196871Y0175439D01*
X0196871Y0173841D02*
X0346567Y0173841D01*
X0348182Y0172242D02*
X0196871Y0172242D01*
X0196871Y0170644D02*
X0349797Y0170644D01*
X0351412Y0169045D02*
X0196871Y0169045D01*
X0196871Y0167447D02*
X0353027Y0167447D01*
X0354642Y0165848D02*
X0196871Y0165848D01*
X0196871Y0164250D02*
X0356257Y0164250D01*
X0357872Y0162651D02*
X0196871Y0162651D01*
X0196871Y0161053D02*
X0359487Y0161053D01*
X0361102Y0159454D02*
X0196871Y0159454D01*
X0196871Y0157856D02*
X0362716Y0157856D01*
X0364331Y0156257D02*
X0196871Y0156257D01*
X0196871Y0154659D02*
X0365946Y0154659D01*
X0367561Y0153060D02*
X0196871Y0153060D01*
X0196871Y0151462D02*
X0369173Y0151462D01*
X0370772Y0149863D02*
X0196871Y0149863D01*
X0196871Y0148265D02*
X0372370Y0148265D01*
X0373969Y0146666D02*
X0196871Y0146666D01*
X0196871Y0145068D02*
X0375567Y0145068D01*
X0377166Y0143469D02*
X0196871Y0143469D01*
X0196871Y0141870D02*
X0378764Y0141870D01*
X0380363Y0140272D02*
X0196871Y0140272D01*
X0196871Y0138673D02*
X0381961Y0138673D01*
X0383560Y0137075D02*
X0196871Y0137075D01*
X0196871Y0135476D02*
X0385158Y0135476D01*
X0386757Y0133878D02*
X0196871Y0133878D01*
X0196871Y0132279D02*
X0388355Y0132279D01*
X0389954Y0130681D02*
X0196871Y0130681D01*
X0196871Y0129082D02*
X0391552Y0129082D01*
X0393151Y0127484D02*
X0196871Y0127484D01*
X0196871Y0125885D02*
X0394749Y0125885D01*
X0396348Y0124287D02*
X0196871Y0124287D01*
X0196871Y0122688D02*
X0397946Y0122688D01*
X0399545Y0121090D02*
X0196871Y0121090D01*
X0196871Y0119491D02*
X0401143Y0119491D01*
X0402742Y0117893D02*
X0196871Y0117893D01*
X0196871Y0116294D02*
X0404340Y0116294D01*
X0405939Y0114696D02*
X0196871Y0114696D01*
X0196871Y0113097D02*
X0408109Y0113097D01*
X0412370Y0111499D02*
X0196871Y0111499D01*
X0196871Y0109900D02*
X0449007Y0109900D01*
X0450605Y0108302D02*
X0196871Y0108302D01*
X0340704Y0248971D02*
X0451156Y0248971D01*
X0448387Y0250569D02*
X0340701Y0250569D01*
X0340698Y0252168D02*
X0398873Y0252168D01*
X0395950Y0253766D02*
X0340696Y0253766D01*
X0340693Y0255365D02*
X0394270Y0255365D01*
X0392671Y0256963D02*
X0340690Y0256963D01*
X0340687Y0258562D02*
X0391073Y0258562D01*
X0389474Y0260160D02*
X0340685Y0260160D01*
X0340682Y0261759D02*
X0387876Y0261759D01*
X0386277Y0263357D02*
X0340679Y0263357D01*
X0340677Y0264956D02*
X0384679Y0264956D01*
X0383080Y0266554D02*
X0340674Y0266554D01*
X0340671Y0268153D02*
X0381482Y0268153D01*
X0379883Y0269751D02*
X0340668Y0269751D01*
X0340666Y0271350D02*
X0378285Y0271350D01*
X0376686Y0272948D02*
X0340663Y0272948D01*
X0340660Y0274547D02*
X0375088Y0274547D01*
X0373489Y0276145D02*
X0340658Y0276145D01*
X0340655Y0277744D02*
X0371891Y0277744D01*
X0370292Y0279342D02*
X0340652Y0279342D01*
X0340649Y0280941D02*
X0368694Y0280941D01*
X0367351Y0282539D02*
X0340647Y0282539D01*
X0340644Y0284138D02*
X0366428Y0284138D01*
X0365807Y0285737D02*
X0340641Y0285737D01*
X0340639Y0287335D02*
X0365378Y0287335D01*
X0365223Y0288934D02*
X0340636Y0288934D01*
X0340633Y0290532D02*
X0365223Y0290532D01*
X0365223Y0292131D02*
X0340630Y0292131D01*
X0340628Y0293729D02*
X0365223Y0293729D01*
X0365223Y0295328D02*
X0340625Y0295328D01*
X0340622Y0296926D02*
X0365223Y0296926D01*
X0365223Y0298525D02*
X0340620Y0298525D01*
X0340617Y0300123D02*
X0365223Y0300123D01*
X0365223Y0301722D02*
X0340614Y0301722D01*
X0340612Y0303320D02*
X0365223Y0303320D01*
X0365223Y0304919D02*
X0340609Y0304919D01*
X0340606Y0306517D02*
X0365223Y0306517D01*
X0365223Y0308116D02*
X0340603Y0308116D01*
X0340601Y0309714D02*
X0365223Y0309714D01*
X0365223Y0311313D02*
X0340598Y0311313D01*
X0340595Y0312911D02*
X0365223Y0312911D01*
X0365292Y0314510D02*
X0340593Y0314510D01*
X0340590Y0316108D02*
X0365720Y0316108D01*
X0366242Y0317707D02*
X0340587Y0317707D01*
X0340584Y0319305D02*
X0367165Y0319305D01*
X0368371Y0320904D02*
X0340582Y0320904D01*
X0340579Y0322502D02*
X0369970Y0322502D01*
X0372710Y0324101D02*
X0340576Y0324101D01*
X0340574Y0325699D02*
X0475971Y0325699D01*
X0475971Y0324101D02*
X0382536Y0324101D01*
X0385276Y0322502D02*
X0475971Y0322502D01*
X0475971Y0320904D02*
X0386874Y0320904D01*
X0388081Y0319305D02*
X0475971Y0319305D01*
X0475971Y0317707D02*
X0389004Y0317707D01*
X0389525Y0316108D02*
X0475971Y0316108D01*
X0475971Y0314510D02*
X0389954Y0314510D01*
X0390023Y0312911D02*
X0475971Y0312911D01*
X0475971Y0311313D02*
X0390023Y0311313D01*
X0390023Y0309714D02*
X0475971Y0309714D01*
X0475971Y0308116D02*
X0390023Y0308116D01*
X0390023Y0306517D02*
X0475971Y0306517D01*
X0475971Y0304919D02*
X0390023Y0304919D01*
X0390023Y0303320D02*
X0475971Y0303320D01*
X0475971Y0301722D02*
X0390023Y0301722D01*
X0390023Y0300123D02*
X0475971Y0300123D01*
X0475971Y0298525D02*
X0390023Y0298525D01*
X0390023Y0296926D02*
X0475971Y0296926D01*
X0475971Y0295328D02*
X0390023Y0295328D01*
X0390978Y0293729D02*
X0475971Y0293729D01*
X0475971Y0292131D02*
X0392577Y0292131D01*
X0394175Y0290532D02*
X0475971Y0290532D01*
X0475971Y0288934D02*
X0395774Y0288934D01*
X0397372Y0287335D02*
X0475971Y0287335D01*
X0475971Y0285737D02*
X0398971Y0285737D01*
X0400569Y0284138D02*
X0475971Y0284138D01*
X0475971Y0282539D02*
X0402168Y0282539D01*
X0403766Y0280941D02*
X0475971Y0280941D01*
X0475971Y0279342D02*
X0463923Y0279342D01*
X0467119Y0277744D02*
X0475971Y0277744D01*
X0452818Y0279342D02*
X0405365Y0279342D01*
X0406963Y0277744D02*
X0449623Y0277744D01*
X0475971Y0327298D02*
X0340571Y0327298D01*
X0340568Y0328896D02*
X0475971Y0328896D01*
X0475971Y0330495D02*
X0340565Y0330495D01*
X0340563Y0332093D02*
X0475971Y0332093D01*
X0475971Y0333692D02*
X0340560Y0333692D01*
X0340557Y0335290D02*
X0475971Y0335290D01*
X0456060Y0404026D02*
X0381252Y0404026D01*
X0382968Y0405625D02*
X0453291Y0405625D01*
X0452508Y0431201D02*
X0340395Y0431201D01*
X0340397Y0429603D02*
X0361096Y0429603D01*
X0359094Y0428004D02*
X0340400Y0428004D01*
X0340403Y0426405D02*
X0357982Y0426405D01*
X0357320Y0424807D02*
X0340406Y0424807D01*
X0340408Y0423208D02*
X0357199Y0423208D01*
X0357199Y0421610D02*
X0340411Y0421610D01*
X0340414Y0420011D02*
X0357199Y0420011D01*
X0357199Y0418413D02*
X0340416Y0418413D01*
X0340419Y0416814D02*
X0357199Y0416814D01*
X0357199Y0415216D02*
X0340422Y0415216D01*
X0340425Y0413617D02*
X0357199Y0413617D01*
X0357199Y0412019D02*
X0340427Y0412019D01*
X0340430Y0410420D02*
X0357199Y0410420D01*
X0357236Y0408822D02*
X0340433Y0408822D01*
X0340435Y0407223D02*
X0357898Y0407223D01*
X0358892Y0405625D02*
X0340438Y0405625D01*
X0340441Y0404026D02*
X0360608Y0404026D01*
X0340392Y0432800D02*
X0454719Y0432800D01*
X0458026Y0434398D02*
X0340389Y0434398D01*
X0340387Y0435997D02*
X0477531Y0435997D01*
X0479130Y0437595D02*
X0340384Y0437595D01*
X0340381Y0439194D02*
X0480471Y0439194D01*
X0480471Y0440792D02*
X0340379Y0440792D01*
X0340376Y0442391D02*
X0480471Y0442391D01*
X0480471Y0443989D02*
X0340373Y0443989D01*
X0340370Y0445588D02*
X0480471Y0445588D01*
X0480471Y0447186D02*
X0340368Y0447186D01*
X0340365Y0448785D02*
X0480471Y0448785D01*
X0480471Y0450383D02*
X0340362Y0450383D01*
X0340360Y0451982D02*
X0480471Y0451982D01*
X0480471Y0453580D02*
X0340357Y0453580D01*
X0340354Y0455179D02*
X0480471Y0455179D01*
X0480471Y0456777D02*
X0340351Y0456777D01*
X0340349Y0458376D02*
X0480471Y0458376D01*
X0480471Y0459974D02*
X0340346Y0459974D01*
X0340343Y0461573D02*
X0480471Y0461573D01*
X0480471Y0463171D02*
X0340341Y0463171D01*
X0340338Y0464770D02*
X0480471Y0464770D01*
X0480471Y0466368D02*
X0340335Y0466368D01*
X0340332Y0467967D02*
X0480471Y0467967D01*
X0480471Y0469565D02*
X0340330Y0469565D01*
X0340327Y0471164D02*
X0480471Y0471164D01*
X0480471Y0472762D02*
X0340324Y0472762D01*
X0340322Y0474361D02*
X0480471Y0474361D01*
X0480471Y0475959D02*
X0340319Y0475959D01*
X0340316Y0477558D02*
X0480471Y0477558D01*
X0480471Y0479156D02*
X0340313Y0479156D01*
X0340311Y0480755D02*
X0480471Y0480755D01*
X0480471Y0482353D02*
X0340308Y0482353D01*
X0340305Y0483952D02*
X0480471Y0483952D01*
X0480471Y0485550D02*
X0340303Y0485550D01*
X0340300Y0487149D02*
X0480471Y0487149D01*
X0480471Y0488747D02*
X0340297Y0488747D01*
X0340295Y0490346D02*
X0480471Y0490346D01*
X0480471Y0491944D02*
X0340292Y0491944D01*
X0340289Y0493543D02*
X0480471Y0493543D01*
X0480471Y0495141D02*
X0340286Y0495141D01*
X0340284Y0496740D02*
X0480471Y0496740D01*
X0480471Y0498339D02*
X0340281Y0498339D01*
X0341044Y0499937D02*
X0480471Y0499937D01*
X0480471Y0501536D02*
X0342643Y0501536D01*
X0344241Y0503134D02*
X0480471Y0503134D01*
X0480471Y0504733D02*
X0345840Y0504733D01*
X0347438Y0506331D02*
X0480471Y0506331D01*
X0480471Y0507930D02*
X0349037Y0507930D01*
X0350635Y0509528D02*
X0480471Y0509528D01*
X0480471Y0511127D02*
X0352234Y0511127D01*
X0353832Y0512725D02*
X0480471Y0512725D01*
X0480471Y0514324D02*
X0355431Y0514324D01*
X0357029Y0515922D02*
X0441930Y0515922D01*
X0438962Y0517521D02*
X0358628Y0517521D01*
X0360226Y0519119D02*
X0437263Y0519119D01*
X0435981Y0520718D02*
X0361825Y0520718D01*
X0363423Y0522316D02*
X0435058Y0522316D01*
X0434480Y0523915D02*
X0365022Y0523915D01*
X0366620Y0525513D02*
X0434051Y0525513D01*
X0433931Y0527112D02*
X0368219Y0527112D01*
X0369817Y0528710D02*
X0433931Y0528710D01*
X0434220Y0530309D02*
X0371416Y0530309D01*
X0373014Y0531907D02*
X0434649Y0531907D01*
X0435423Y0533506D02*
X0374613Y0533506D01*
X0376211Y0535104D02*
X0436345Y0535104D01*
X0437895Y0536703D02*
X0377810Y0536703D01*
X0379408Y0538301D02*
X0440055Y0538301D01*
X0444286Y0539900D02*
X0381007Y0539900D01*
X0382605Y0541498D02*
X0480471Y0541498D01*
X0480471Y0543097D02*
X0384204Y0543097D01*
X0385802Y0544695D02*
X0480471Y0544695D01*
X0480471Y0546294D02*
X0387401Y0546294D01*
X0388999Y0547892D02*
X0480471Y0547892D01*
X0480471Y0549491D02*
X0390598Y0549491D01*
X0392196Y0551089D02*
X0480471Y0551089D01*
X0480471Y0552688D02*
X0393795Y0552688D01*
X0395394Y0554286D02*
X0480471Y0554286D01*
X0480471Y0555885D02*
X0396992Y0555885D01*
X0398591Y0557483D02*
X0480471Y0557483D01*
X0480471Y0559082D02*
X0400189Y0559082D01*
X0401788Y0560680D02*
X0480471Y0560680D01*
X0480471Y0562279D02*
X0403386Y0562279D01*
X0404985Y0563877D02*
X0480471Y0563877D01*
X0480471Y0565476D02*
X0406583Y0565476D01*
X0408182Y0567074D02*
X0480471Y0567074D01*
X0480471Y0568673D02*
X0409780Y0568673D01*
X0411379Y0570272D02*
X0480830Y0570272D01*
X0481258Y0571870D02*
X0412977Y0571870D01*
X0414576Y0573469D02*
X0482114Y0573469D01*
X0483102Y0575067D02*
X0416174Y0575067D01*
X0417773Y0576666D02*
X0484700Y0576666D01*
X0487061Y0578264D02*
X0419371Y0578264D01*
X0468716Y0434398D02*
X0475933Y0434398D01*
X0474334Y0432800D02*
X0472023Y0432800D01*
X0456211Y0193023D02*
X0362441Y0193023D01*
X0364056Y0191424D02*
X0453107Y0191424D01*
X0451360Y0189826D02*
X0365671Y0189826D01*
X0367286Y0188227D02*
X0450052Y0188227D01*
X0449129Y0186629D02*
X0368901Y0186629D01*
X0370516Y0185030D02*
X0448533Y0185030D01*
X0448105Y0183432D02*
X0372131Y0183432D01*
X0373746Y0181833D02*
X0447971Y0181833D01*
X0447971Y0180235D02*
X0375361Y0180235D01*
X0376976Y0178636D02*
X0447971Y0178636D01*
X0447971Y0177038D02*
X0378590Y0177038D01*
X0380205Y0175439D02*
X0447971Y0175439D01*
X0447971Y0173841D02*
X0381820Y0173841D01*
X0383435Y0172242D02*
X0447971Y0172242D01*
X0447971Y0170644D02*
X0385599Y0170644D01*
X0387197Y0169045D02*
X0447971Y0169045D01*
X0447971Y0167447D02*
X0388267Y0167447D01*
X0389859Y0165848D02*
X0447971Y0165848D01*
X0447971Y0164250D02*
X0391457Y0164250D01*
X0393056Y0162651D02*
X0447971Y0162651D01*
X0447971Y0161053D02*
X0394654Y0161053D01*
X0396253Y0159454D02*
X0447971Y0159454D01*
X0447971Y0157856D02*
X0397852Y0157856D01*
X0399450Y0156257D02*
X0447971Y0156257D01*
X0447971Y0154659D02*
X0401049Y0154659D01*
X0402647Y0153060D02*
X0447971Y0153060D01*
X0447971Y0151462D02*
X0404246Y0151462D01*
X0405844Y0149863D02*
X0447971Y0149863D01*
X0447971Y0148265D02*
X0407443Y0148265D01*
X0409041Y0146666D02*
X0447971Y0146666D01*
X0447971Y0145068D02*
X0410640Y0145068D01*
X0412238Y0143469D02*
X0447971Y0143469D01*
X0447971Y0141870D02*
X0413837Y0141870D01*
X0415435Y0140272D02*
X0447971Y0140272D01*
X0447971Y0138673D02*
X0417034Y0138673D01*
X0418632Y0137075D02*
X0447971Y0137075D01*
X0513817Y0066740D02*
X0550971Y0066740D01*
X0550971Y0065142D02*
X0516744Y0065142D01*
X0518664Y0063543D02*
X0550971Y0063543D01*
X0550971Y0061945D02*
X0520262Y0061945D01*
X0521190Y0060346D02*
X0550971Y0060346D01*
X0550971Y0058748D02*
X0522113Y0058748D01*
X0522605Y0057149D02*
X0550971Y0057149D01*
X0550971Y0055551D02*
X0523034Y0055551D01*
X0523246Y0053952D02*
X0550971Y0053952D01*
X0550971Y0052354D02*
X0523246Y0052354D01*
X0523223Y0050755D02*
X0550971Y0050755D01*
X0550971Y0049157D02*
X0522794Y0049157D01*
X0522366Y0047558D02*
X0550971Y0047558D01*
X0550971Y0045960D02*
X0521598Y0045960D01*
X0520675Y0044361D02*
X0550971Y0044361D01*
X0550971Y0042763D02*
X0519370Y0042763D01*
X0517772Y0041164D02*
X0550971Y0041164D01*
X0550971Y0039566D02*
X0515198Y0039566D01*
X0515455Y0739714D02*
X0550971Y0739714D01*
X0550971Y0741312D02*
X0517920Y0741312D01*
X0519518Y0742911D02*
X0550971Y0742911D01*
X0550971Y0744509D02*
X0520760Y0744509D01*
X0521683Y0746108D02*
X0550971Y0746108D01*
X0550971Y0747706D02*
X0522406Y0747706D01*
X0522834Y0749305D02*
X0550971Y0749305D01*
X0550971Y0750903D02*
X0523246Y0750903D01*
X0523246Y0752502D02*
X0550971Y0752502D01*
X0550971Y0754100D02*
X0523246Y0754100D01*
X0522994Y0755699D02*
X0550971Y0755699D01*
X0550971Y0757297D02*
X0522566Y0757297D01*
X0522028Y0758896D02*
X0550971Y0758896D01*
X0550971Y0760494D02*
X0521105Y0760494D01*
X0520114Y0762093D02*
X0550971Y0762093D01*
X0550971Y0763691D02*
X0518516Y0763691D01*
X0516488Y0765290D02*
X0550971Y0765290D01*
X0550971Y0766888D02*
X0513265Y0766888D01*
X0503477Y0766888D02*
X0196871Y0766888D01*
X0196871Y0765290D02*
X0500254Y0765290D01*
X0498226Y0763691D02*
X0196871Y0763691D01*
X0196871Y0762093D02*
X0496627Y0762093D01*
X0495637Y0760494D02*
X0196871Y0760494D01*
X0196871Y0758896D02*
X0494714Y0758896D01*
X0494176Y0757297D02*
X0196871Y0757297D01*
X0196871Y0755699D02*
X0493748Y0755699D01*
X0493496Y0754100D02*
X0196871Y0754100D01*
X0196871Y0752502D02*
X0493496Y0752502D01*
X0493496Y0750903D02*
X0196871Y0750903D01*
X0196871Y0749305D02*
X0493908Y0749305D01*
X0494336Y0747706D02*
X0196871Y0747706D01*
X0196871Y0746108D02*
X0495058Y0746108D01*
X0495981Y0744509D02*
X0196871Y0744509D01*
X0196871Y0742911D02*
X0497224Y0742911D01*
X0550971Y0768487D02*
X0196871Y0768487D01*
X0196871Y0770085D02*
X0550971Y0770085D01*
X0550971Y0771684D02*
X0196871Y0771684D01*
X0196871Y0773282D02*
X0550971Y0773282D01*
X0550971Y0774881D02*
X0196871Y0774881D01*
X0196871Y0776479D02*
X0550971Y0776479D01*
X0550971Y0778078D02*
X0196871Y0778078D01*
X0196871Y0779677D02*
X0550971Y0779677D01*
X0550971Y0781275D02*
X0196871Y0781275D01*
X0196871Y0782874D02*
X0550971Y0782874D01*
X0550971Y0784472D02*
X0196871Y0784472D01*
X0196871Y0786071D02*
X0550971Y0786071D01*
X0550971Y0787669D02*
X0196871Y0787669D01*
X0196871Y0789268D02*
X0550971Y0789268D01*
X0550971Y0790866D02*
X0196871Y0790866D01*
X0196871Y0792465D02*
X0550971Y0792465D01*
X0550971Y0794063D02*
X0196871Y0794063D01*
M02*
