%
M48
M72
T01C0.03200
T02C0.03600
T03C0.04331
T04C0.05512
T05C0.06693
T06C0.07900
T07C0.08661
T08C0.14950
%
T01
X38371Y178800
X38371Y208800
T02
X408871Y640300
X438871Y640300
X462871Y567300
X492871Y567300
X451871Y350300
X421871Y350300
X430371Y181300
X460371Y181300
T03
X377623Y161083
X377623Y127619
X377623Y312619
X377623Y346083
X135497Y346083
X135497Y324430
X135497Y161083
X135497Y139430
X67780Y552540
X67780Y579115
X135497Y739430
X135497Y761083
X377623Y761083
X377623Y727619
T04
X62713Y258800
X43028Y258800
X44528Y139800
X64213Y139800
T05
X451371Y512005
X451371Y527595
X522371Y604414
X522371Y620005
X522371Y635595
X522371Y651186
X527371Y349095
X527371Y333505
T06
X463371Y418800
X463371Y458800
X458371Y303800
X458371Y263800
X458371Y123800
X458371Y83800
X468371Y683800
X468371Y723800
T07
X370930Y438367
X370930Y416713
T08
X83371Y77800
X508371Y52800
X83371Y727800
X508371Y752800
M30
