%
M48
M72
T01C0.02362
T02C0.03200
T03C0.03937
T04C0.04331
T05C0.05512
T06C0.06693
T07C0.07900
T08C0.11024
T09C0.12598
T10C0.14950
%
T01
X85800Y232300
X454300Y79300
T02
X481800Y97300
X491800Y97300
X501800Y97300
X511800Y97300
X521800Y97300
X531800Y97300
X541800Y97300
X551800Y97300
X551800Y127300
X541800Y127300
X531800Y127300
X521800Y127300
X511800Y127300
X501800Y127300
X491800Y127300
X481800Y127300
X165300Y238800
X155300Y238800
X145300Y238800
X135300Y238800
X125300Y238800
X115300Y238800
X105300Y238800
X95300Y238800
X95300Y268800
X105300Y268800
X115300Y268800
X125300Y268800
X135300Y268800
X145300Y268800
X155300Y268800
X165300Y268800
T03
X164300Y115300
X164300Y105300
X154300Y105300
X154300Y115300
X144300Y115300
X144300Y105300
X134300Y105300
X134300Y115300
X124300Y115300
X124300Y105300
X114300Y105300
X114300Y115300
X104300Y115300
X104300Y105300
X94300Y105300
X94300Y115300
X174300Y115300
X174300Y105300
X184300Y105300
X184300Y115300
X194300Y115300
X194300Y105300
X204300Y105300
X204300Y115300
X214300Y115300
X214300Y105300
X224300Y105300
X224300Y115300
X234300Y115300
X234300Y105300
X244300Y105300
X244300Y115300
X254300Y115300
X254300Y105300
X264300Y105300
X264300Y115300
X274300Y115300
X274300Y105300
X284300Y105300
X284300Y115300
T04
X151187Y461670
X145734Y472851
X134828Y472851
X129376Y461670
X140281Y461670
X123923Y472851
X118470Y461670
X113017Y472851
X107565Y461670
T05
X499800Y367800
X540300Y367800
X540300Y283800
X526800Y283800
X513300Y283800
X499800Y283800
T06
X487800Y546914
X487800Y562505
X487800Y578095
X487800Y593686
T07
X136800Y51300
X82800Y52300
T08
X487300Y298200
X487300Y353400
X552800Y353400
X552800Y298200
X330050Y579800
X330050Y660800
X330050Y741800
X41550Y741800
X41550Y660800
X41550Y579800
T09
X80281Y467261
X178667Y467261
T10
X26800Y27800
X26800Y477800
X376800Y777800
X576800Y777800
X576800Y27800
M30
