G75*
%MOIN*%
%OFA0B0*%
%FSLAX25Y25*%
%IPPOS*%
%LPD*%
%AMOC8*
5,1,8,0,0,1.08239X$1,22.5*
%
%ADD10C,0.00800*%
%ADD11C,0.00500*%
%ADD12C,0.00400*%
%ADD13C,0.00600*%
D10*
X0074930Y0093765D02*
X0074930Y0126835D01*
X0095922Y0126835D01*
X0095922Y0125654D01*
X0101745Y0125654D01*
X0101745Y0126835D01*
X0181887Y0126835D01*
X0196713Y0126835D01*
X0275922Y0126835D01*
X0275922Y0125654D01*
X0281745Y0125654D01*
X0281745Y0126835D01*
X0303670Y0126835D01*
X0303670Y0093765D01*
X0281713Y0093765D01*
X0281713Y0099867D01*
X0266887Y0099867D01*
X0266887Y0093765D01*
X0111713Y0093765D01*
X0111713Y0099867D01*
X0096887Y0099867D01*
X0096887Y0093765D01*
X0074930Y0093765D01*
X0079359Y0097406D02*
X0079359Y0123194D01*
X0181887Y0123194D01*
X0181887Y0120733D02*
X0196713Y0120733D01*
X0196713Y0126835D01*
X0196713Y0123194D02*
X0299241Y0123194D01*
X0299241Y0097406D01*
X0281741Y0097406D01*
X0281713Y0093765D02*
X0266887Y0093765D01*
X0266879Y0097406D02*
X0111721Y0097406D01*
X0111713Y0093765D02*
X0096887Y0093765D01*
X0096859Y0097406D02*
X0079359Y0097406D01*
X0181887Y0120733D02*
X0181887Y0126835D01*
X0468312Y0539808D02*
X0506796Y0539808D01*
X0506796Y0600891D01*
X0468312Y0600891D01*
X0468312Y0593804D01*
X0477859Y0593804D01*
X0477859Y0546894D01*
X0468312Y0546894D01*
X0468312Y0539808D01*
X0468312Y0546894D02*
X0468312Y0593804D01*
D11*
X0349300Y0535800D02*
X0310800Y0535800D01*
X0310800Y0785800D01*
X0349300Y0785800D01*
X0349300Y0535800D01*
X0310800Y0535800D02*
X0274300Y0535800D01*
X0274300Y0498300D01*
X0274300Y0535800D02*
X0224800Y0535800D01*
X0224800Y0498300D01*
X0189848Y0505017D02*
X0189848Y0456080D01*
X0158418Y0461125D02*
X0157667Y0460374D01*
X0156166Y0460374D01*
X0155415Y0461125D01*
X0155415Y0462626D02*
X0156916Y0463377D01*
X0157667Y0463377D01*
X0158418Y0462626D01*
X0158418Y0461125D01*
X0155415Y0462626D02*
X0155415Y0464878D01*
X0158418Y0464878D01*
X0157667Y0470874D02*
X0158418Y0471625D01*
X0158418Y0474627D01*
X0157667Y0475378D01*
X0156166Y0475378D01*
X0155415Y0474627D01*
X0155415Y0473877D01*
X0156166Y0473126D01*
X0158418Y0473126D01*
X0157667Y0470874D02*
X0156166Y0470874D01*
X0155415Y0471625D01*
X0161383Y0504977D02*
X0161423Y0528599D01*
X0161364Y0528639D02*
X0097072Y0528639D01*
X0097171Y0528599D02*
X0097171Y0504977D01*
X0099918Y0474878D02*
X0098416Y0474127D01*
X0096915Y0472626D01*
X0099167Y0472626D01*
X0099918Y0471875D01*
X0099918Y0471125D01*
X0099167Y0470374D01*
X0097666Y0470374D01*
X0096915Y0471125D01*
X0096915Y0472626D01*
X0098416Y0464878D02*
X0096915Y0463377D01*
X0098416Y0464878D02*
X0098416Y0460374D01*
X0096915Y0460374D02*
X0099918Y0460374D01*
X0068549Y0456080D02*
X0068549Y0505017D01*
X0068588Y0505017D02*
X0189848Y0505017D01*
X0224800Y0535800D02*
X0060800Y0535800D01*
X0060800Y0785800D01*
X0310800Y0785800D01*
X0060800Y0785800D02*
X0022300Y0785800D01*
X0022300Y0535800D01*
X0060800Y0535800D01*
X0430800Y0325800D02*
X0468300Y0325800D01*
X0468300Y0359800D01*
X0499800Y0359800D01*
X0499800Y0371800D01*
X0499800Y0359800D02*
X0513300Y0359800D01*
X0513300Y0371800D01*
X0513300Y0359800D02*
X0526800Y0359800D01*
X0526800Y0371800D01*
X0526800Y0359800D02*
X0540300Y0359800D01*
X0540300Y0371800D01*
X0540300Y0359800D02*
X0571800Y0359800D01*
X0571800Y0325800D01*
X0609300Y0325800D01*
X0571800Y0325800D02*
X0571800Y0291800D01*
X0540300Y0291800D01*
X0540300Y0279800D01*
X0540300Y0291800D02*
X0526800Y0291800D01*
X0526800Y0279800D01*
X0526800Y0291800D02*
X0513300Y0291800D01*
X0513300Y0279800D01*
X0513300Y0291800D02*
X0499800Y0291800D01*
X0499800Y0279800D01*
X0499800Y0291800D02*
X0468300Y0291800D01*
X0468300Y0325800D01*
D12*
X0502000Y0325602D02*
X0505069Y0325602D01*
X0505069Y0327904D02*
X0505069Y0323300D01*
X0506604Y0323300D02*
X0506604Y0327904D01*
X0508139Y0326369D01*
X0509673Y0327904D01*
X0509673Y0323300D01*
X0511208Y0324067D02*
X0511975Y0323300D01*
X0513510Y0323300D01*
X0514277Y0324067D01*
X0515812Y0325602D02*
X0518881Y0325602D01*
X0520416Y0327137D02*
X0520416Y0324067D01*
X0521183Y0323300D01*
X0522718Y0323300D01*
X0523485Y0324067D01*
X0525020Y0324067D02*
X0528089Y0327137D01*
X0528089Y0324067D01*
X0527322Y0323300D01*
X0525787Y0323300D01*
X0525020Y0324067D01*
X0525020Y0327137D01*
X0525787Y0327904D01*
X0527322Y0327904D01*
X0528089Y0327137D01*
X0529624Y0326369D02*
X0531158Y0327904D01*
X0531158Y0323300D01*
X0529624Y0323300D02*
X0532693Y0323300D01*
X0534227Y0324067D02*
X0534227Y0324835D01*
X0534995Y0325602D01*
X0536529Y0325602D01*
X0537297Y0324835D01*
X0537297Y0324067D01*
X0536529Y0323300D01*
X0534995Y0323300D01*
X0534227Y0324067D01*
X0534995Y0325602D02*
X0534227Y0326369D01*
X0534227Y0327137D01*
X0534995Y0327904D01*
X0536529Y0327904D01*
X0537297Y0327137D01*
X0537297Y0326369D01*
X0536529Y0325602D01*
X0523485Y0327137D02*
X0522718Y0327904D01*
X0521183Y0327904D01*
X0520416Y0327137D01*
X0514277Y0327137D02*
X0513510Y0327904D01*
X0511975Y0327904D01*
X0511208Y0327137D01*
X0511208Y0324067D01*
X0502000Y0323300D02*
X0502000Y0327904D01*
D13*
X0476800Y0123800D02*
X0476800Y0116300D01*
X0476926Y0116298D01*
X0477051Y0116292D01*
X0477176Y0116282D01*
X0477301Y0116268D01*
X0477426Y0116251D01*
X0477550Y0116229D01*
X0477673Y0116204D01*
X0477795Y0116174D01*
X0477916Y0116141D01*
X0478036Y0116104D01*
X0478155Y0116064D01*
X0478272Y0116019D01*
X0478389Y0115971D01*
X0478503Y0115919D01*
X0478616Y0115864D01*
X0478727Y0115805D01*
X0478836Y0115743D01*
X0478943Y0115677D01*
X0479048Y0115608D01*
X0479151Y0115536D01*
X0479252Y0115461D01*
X0479350Y0115382D01*
X0479445Y0115300D01*
X0479538Y0115216D01*
X0479628Y0115128D01*
X0479716Y0115038D01*
X0479800Y0114945D01*
X0479882Y0114850D01*
X0479961Y0114752D01*
X0480036Y0114651D01*
X0480108Y0114548D01*
X0480177Y0114443D01*
X0480243Y0114336D01*
X0480305Y0114227D01*
X0480364Y0114116D01*
X0480419Y0114003D01*
X0480471Y0113889D01*
X0480519Y0113772D01*
X0480564Y0113655D01*
X0480604Y0113536D01*
X0480641Y0113416D01*
X0480674Y0113295D01*
X0480704Y0113173D01*
X0480729Y0113050D01*
X0480751Y0112926D01*
X0480768Y0112801D01*
X0480782Y0112676D01*
X0480792Y0112551D01*
X0480798Y0112426D01*
X0480800Y0112300D01*
X0480798Y0112174D01*
X0480792Y0112049D01*
X0480782Y0111924D01*
X0480768Y0111799D01*
X0480751Y0111674D01*
X0480729Y0111550D01*
X0480704Y0111427D01*
X0480674Y0111305D01*
X0480641Y0111184D01*
X0480604Y0111064D01*
X0480564Y0110945D01*
X0480519Y0110828D01*
X0480471Y0110711D01*
X0480419Y0110597D01*
X0480364Y0110484D01*
X0480305Y0110373D01*
X0480243Y0110264D01*
X0480177Y0110157D01*
X0480108Y0110052D01*
X0480036Y0109949D01*
X0479961Y0109848D01*
X0479882Y0109750D01*
X0479800Y0109655D01*
X0479716Y0109562D01*
X0479628Y0109472D01*
X0479538Y0109384D01*
X0479445Y0109300D01*
X0479350Y0109218D01*
X0479252Y0109139D01*
X0479151Y0109064D01*
X0479048Y0108992D01*
X0478943Y0108923D01*
X0478836Y0108857D01*
X0478727Y0108795D01*
X0478616Y0108736D01*
X0478503Y0108681D01*
X0478389Y0108629D01*
X0478272Y0108581D01*
X0478155Y0108536D01*
X0478036Y0108496D01*
X0477916Y0108459D01*
X0477795Y0108426D01*
X0477673Y0108396D01*
X0477550Y0108371D01*
X0477426Y0108349D01*
X0477301Y0108332D01*
X0477176Y0108318D01*
X0477051Y0108308D01*
X0476926Y0108302D01*
X0476800Y0108300D01*
X0476800Y0100800D01*
X0556800Y0100800D01*
X0556800Y0123800D01*
X0476800Y0123800D01*
X0170300Y0242300D02*
X0170300Y0265300D01*
X0090300Y0265300D01*
X0090300Y0257800D01*
X0090426Y0257798D01*
X0090551Y0257792D01*
X0090676Y0257782D01*
X0090801Y0257768D01*
X0090926Y0257751D01*
X0091050Y0257729D01*
X0091173Y0257704D01*
X0091295Y0257674D01*
X0091416Y0257641D01*
X0091536Y0257604D01*
X0091655Y0257564D01*
X0091772Y0257519D01*
X0091889Y0257471D01*
X0092003Y0257419D01*
X0092116Y0257364D01*
X0092227Y0257305D01*
X0092336Y0257243D01*
X0092443Y0257177D01*
X0092548Y0257108D01*
X0092651Y0257036D01*
X0092752Y0256961D01*
X0092850Y0256882D01*
X0092945Y0256800D01*
X0093038Y0256716D01*
X0093128Y0256628D01*
X0093216Y0256538D01*
X0093300Y0256445D01*
X0093382Y0256350D01*
X0093461Y0256252D01*
X0093536Y0256151D01*
X0093608Y0256048D01*
X0093677Y0255943D01*
X0093743Y0255836D01*
X0093805Y0255727D01*
X0093864Y0255616D01*
X0093919Y0255503D01*
X0093971Y0255389D01*
X0094019Y0255272D01*
X0094064Y0255155D01*
X0094104Y0255036D01*
X0094141Y0254916D01*
X0094174Y0254795D01*
X0094204Y0254673D01*
X0094229Y0254550D01*
X0094251Y0254426D01*
X0094268Y0254301D01*
X0094282Y0254176D01*
X0094292Y0254051D01*
X0094298Y0253926D01*
X0094300Y0253800D01*
X0094298Y0253674D01*
X0094292Y0253549D01*
X0094282Y0253424D01*
X0094268Y0253299D01*
X0094251Y0253174D01*
X0094229Y0253050D01*
X0094204Y0252927D01*
X0094174Y0252805D01*
X0094141Y0252684D01*
X0094104Y0252564D01*
X0094064Y0252445D01*
X0094019Y0252328D01*
X0093971Y0252211D01*
X0093919Y0252097D01*
X0093864Y0251984D01*
X0093805Y0251873D01*
X0093743Y0251764D01*
X0093677Y0251657D01*
X0093608Y0251552D01*
X0093536Y0251449D01*
X0093461Y0251348D01*
X0093382Y0251250D01*
X0093300Y0251155D01*
X0093216Y0251062D01*
X0093128Y0250972D01*
X0093038Y0250884D01*
X0092945Y0250800D01*
X0092850Y0250718D01*
X0092752Y0250639D01*
X0092651Y0250564D01*
X0092548Y0250492D01*
X0092443Y0250423D01*
X0092336Y0250357D01*
X0092227Y0250295D01*
X0092116Y0250236D01*
X0092003Y0250181D01*
X0091889Y0250129D01*
X0091772Y0250081D01*
X0091655Y0250036D01*
X0091536Y0249996D01*
X0091416Y0249959D01*
X0091295Y0249926D01*
X0091173Y0249896D01*
X0091050Y0249871D01*
X0090926Y0249849D01*
X0090801Y0249832D01*
X0090676Y0249818D01*
X0090551Y0249808D01*
X0090426Y0249802D01*
X0090300Y0249800D01*
X0090300Y0242300D01*
X0170300Y0242300D01*
M02*
