G75*
%MOIN*%
%OFA0B0*%
%FSLAX25Y25*%
%IPPOS*%
%LPD*%
%AMOC8*
5,1,8,0,0,1.08239X$1,22.5*
%
%ADD10C,0.05937*%
%ADD11OC8,0.06496*%
%ADD12C,0.08268*%
%ADD13R,0.08268X0.08268*%
%ADD14C,0.11850*%
%ADD15C,0.05200*%
%ADD16C,0.10039*%
%ADD17C,0.05600*%
%ADD18R,0.03962X0.03962*%
%ADD19C,0.01600*%
%ADD20C,0.08600*%
D10*
X0094300Y0105300D03*
X0094300Y0115300D03*
X0104300Y0115300D03*
X0104300Y0105300D03*
X0114300Y0105300D03*
X0114300Y0115300D03*
X0124300Y0115300D03*
X0124300Y0105300D03*
X0134300Y0105300D03*
X0134300Y0115300D03*
X0144300Y0115300D03*
X0144300Y0105300D03*
X0154300Y0105300D03*
X0154300Y0115300D03*
X0164300Y0115300D03*
X0164300Y0105300D03*
X0174300Y0105300D03*
X0174300Y0115300D03*
X0184300Y0115300D03*
X0184300Y0105300D03*
X0194300Y0105300D03*
X0194300Y0115300D03*
X0204300Y0115300D03*
X0204300Y0105300D03*
X0214300Y0105300D03*
X0214300Y0115300D03*
X0224300Y0115300D03*
X0224300Y0105300D03*
X0234300Y0105300D03*
X0234300Y0115300D03*
X0244300Y0115300D03*
X0244300Y0105300D03*
X0254300Y0105300D03*
X0254300Y0115300D03*
X0264300Y0115300D03*
X0264300Y0105300D03*
X0274300Y0105300D03*
X0274300Y0115300D03*
X0284300Y0115300D03*
X0284300Y0105300D03*
D11*
X0151187Y0461670D03*
X0145734Y0472851D03*
X0134828Y0472851D03*
X0129376Y0461670D03*
X0140281Y0461670D03*
X0123923Y0472851D03*
X0118470Y0461670D03*
X0113017Y0472851D03*
X0107565Y0461670D03*
D12*
X0499800Y0283800D03*
X0513300Y0283800D03*
X0526800Y0283800D03*
X0540300Y0283800D03*
X0540300Y0367800D03*
D13*
X0499800Y0367800D03*
D14*
X0136800Y0057225D02*
X0136800Y0045375D01*
X0082800Y0046375D02*
X0082800Y0058225D01*
D15*
X0095300Y0236200D02*
X0095300Y0241400D01*
X0105300Y0241400D02*
X0105300Y0236200D01*
X0115300Y0236200D02*
X0115300Y0241400D01*
X0125300Y0241400D02*
X0125300Y0236200D01*
X0135300Y0236200D02*
X0135300Y0241400D01*
X0145300Y0241400D02*
X0145300Y0236200D01*
X0155300Y0236200D02*
X0155300Y0241400D01*
X0165300Y0241400D02*
X0165300Y0236200D01*
X0165300Y0266200D02*
X0165300Y0271400D01*
X0155300Y0271400D02*
X0155300Y0266200D01*
X0145300Y0266200D02*
X0145300Y0271400D01*
X0135300Y0271400D02*
X0135300Y0266200D01*
X0125300Y0266200D02*
X0125300Y0271400D01*
X0115300Y0271400D02*
X0115300Y0266200D01*
X0105300Y0266200D02*
X0105300Y0271400D01*
X0095300Y0271400D02*
X0095300Y0266200D01*
X0481800Y0129900D02*
X0481800Y0124700D01*
X0491800Y0124700D02*
X0491800Y0129900D01*
X0501800Y0129900D02*
X0501800Y0124700D01*
X0511800Y0124700D02*
X0511800Y0129900D01*
X0521800Y0129900D02*
X0521800Y0124700D01*
X0531800Y0124700D02*
X0531800Y0129900D01*
X0541800Y0129900D02*
X0541800Y0124700D01*
X0551800Y0124700D02*
X0551800Y0129900D01*
X0551800Y0099900D02*
X0551800Y0094700D01*
X0541800Y0094700D02*
X0541800Y0099900D01*
X0531800Y0099900D02*
X0531800Y0094700D01*
X0521800Y0094700D02*
X0521800Y0099900D01*
X0511800Y0099900D02*
X0511800Y0094700D01*
X0501800Y0094700D02*
X0501800Y0099900D01*
X0491800Y0099900D02*
X0491800Y0094700D01*
X0481800Y0094700D02*
X0481800Y0099900D01*
D16*
X0482780Y0546914D02*
X0492820Y0546914D01*
X0492820Y0562505D02*
X0482780Y0562505D01*
X0482780Y0578095D02*
X0492820Y0578095D01*
X0492820Y0593686D02*
X0482780Y0593686D01*
D17*
X0499800Y0283800D02*
X0499800Y0161300D01*
X0466800Y0128800D01*
X0466800Y0119800D01*
X0475800Y0110800D01*
X0506300Y0110800D01*
X0511800Y0105300D01*
X0511800Y0097300D01*
X0521800Y0097300D02*
X0521800Y0105800D01*
X0526800Y0110800D01*
X0556800Y0110800D01*
X0568300Y0122300D01*
X0568300Y0131800D01*
X0539800Y0160300D01*
X0540300Y0283800D01*
X0526800Y0283800D02*
X0526800Y0150300D01*
X0531800Y0145300D01*
X0531800Y0127300D01*
X0513300Y0142300D02*
X0511800Y0140800D01*
X0511800Y0127300D01*
X0513300Y0142300D02*
X0513300Y0283800D01*
X0446800Y0115300D02*
X0464800Y0097300D01*
X0481800Y0097300D01*
X0454300Y0079300D02*
X0291800Y0079300D01*
X0284300Y0086800D01*
X0284300Y0105300D01*
X0284300Y0115300D02*
X0446800Y0115300D01*
X0274300Y0105300D02*
X0273800Y0104800D01*
X0273800Y0094300D01*
X0264300Y0084800D01*
X0078800Y0084800D01*
X0066800Y0096800D01*
X0066800Y0119800D01*
X0085300Y0138300D01*
X0085800Y0232300D01*
X0089300Y0251300D02*
X0120800Y0251300D01*
X0125300Y0246300D01*
X0125300Y0236800D01*
X0135300Y0236300D02*
X0135800Y0235800D01*
X0135300Y0236300D02*
X0135300Y0245800D01*
X0141300Y0251800D01*
X0167800Y0251800D01*
X0179300Y0263300D01*
X0179800Y0384800D01*
X0140281Y0424319D01*
X0140281Y0461670D01*
X0129376Y0461670D02*
X0129376Y0420224D01*
X0145800Y0403800D01*
X0145300Y0268800D01*
X0125300Y0267300D02*
X0124800Y0266800D01*
X0125300Y0267300D02*
X0125800Y0391300D01*
X0125300Y0391800D01*
X0125300Y0392300D01*
X0118470Y0399130D01*
X0118470Y0461670D01*
X0107565Y0461670D02*
X0107065Y0314565D01*
X0079300Y0286800D01*
X0079300Y0261300D01*
X0089300Y0251300D01*
X0155300Y0238800D02*
X0154800Y0174800D01*
X0204300Y0125300D01*
X0204300Y0115300D01*
D18*
X0085800Y0232300D03*
X0454300Y0079300D03*
D19*
X0008200Y0009200D02*
X0008200Y0796400D01*
X0595400Y0796400D01*
X0595400Y0009200D01*
X0008200Y0009200D01*
X0008200Y0010793D02*
X0595400Y0010793D01*
X0595400Y0012391D02*
X0008200Y0012391D01*
X0008200Y0013990D02*
X0024732Y0013990D01*
X0024973Y0013925D02*
X0028627Y0013925D01*
X0032156Y0014871D01*
X0035319Y0016697D01*
X0037903Y0019281D01*
X0039729Y0022444D01*
X0040675Y0025973D01*
X0040675Y0029627D01*
X0039729Y0033156D01*
X0037903Y0036319D01*
X0035319Y0038903D01*
X0032156Y0040729D01*
X0028627Y0041675D01*
X0024973Y0041675D01*
X0021444Y0040729D01*
X0018281Y0038903D01*
X0015697Y0036319D01*
X0013871Y0033156D01*
X0012925Y0029627D01*
X0012925Y0025973D01*
X0013871Y0022444D01*
X0015697Y0019281D01*
X0018281Y0016697D01*
X0021444Y0014871D01*
X0024973Y0013925D01*
X0028868Y0013990D02*
X0574732Y0013990D01*
X0574973Y0013925D02*
X0578627Y0013925D01*
X0582156Y0014871D01*
X0585319Y0016697D01*
X0587903Y0019281D01*
X0589729Y0022444D01*
X0590675Y0025973D01*
X0590675Y0029627D01*
X0589729Y0033156D01*
X0587903Y0036319D01*
X0585319Y0038903D01*
X0582156Y0040729D01*
X0578627Y0041675D01*
X0574973Y0041675D01*
X0571444Y0040729D01*
X0568281Y0038903D01*
X0565697Y0036319D01*
X0563871Y0033156D01*
X0562925Y0029627D01*
X0562925Y0025973D01*
X0563871Y0022444D01*
X0565697Y0019281D01*
X0568281Y0016697D01*
X0571444Y0014871D01*
X0574973Y0013925D01*
X0578868Y0013990D02*
X0595400Y0013990D01*
X0595400Y0015588D02*
X0583398Y0015588D01*
X0585809Y0017187D02*
X0595400Y0017187D01*
X0595400Y0018785D02*
X0587407Y0018785D01*
X0588540Y0020384D02*
X0595400Y0020384D01*
X0595400Y0021982D02*
X0589463Y0021982D01*
X0590034Y0023581D02*
X0595400Y0023581D01*
X0595400Y0025179D02*
X0590462Y0025179D01*
X0590675Y0026778D02*
X0595400Y0026778D01*
X0595400Y0028376D02*
X0590675Y0028376D01*
X0590582Y0029975D02*
X0595400Y0029975D01*
X0595400Y0031573D02*
X0590153Y0031573D01*
X0589720Y0033172D02*
X0595400Y0033172D01*
X0595400Y0034770D02*
X0588797Y0034770D01*
X0587853Y0036369D02*
X0595400Y0036369D01*
X0595400Y0037967D02*
X0586255Y0037967D01*
X0584171Y0039566D02*
X0595400Y0039566D01*
X0595400Y0041164D02*
X0580533Y0041164D01*
X0573067Y0041164D02*
X0148432Y0041164D01*
X0148285Y0040618D02*
X0149125Y0043752D01*
X0149125Y0058848D01*
X0148285Y0061982D01*
X0146662Y0064793D01*
X0144368Y0067087D01*
X0141557Y0068710D01*
X0138423Y0069550D01*
X0135177Y0069550D01*
X0132043Y0068710D01*
X0129232Y0067087D01*
X0126938Y0064793D01*
X0125315Y0061982D01*
X0124475Y0058848D01*
X0124475Y0043752D01*
X0125315Y0040618D01*
X0126938Y0037807D01*
X0129232Y0035513D01*
X0132043Y0033890D01*
X0135177Y0033050D01*
X0138423Y0033050D01*
X0141557Y0033890D01*
X0144368Y0035513D01*
X0146662Y0037807D01*
X0148285Y0040618D01*
X0147678Y0039566D02*
X0569429Y0039566D01*
X0567345Y0037967D02*
X0146755Y0037967D01*
X0145224Y0036369D02*
X0565747Y0036369D01*
X0564803Y0034770D02*
X0143082Y0034770D01*
X0138877Y0033172D02*
X0563880Y0033172D01*
X0563447Y0031573D02*
X0040153Y0031573D01*
X0040582Y0029975D02*
X0563018Y0029975D01*
X0562925Y0028376D02*
X0040675Y0028376D01*
X0040675Y0026778D02*
X0562925Y0026778D01*
X0563138Y0025179D02*
X0040462Y0025179D01*
X0040034Y0023581D02*
X0563566Y0023581D01*
X0564137Y0021982D02*
X0039463Y0021982D01*
X0038540Y0020384D02*
X0565060Y0020384D01*
X0566193Y0018785D02*
X0037407Y0018785D01*
X0035809Y0017187D02*
X0567791Y0017187D01*
X0570202Y0015588D02*
X0033398Y0015588D01*
X0020202Y0015588D02*
X0008200Y0015588D01*
X0008200Y0017187D02*
X0017791Y0017187D01*
X0016193Y0018785D02*
X0008200Y0018785D01*
X0008200Y0020384D02*
X0015060Y0020384D01*
X0014137Y0021982D02*
X0008200Y0021982D01*
X0008200Y0023581D02*
X0013566Y0023581D01*
X0013138Y0025179D02*
X0008200Y0025179D01*
X0008200Y0026778D02*
X0012925Y0026778D01*
X0012925Y0028376D02*
X0008200Y0028376D01*
X0008200Y0029975D02*
X0013018Y0029975D01*
X0013447Y0031573D02*
X0008200Y0031573D01*
X0008200Y0033172D02*
X0013880Y0033172D01*
X0014803Y0034770D02*
X0008200Y0034770D01*
X0008200Y0036369D02*
X0015747Y0036369D01*
X0017345Y0037967D02*
X0008200Y0037967D01*
X0008200Y0039566D02*
X0019429Y0039566D01*
X0023067Y0041164D02*
X0008200Y0041164D01*
X0008200Y0042763D02*
X0124740Y0042763D01*
X0124475Y0044361D02*
X0008200Y0044361D01*
X0008200Y0045960D02*
X0124475Y0045960D01*
X0124475Y0047558D02*
X0008200Y0047558D01*
X0008200Y0049157D02*
X0124475Y0049157D01*
X0124475Y0050755D02*
X0008200Y0050755D01*
X0008200Y0052354D02*
X0124475Y0052354D01*
X0124475Y0053952D02*
X0008200Y0053952D01*
X0008200Y0055551D02*
X0124475Y0055551D01*
X0124475Y0057149D02*
X0008200Y0057149D01*
X0008200Y0058748D02*
X0124475Y0058748D01*
X0124877Y0060346D02*
X0008200Y0060346D01*
X0008200Y0061945D02*
X0125305Y0061945D01*
X0126216Y0063543D02*
X0008200Y0063543D01*
X0008200Y0065142D02*
X0127287Y0065142D01*
X0128885Y0066740D02*
X0008200Y0066740D01*
X0008200Y0068339D02*
X0131400Y0068339D01*
X0142200Y0068339D02*
X0595400Y0068339D01*
X0595400Y0069937D02*
X0008200Y0069937D01*
X0008200Y0071536D02*
X0286553Y0071536D01*
X0286589Y0071501D02*
X0289970Y0070100D01*
X0456130Y0070100D01*
X0459511Y0071501D01*
X0459902Y0071892D01*
X0459906Y0071893D01*
X0461707Y0073694D01*
X0461708Y0073698D01*
X0462099Y0074089D01*
X0463500Y0077470D01*
X0463500Y0081130D01*
X0462099Y0084511D01*
X0461708Y0084902D01*
X0461707Y0084906D01*
X0459906Y0086707D01*
X0459902Y0086708D01*
X0459511Y0087099D01*
X0456130Y0088500D01*
X0295611Y0088500D01*
X0293500Y0090611D01*
X0293500Y0103030D01*
X0293668Y0103436D01*
X0293668Y0106100D01*
X0442989Y0106100D01*
X0457001Y0092089D01*
X0459589Y0089501D01*
X0462970Y0088100D01*
X0475672Y0088100D01*
X0476702Y0087070D01*
X0480010Y0085700D01*
X0483590Y0085700D01*
X0486800Y0087030D01*
X0490010Y0085700D01*
X0493590Y0085700D01*
X0496800Y0087030D01*
X0500010Y0085700D01*
X0503590Y0085700D01*
X0506800Y0087030D01*
X0510010Y0085700D01*
X0513590Y0085700D01*
X0516800Y0087030D01*
X0520010Y0085700D01*
X0523590Y0085700D01*
X0526800Y0087030D01*
X0530010Y0085700D01*
X0533590Y0085700D01*
X0536800Y0087030D01*
X0540010Y0085700D01*
X0543590Y0085700D01*
X0546898Y0087070D01*
X0549430Y0089602D01*
X0550800Y0092910D01*
X0550800Y0101600D01*
X0558630Y0101600D01*
X0562011Y0103001D01*
X0564599Y0105589D01*
X0576099Y0117089D01*
X0577500Y0120470D01*
X0577500Y0133630D01*
X0576099Y0137011D01*
X0573511Y0139599D01*
X0549015Y0164095D01*
X0549479Y0278631D01*
X0550116Y0279734D01*
X0550834Y0282413D01*
X0550834Y0285187D01*
X0550485Y0286488D01*
X0551232Y0286288D01*
X0554368Y0286288D01*
X0557398Y0287100D01*
X0560114Y0288668D01*
X0562332Y0290886D01*
X0563900Y0293602D01*
X0564712Y0296632D01*
X0564712Y0299768D01*
X0563900Y0302798D01*
X0562332Y0305514D01*
X0560114Y0307732D01*
X0557398Y0309300D01*
X0554368Y0310112D01*
X0551232Y0310112D01*
X0548202Y0309300D01*
X0545486Y0307732D01*
X0543268Y0305514D01*
X0541700Y0302798D01*
X0540888Y0299768D01*
X0540888Y0296632D01*
X0541504Y0294334D01*
X0538913Y0294334D01*
X0536234Y0293616D01*
X0533832Y0292229D01*
X0533550Y0291947D01*
X0533268Y0292229D01*
X0530866Y0293616D01*
X0528187Y0294334D01*
X0525413Y0294334D01*
X0522734Y0293616D01*
X0520332Y0292229D01*
X0520050Y0291947D01*
X0519768Y0292229D01*
X0517366Y0293616D01*
X0514687Y0294334D01*
X0511913Y0294334D01*
X0509234Y0293616D01*
X0506832Y0292229D01*
X0506550Y0291947D01*
X0506268Y0292229D01*
X0503866Y0293616D01*
X0501187Y0294334D01*
X0498596Y0294334D01*
X0499212Y0296632D01*
X0499212Y0299768D01*
X0498400Y0302798D01*
X0496832Y0305514D01*
X0494614Y0307732D01*
X0491898Y0309300D01*
X0488868Y0310112D01*
X0485732Y0310112D01*
X0482702Y0309300D01*
X0479986Y0307732D01*
X0477768Y0305514D01*
X0476200Y0302798D01*
X0475388Y0299768D01*
X0475388Y0296632D01*
X0476200Y0293602D01*
X0477768Y0290886D01*
X0479986Y0288668D01*
X0482702Y0287100D01*
X0485732Y0286288D01*
X0488868Y0286288D01*
X0489615Y0286488D01*
X0489266Y0285187D01*
X0489266Y0282413D01*
X0489984Y0279734D01*
X0490600Y0278667D01*
X0490600Y0165152D01*
X0461622Y0136613D01*
X0461589Y0136599D01*
X0460319Y0135329D01*
X0459041Y0134071D01*
X0459026Y0134037D01*
X0459001Y0134011D01*
X0458314Y0132353D01*
X0457614Y0130700D01*
X0457614Y0130664D01*
X0457600Y0130630D01*
X0457600Y0128836D01*
X0457586Y0127040D01*
X0457600Y0127006D01*
X0457600Y0117970D01*
X0457925Y0117186D01*
X0452011Y0123099D01*
X0448630Y0124500D01*
X0286570Y0124500D01*
X0286164Y0124668D01*
X0282436Y0124668D01*
X0279300Y0123369D01*
X0276164Y0124668D01*
X0272436Y0124668D01*
X0269300Y0123369D01*
X0266164Y0124668D01*
X0262436Y0124668D01*
X0259300Y0123369D01*
X0256164Y0124668D01*
X0252436Y0124668D01*
X0248993Y0123242D01*
X0246358Y0120607D01*
X0244931Y0117164D01*
X0244931Y0114668D01*
X0243668Y0114668D01*
X0243668Y0117164D01*
X0242242Y0120607D01*
X0239607Y0123242D01*
X0236164Y0124668D01*
X0232436Y0124668D01*
X0229300Y0123369D01*
X0226164Y0124668D01*
X0222436Y0124668D01*
X0219300Y0123369D01*
X0216164Y0124668D01*
X0213500Y0124668D01*
X0213500Y0127130D01*
X0212099Y0130511D01*
X0209511Y0133099D01*
X0164030Y0178581D01*
X0164514Y0240558D01*
X0164300Y0241086D01*
X0164300Y0242600D01*
X0169630Y0242600D01*
X0173011Y0244001D01*
X0185792Y0256781D01*
X0187078Y0258057D01*
X0187085Y0258075D01*
X0187099Y0258089D01*
X0187792Y0259761D01*
X0188492Y0261432D01*
X0188492Y0261452D01*
X0188500Y0261470D01*
X0188500Y0263280D01*
X0188992Y0382952D01*
X0189000Y0382970D01*
X0189000Y0384780D01*
X0189007Y0386592D01*
X0189000Y0386610D01*
X0189000Y0386630D01*
X0188307Y0388303D01*
X0187621Y0389979D01*
X0187607Y0389993D01*
X0187599Y0390011D01*
X0186319Y0391292D01*
X0185043Y0392578D01*
X0185025Y0392585D01*
X0149481Y0428130D01*
X0149481Y0452022D01*
X0155183Y0452022D01*
X0160835Y0457674D01*
X0160835Y0465666D01*
X0155183Y0471318D01*
X0147190Y0471318D01*
X0145734Y0469862D01*
X0144277Y0471318D01*
X0136285Y0471318D01*
X0134828Y0469862D01*
X0134332Y0470358D01*
X0134623Y0471442D01*
X0134623Y0474260D01*
X0134500Y0474718D01*
X0134500Y0483368D01*
X0140232Y0489100D01*
X0357209Y0489100D01*
X0359930Y0489829D01*
X0362370Y0491238D01*
X0364362Y0493230D01*
X0438527Y0567395D01*
X0478591Y0567395D01*
X0481277Y0566676D01*
X0494323Y0566676D01*
X0497228Y0567454D01*
X0499832Y0568957D01*
X0501958Y0571083D01*
X0503461Y0573687D01*
X0504239Y0576592D01*
X0504239Y0579599D01*
X0503461Y0582503D01*
X0501958Y0585107D01*
X0501174Y0585891D01*
X0501958Y0586674D01*
X0503461Y0589278D01*
X0504239Y0592182D01*
X0504239Y0595189D01*
X0503461Y0598094D01*
X0501958Y0600698D01*
X0499832Y0602824D01*
X0497228Y0604327D01*
X0494323Y0605105D01*
X0481277Y0605105D01*
X0478591Y0604386D01*
X0427277Y0604386D01*
X0424556Y0603657D01*
X0422116Y0602248D01*
X0345368Y0525500D01*
X0131391Y0525500D01*
X0128670Y0524771D01*
X0126230Y0523362D01*
X0106230Y0503362D01*
X0104238Y0501370D01*
X0102829Y0498930D01*
X0102100Y0496209D01*
X0102100Y0471660D01*
X0102482Y0470232D01*
X0097917Y0465666D01*
X0097917Y0457674D01*
X0098349Y0457241D01*
X0097878Y0318388D01*
X0074089Y0294599D01*
X0071501Y0292011D01*
X0070100Y0288630D01*
X0070100Y0259470D01*
X0071501Y0256089D01*
X0081501Y0246089D01*
X0084089Y0243501D01*
X0086300Y0242585D01*
X0086300Y0241497D01*
X0084019Y0241510D01*
X0080630Y0240127D01*
X0080214Y0239715D01*
X0080194Y0239707D01*
X0079083Y0238597D01*
X0078028Y0237553D01*
X0076610Y0234179D01*
X0076120Y0142131D01*
X0061589Y0127599D01*
X0059001Y0125011D01*
X0057600Y0121630D01*
X0057600Y0094970D01*
X0059001Y0091589D01*
X0071001Y0079589D01*
X0073589Y0077001D01*
X0076970Y0075600D01*
X0266130Y0075600D01*
X0269511Y0077001D01*
X0275797Y0083287D01*
X0276501Y0081589D01*
X0279089Y0079001D01*
X0286589Y0071501D01*
X0284955Y0073134D02*
X0008200Y0073134D01*
X0008200Y0074733D02*
X0283356Y0074733D01*
X0281758Y0076332D02*
X0267896Y0076332D01*
X0270441Y0077930D02*
X0280159Y0077930D01*
X0278561Y0079529D02*
X0272039Y0079529D01*
X0273638Y0081127D02*
X0276962Y0081127D01*
X0276030Y0082726D02*
X0275236Y0082726D01*
X0263601Y0097112D02*
X0259014Y0097112D01*
X0259607Y0097358D02*
X0262242Y0099993D01*
X0263668Y0103436D01*
X0263668Y0105931D01*
X0264600Y0105931D01*
X0264600Y0098111D01*
X0260489Y0094000D01*
X0082611Y0094000D01*
X0076000Y0100611D01*
X0076000Y0115989D01*
X0091789Y0131778D01*
X0093072Y0133047D01*
X0093081Y0133071D01*
X0093099Y0133089D01*
X0093791Y0134757D01*
X0094490Y0136421D01*
X0094490Y0136447D01*
X0094500Y0136470D01*
X0094500Y0138276D01*
X0094973Y0227200D01*
X0097090Y0227200D01*
X0100300Y0228530D01*
X0103510Y0227200D01*
X0107090Y0227200D01*
X0110300Y0228530D01*
X0113510Y0227200D01*
X0117090Y0227200D01*
X0120300Y0228530D01*
X0123510Y0227200D01*
X0127090Y0227200D01*
X0130130Y0228459D01*
X0130589Y0228001D01*
X0133970Y0226600D01*
X0137630Y0226600D01*
X0141011Y0228001D01*
X0141177Y0228166D01*
X0143510Y0227200D01*
X0146009Y0227200D01*
X0145614Y0176664D01*
X0145600Y0176630D01*
X0145600Y0174836D01*
X0145586Y0173042D01*
X0145600Y0173007D01*
X0145600Y0172970D01*
X0146287Y0171312D01*
X0146960Y0169650D01*
X0146986Y0169623D01*
X0147001Y0169589D01*
X0148269Y0168320D01*
X0149528Y0167042D01*
X0149562Y0167027D01*
X0192072Y0124517D01*
X0189300Y0123369D01*
X0186164Y0124668D01*
X0182436Y0124668D01*
X0179300Y0123369D01*
X0176164Y0124668D01*
X0172436Y0124668D01*
X0168993Y0123242D01*
X0166358Y0120607D01*
X0164931Y0117164D01*
X0164931Y0114668D01*
X0163668Y0114668D01*
X0163668Y0117164D01*
X0162242Y0120607D01*
X0159607Y0123242D01*
X0156164Y0124668D01*
X0152436Y0124668D01*
X0149300Y0123369D01*
X0146164Y0124668D01*
X0142436Y0124668D01*
X0139300Y0123369D01*
X0136164Y0124668D01*
X0132436Y0124668D01*
X0129300Y0123369D01*
X0126164Y0124668D01*
X0122436Y0124668D01*
X0119300Y0123369D01*
X0116164Y0124668D01*
X0112436Y0124668D01*
X0109300Y0123369D01*
X0106164Y0124668D01*
X0102436Y0124668D01*
X0098993Y0123242D01*
X0096358Y0120607D01*
X0094931Y0117164D01*
X0094931Y0114668D01*
X0092436Y0114668D01*
X0088993Y0113242D01*
X0086358Y0110607D01*
X0084931Y0107164D01*
X0084931Y0103436D01*
X0086358Y0099993D01*
X0088993Y0097358D01*
X0092436Y0095931D01*
X0096164Y0095931D01*
X0099300Y0097231D01*
X0102436Y0095931D01*
X0106164Y0095931D01*
X0109300Y0097231D01*
X0112436Y0095931D01*
X0116164Y0095931D01*
X0119607Y0097358D01*
X0122242Y0099993D01*
X0123668Y0103436D01*
X0123668Y0105931D01*
X0124931Y0105931D01*
X0124931Y0103436D01*
X0126358Y0099993D01*
X0128993Y0097358D01*
X0132436Y0095931D01*
X0136164Y0095931D01*
X0139607Y0097358D01*
X0142242Y0099993D01*
X0143668Y0103436D01*
X0143668Y0105931D01*
X0144931Y0105931D01*
X0144931Y0103436D01*
X0146358Y0099993D01*
X0148993Y0097358D01*
X0152436Y0095931D01*
X0156164Y0095931D01*
X0159300Y0097231D01*
X0162436Y0095931D01*
X0166164Y0095931D01*
X0169300Y0097231D01*
X0172436Y0095931D01*
X0176164Y0095931D01*
X0179300Y0097231D01*
X0182436Y0095931D01*
X0186164Y0095931D01*
X0189607Y0097358D01*
X0192242Y0099993D01*
X0193668Y0103436D01*
X0193668Y0105931D01*
X0194931Y0105931D01*
X0194931Y0103436D01*
X0196358Y0099993D01*
X0198993Y0097358D01*
X0202436Y0095931D01*
X0206164Y0095931D01*
X0209300Y0097231D01*
X0212436Y0095931D01*
X0216164Y0095931D01*
X0219607Y0097358D01*
X0222242Y0099993D01*
X0223668Y0103436D01*
X0223668Y0105931D01*
X0224931Y0105931D01*
X0224931Y0103436D01*
X0226358Y0099993D01*
X0228993Y0097358D01*
X0232436Y0095931D01*
X0236164Y0095931D01*
X0239300Y0097231D01*
X0242436Y0095931D01*
X0246164Y0095931D01*
X0249300Y0097231D01*
X0252436Y0095931D01*
X0256164Y0095931D01*
X0259607Y0097358D01*
X0260960Y0098711D02*
X0264600Y0098711D01*
X0264600Y0100309D02*
X0262373Y0100309D01*
X0263035Y0101908D02*
X0264600Y0101908D01*
X0264600Y0103506D02*
X0263668Y0103506D01*
X0263668Y0105105D02*
X0264600Y0105105D01*
X0262003Y0095514D02*
X0081097Y0095514D01*
X0079499Y0097112D02*
X0089586Y0097112D01*
X0087640Y0098711D02*
X0077900Y0098711D01*
X0076302Y0100309D02*
X0086227Y0100309D01*
X0085565Y0101908D02*
X0076000Y0101908D01*
X0076000Y0103506D02*
X0084931Y0103506D01*
X0084931Y0105105D02*
X0076000Y0105105D01*
X0076000Y0106703D02*
X0084931Y0106703D01*
X0085403Y0108302D02*
X0076000Y0108302D01*
X0076000Y0109900D02*
X0086065Y0109900D01*
X0087250Y0111499D02*
X0076000Y0111499D01*
X0076000Y0113097D02*
X0088848Y0113097D01*
X0094931Y0114696D02*
X0076000Y0114696D01*
X0076305Y0116294D02*
X0094931Y0116294D01*
X0095234Y0117893D02*
X0077904Y0117893D01*
X0079502Y0119491D02*
X0095896Y0119491D01*
X0096841Y0121090D02*
X0081101Y0121090D01*
X0082699Y0122688D02*
X0098439Y0122688D01*
X0101515Y0124287D02*
X0084298Y0124287D01*
X0085896Y0125885D02*
X0190704Y0125885D01*
X0191515Y0124287D02*
X0187085Y0124287D01*
X0189105Y0127484D02*
X0087495Y0127484D01*
X0089093Y0129082D02*
X0187507Y0129082D01*
X0185908Y0130681D02*
X0090692Y0130681D01*
X0092296Y0132279D02*
X0184310Y0132279D01*
X0182711Y0133878D02*
X0093426Y0133878D01*
X0094093Y0135476D02*
X0181113Y0135476D01*
X0179514Y0137075D02*
X0094500Y0137075D01*
X0094502Y0138673D02*
X0177916Y0138673D01*
X0176317Y0140272D02*
X0094511Y0140272D01*
X0094519Y0141870D02*
X0174719Y0141870D01*
X0173120Y0143469D02*
X0094528Y0143469D01*
X0094536Y0145068D02*
X0171522Y0145068D01*
X0169923Y0146666D02*
X0094545Y0146666D01*
X0094553Y0148265D02*
X0168325Y0148265D01*
X0166726Y0149863D02*
X0094562Y0149863D01*
X0094570Y0151462D02*
X0165128Y0151462D01*
X0163529Y0153060D02*
X0094579Y0153060D01*
X0094587Y0154659D02*
X0161931Y0154659D01*
X0160332Y0156257D02*
X0094596Y0156257D01*
X0094604Y0157856D02*
X0158734Y0157856D01*
X0157135Y0159454D02*
X0094613Y0159454D01*
X0094621Y0161053D02*
X0155537Y0161053D01*
X0153938Y0162651D02*
X0094630Y0162651D01*
X0094638Y0164250D02*
X0152340Y0164250D01*
X0150741Y0165848D02*
X0094647Y0165848D01*
X0094655Y0167447D02*
X0149129Y0167447D01*
X0147544Y0169045D02*
X0094664Y0169045D01*
X0094672Y0170644D02*
X0146557Y0170644D01*
X0145901Y0172242D02*
X0094681Y0172242D01*
X0094689Y0173841D02*
X0145592Y0173841D01*
X0145600Y0175439D02*
X0094698Y0175439D01*
X0094706Y0177038D02*
X0145617Y0177038D01*
X0145630Y0178636D02*
X0094715Y0178636D01*
X0094723Y0180235D02*
X0145642Y0180235D01*
X0145655Y0181833D02*
X0094732Y0181833D01*
X0094740Y0183432D02*
X0145667Y0183432D01*
X0145680Y0185030D02*
X0094749Y0185030D01*
X0094757Y0186629D02*
X0145692Y0186629D01*
X0145705Y0188227D02*
X0094766Y0188227D01*
X0094774Y0189826D02*
X0145717Y0189826D01*
X0145730Y0191424D02*
X0094783Y0191424D01*
X0094791Y0193023D02*
X0145742Y0193023D01*
X0145755Y0194621D02*
X0094800Y0194621D01*
X0094808Y0196220D02*
X0145767Y0196220D01*
X0145780Y0197818D02*
X0094817Y0197818D01*
X0094825Y0199417D02*
X0145792Y0199417D01*
X0145805Y0201015D02*
X0094834Y0201015D01*
X0094842Y0202614D02*
X0145817Y0202614D01*
X0145830Y0204212D02*
X0094851Y0204212D01*
X0094859Y0205811D02*
X0145842Y0205811D01*
X0145855Y0207409D02*
X0094868Y0207409D01*
X0094876Y0209008D02*
X0145867Y0209008D01*
X0145879Y0210606D02*
X0094885Y0210606D01*
X0094893Y0212205D02*
X0145892Y0212205D01*
X0145904Y0213803D02*
X0094902Y0213803D01*
X0094910Y0215402D02*
X0145917Y0215402D01*
X0145929Y0217001D02*
X0094919Y0217001D01*
X0094927Y0218599D02*
X0145942Y0218599D01*
X0145954Y0220198D02*
X0094936Y0220198D01*
X0094944Y0221796D02*
X0145967Y0221796D01*
X0145979Y0223395D02*
X0094953Y0223395D01*
X0094961Y0224993D02*
X0145992Y0224993D01*
X0146004Y0226592D02*
X0094970Y0226592D01*
X0099480Y0228190D02*
X0101119Y0228190D01*
X0109480Y0228190D02*
X0111119Y0228190D01*
X0119480Y0228190D02*
X0121119Y0228190D01*
X0129480Y0228190D02*
X0130399Y0228190D01*
X0164417Y0228190D02*
X0490600Y0228190D01*
X0490600Y0226592D02*
X0164405Y0226592D01*
X0164392Y0224993D02*
X0490600Y0224993D01*
X0490600Y0223395D02*
X0164380Y0223395D01*
X0164367Y0221796D02*
X0490600Y0221796D01*
X0490600Y0220198D02*
X0164355Y0220198D01*
X0164342Y0218599D02*
X0490600Y0218599D01*
X0490600Y0217001D02*
X0164330Y0217001D01*
X0164317Y0215402D02*
X0490600Y0215402D01*
X0490600Y0213803D02*
X0164305Y0213803D01*
X0164292Y0212205D02*
X0490600Y0212205D01*
X0490600Y0210606D02*
X0164280Y0210606D01*
X0164268Y0209008D02*
X0490600Y0209008D01*
X0490600Y0207409D02*
X0164255Y0207409D01*
X0164243Y0205811D02*
X0490600Y0205811D01*
X0490600Y0204212D02*
X0164230Y0204212D01*
X0164218Y0202614D02*
X0490600Y0202614D01*
X0490600Y0201015D02*
X0164205Y0201015D01*
X0164193Y0199417D02*
X0490600Y0199417D01*
X0490600Y0197818D02*
X0164180Y0197818D01*
X0164168Y0196220D02*
X0490600Y0196220D01*
X0490600Y0194621D02*
X0164155Y0194621D01*
X0164143Y0193023D02*
X0490600Y0193023D01*
X0490600Y0191424D02*
X0164130Y0191424D01*
X0164118Y0189826D02*
X0490600Y0189826D01*
X0490600Y0188227D02*
X0164105Y0188227D01*
X0164093Y0186629D02*
X0490600Y0186629D01*
X0490600Y0185030D02*
X0164080Y0185030D01*
X0164068Y0183432D02*
X0490600Y0183432D01*
X0490600Y0181833D02*
X0164055Y0181833D01*
X0164043Y0180235D02*
X0490600Y0180235D01*
X0490600Y0178636D02*
X0164030Y0178636D01*
X0165573Y0177038D02*
X0490600Y0177038D01*
X0490600Y0175439D02*
X0167172Y0175439D01*
X0168770Y0173841D02*
X0490600Y0173841D01*
X0490600Y0172242D02*
X0170369Y0172242D01*
X0171967Y0170644D02*
X0490600Y0170644D01*
X0490600Y0169045D02*
X0173566Y0169045D01*
X0175164Y0167447D02*
X0490600Y0167447D01*
X0490600Y0165848D02*
X0176763Y0165848D01*
X0178361Y0164250D02*
X0489684Y0164250D01*
X0488061Y0162651D02*
X0179960Y0162651D01*
X0181558Y0161053D02*
X0486438Y0161053D01*
X0484815Y0159454D02*
X0183157Y0159454D01*
X0184755Y0157856D02*
X0483191Y0157856D01*
X0481568Y0156257D02*
X0186354Y0156257D01*
X0187952Y0154659D02*
X0479945Y0154659D01*
X0478322Y0153060D02*
X0189551Y0153060D01*
X0191149Y0151462D02*
X0476699Y0151462D01*
X0475076Y0149863D02*
X0192748Y0149863D01*
X0194346Y0148265D02*
X0473453Y0148265D01*
X0471830Y0146666D02*
X0195945Y0146666D01*
X0197543Y0145068D02*
X0470207Y0145068D01*
X0468583Y0143469D02*
X0199142Y0143469D01*
X0200740Y0141870D02*
X0466960Y0141870D01*
X0465337Y0140272D02*
X0202339Y0140272D01*
X0203937Y0138673D02*
X0463714Y0138673D01*
X0462091Y0137075D02*
X0205536Y0137075D01*
X0207134Y0135476D02*
X0460466Y0135476D01*
X0458945Y0133878D02*
X0208733Y0133878D01*
X0210331Y0132279D02*
X0458283Y0132279D01*
X0457614Y0130681D02*
X0211930Y0130681D01*
X0212691Y0129082D02*
X0457600Y0129082D01*
X0457590Y0127484D02*
X0213353Y0127484D01*
X0213500Y0125885D02*
X0457600Y0125885D01*
X0457600Y0124287D02*
X0449145Y0124287D01*
X0452422Y0122688D02*
X0457600Y0122688D01*
X0457600Y0121090D02*
X0454021Y0121090D01*
X0455619Y0119491D02*
X0457600Y0119491D01*
X0457632Y0117893D02*
X0457218Y0117893D01*
X0443984Y0105105D02*
X0293668Y0105105D01*
X0293668Y0103506D02*
X0445583Y0103506D01*
X0447182Y0101908D02*
X0293500Y0101908D01*
X0293500Y0100309D02*
X0448780Y0100309D01*
X0450379Y0098711D02*
X0293500Y0098711D01*
X0293500Y0097112D02*
X0451977Y0097112D01*
X0453576Y0095514D02*
X0293500Y0095514D01*
X0293500Y0093915D02*
X0455174Y0093915D01*
X0456773Y0092317D02*
X0293500Y0092317D01*
X0293500Y0090718D02*
X0458371Y0090718D01*
X0460508Y0089120D02*
X0294991Y0089120D01*
X0281515Y0124287D02*
X0277085Y0124287D01*
X0271515Y0124287D02*
X0267085Y0124287D01*
X0261515Y0124287D02*
X0257085Y0124287D01*
X0251515Y0124287D02*
X0237085Y0124287D01*
X0240161Y0122688D02*
X0248439Y0122688D01*
X0246841Y0121090D02*
X0241759Y0121090D01*
X0242704Y0119491D02*
X0245896Y0119491D01*
X0245234Y0117893D02*
X0243366Y0117893D01*
X0243668Y0116294D02*
X0244931Y0116294D01*
X0244931Y0114696D02*
X0243668Y0114696D01*
X0231515Y0124287D02*
X0227085Y0124287D01*
X0221515Y0124287D02*
X0217085Y0124287D01*
X0223668Y0105105D02*
X0224931Y0105105D01*
X0224931Y0103506D02*
X0223668Y0103506D01*
X0223035Y0101908D02*
X0225565Y0101908D01*
X0226227Y0100309D02*
X0222373Y0100309D01*
X0220960Y0098711D02*
X0227640Y0098711D01*
X0229586Y0097112D02*
X0219014Y0097112D01*
X0209586Y0097112D02*
X0209014Y0097112D01*
X0199586Y0097112D02*
X0189014Y0097112D01*
X0190960Y0098711D02*
X0197640Y0098711D01*
X0196227Y0100309D02*
X0192373Y0100309D01*
X0193035Y0101908D02*
X0195565Y0101908D01*
X0194931Y0103506D02*
X0193668Y0103506D01*
X0193668Y0105105D02*
X0194931Y0105105D01*
X0179586Y0097112D02*
X0179014Y0097112D01*
X0169586Y0097112D02*
X0169014Y0097112D01*
X0159586Y0097112D02*
X0159014Y0097112D01*
X0149586Y0097112D02*
X0139014Y0097112D01*
X0140960Y0098711D02*
X0147640Y0098711D01*
X0146227Y0100309D02*
X0142373Y0100309D01*
X0143035Y0101908D02*
X0145565Y0101908D01*
X0144931Y0103506D02*
X0143668Y0103506D01*
X0143668Y0105105D02*
X0144931Y0105105D01*
X0129586Y0097112D02*
X0119014Y0097112D01*
X0120960Y0098711D02*
X0127640Y0098711D01*
X0126227Y0100309D02*
X0122373Y0100309D01*
X0123035Y0101908D02*
X0125565Y0101908D01*
X0124931Y0103506D02*
X0123668Y0103506D01*
X0123668Y0105105D02*
X0124931Y0105105D01*
X0127085Y0124287D02*
X0131515Y0124287D01*
X0137085Y0124287D02*
X0141515Y0124287D01*
X0147085Y0124287D02*
X0151515Y0124287D01*
X0157085Y0124287D02*
X0171515Y0124287D01*
X0168439Y0122688D02*
X0160161Y0122688D01*
X0161759Y0121090D02*
X0166841Y0121090D01*
X0165896Y0119491D02*
X0162704Y0119491D01*
X0163366Y0117893D02*
X0165234Y0117893D01*
X0164931Y0116294D02*
X0163668Y0116294D01*
X0163668Y0114696D02*
X0164931Y0114696D01*
X0177085Y0124287D02*
X0181515Y0124287D01*
X0144715Y0066740D02*
X0595400Y0066740D01*
X0595400Y0065142D02*
X0146313Y0065142D01*
X0147384Y0063543D02*
X0595400Y0063543D01*
X0595400Y0061945D02*
X0148295Y0061945D01*
X0148723Y0060346D02*
X0595400Y0060346D01*
X0595400Y0058748D02*
X0149125Y0058748D01*
X0149125Y0057149D02*
X0595400Y0057149D01*
X0595400Y0055551D02*
X0149125Y0055551D01*
X0149125Y0053952D02*
X0595400Y0053952D01*
X0595400Y0052354D02*
X0149125Y0052354D01*
X0149125Y0050755D02*
X0595400Y0050755D01*
X0595400Y0049157D02*
X0149125Y0049157D01*
X0149125Y0047558D02*
X0595400Y0047558D01*
X0595400Y0045960D02*
X0149125Y0045960D01*
X0149125Y0044361D02*
X0595400Y0044361D01*
X0595400Y0042763D02*
X0148860Y0042763D01*
X0134723Y0033172D02*
X0039720Y0033172D01*
X0038797Y0034770D02*
X0130518Y0034770D01*
X0128376Y0036369D02*
X0037853Y0036369D01*
X0036255Y0037967D02*
X0126845Y0037967D01*
X0125922Y0039566D02*
X0034171Y0039566D01*
X0030533Y0041164D02*
X0125168Y0041164D01*
X0109586Y0097112D02*
X0109014Y0097112D01*
X0099586Y0097112D02*
X0099014Y0097112D01*
X0107085Y0124287D02*
X0111515Y0124287D01*
X0117085Y0124287D02*
X0121515Y0124287D01*
X0075860Y0141870D02*
X0008200Y0141870D01*
X0008200Y0140272D02*
X0074261Y0140272D01*
X0072663Y0138673D02*
X0008200Y0138673D01*
X0008200Y0137075D02*
X0071064Y0137075D01*
X0069466Y0135476D02*
X0008200Y0135476D01*
X0008200Y0133878D02*
X0067867Y0133878D01*
X0066269Y0132279D02*
X0008200Y0132279D01*
X0008200Y0130681D02*
X0064670Y0130681D01*
X0063072Y0129082D02*
X0008200Y0129082D01*
X0008200Y0127484D02*
X0061473Y0127484D01*
X0059875Y0125885D02*
X0008200Y0125885D01*
X0008200Y0124287D02*
X0058701Y0124287D01*
X0058038Y0122688D02*
X0008200Y0122688D01*
X0008200Y0121090D02*
X0057600Y0121090D01*
X0057600Y0119491D02*
X0008200Y0119491D01*
X0008200Y0117893D02*
X0057600Y0117893D01*
X0057600Y0116294D02*
X0008200Y0116294D01*
X0008200Y0114696D02*
X0057600Y0114696D01*
X0057600Y0113097D02*
X0008200Y0113097D01*
X0008200Y0111499D02*
X0057600Y0111499D01*
X0057600Y0109900D02*
X0008200Y0109900D01*
X0008200Y0108302D02*
X0057600Y0108302D01*
X0057600Y0106703D02*
X0008200Y0106703D01*
X0008200Y0105105D02*
X0057600Y0105105D01*
X0057600Y0103506D02*
X0008200Y0103506D01*
X0008200Y0101908D02*
X0057600Y0101908D01*
X0057600Y0100309D02*
X0008200Y0100309D01*
X0008200Y0098711D02*
X0057600Y0098711D01*
X0057600Y0097112D02*
X0008200Y0097112D01*
X0008200Y0095514D02*
X0057600Y0095514D01*
X0058037Y0093915D02*
X0008200Y0093915D01*
X0008200Y0092317D02*
X0058699Y0092317D01*
X0059871Y0090718D02*
X0008200Y0090718D01*
X0008200Y0089120D02*
X0061470Y0089120D01*
X0063068Y0087521D02*
X0008200Y0087521D01*
X0008200Y0085923D02*
X0064667Y0085923D01*
X0066265Y0084324D02*
X0008200Y0084324D01*
X0008200Y0082726D02*
X0067864Y0082726D01*
X0069462Y0081127D02*
X0008200Y0081127D01*
X0008200Y0079529D02*
X0071061Y0079529D01*
X0072659Y0077930D02*
X0008200Y0077930D01*
X0008200Y0076332D02*
X0075204Y0076332D01*
X0076127Y0143469D02*
X0008200Y0143469D01*
X0008200Y0145068D02*
X0076136Y0145068D01*
X0076144Y0146666D02*
X0008200Y0146666D01*
X0008200Y0148265D02*
X0076153Y0148265D01*
X0076161Y0149863D02*
X0008200Y0149863D01*
X0008200Y0151462D02*
X0076170Y0151462D01*
X0076178Y0153060D02*
X0008200Y0153060D01*
X0008200Y0154659D02*
X0076187Y0154659D01*
X0076195Y0156257D02*
X0008200Y0156257D01*
X0008200Y0157856D02*
X0076204Y0157856D01*
X0076212Y0159454D02*
X0008200Y0159454D01*
X0008200Y0161053D02*
X0076221Y0161053D01*
X0076229Y0162651D02*
X0008200Y0162651D01*
X0008200Y0164250D02*
X0076238Y0164250D01*
X0076246Y0165848D02*
X0008200Y0165848D01*
X0008200Y0167447D02*
X0076255Y0167447D01*
X0076263Y0169045D02*
X0008200Y0169045D01*
X0008200Y0170644D02*
X0076272Y0170644D01*
X0076280Y0172242D02*
X0008200Y0172242D01*
X0008200Y0173841D02*
X0076289Y0173841D01*
X0076297Y0175439D02*
X0008200Y0175439D01*
X0008200Y0177038D02*
X0076306Y0177038D01*
X0076314Y0178636D02*
X0008200Y0178636D01*
X0008200Y0180235D02*
X0076323Y0180235D01*
X0076331Y0181833D02*
X0008200Y0181833D01*
X0008200Y0183432D02*
X0076340Y0183432D01*
X0076348Y0185030D02*
X0008200Y0185030D01*
X0008200Y0186629D02*
X0076357Y0186629D01*
X0076365Y0188227D02*
X0008200Y0188227D01*
X0008200Y0189826D02*
X0076374Y0189826D01*
X0076382Y0191424D02*
X0008200Y0191424D01*
X0008200Y0193023D02*
X0076391Y0193023D01*
X0076399Y0194621D02*
X0008200Y0194621D01*
X0008200Y0196220D02*
X0076408Y0196220D01*
X0076416Y0197818D02*
X0008200Y0197818D01*
X0008200Y0199417D02*
X0076425Y0199417D01*
X0076433Y0201015D02*
X0008200Y0201015D01*
X0008200Y0202614D02*
X0076442Y0202614D01*
X0076450Y0204212D02*
X0008200Y0204212D01*
X0008200Y0205811D02*
X0076459Y0205811D01*
X0076467Y0207409D02*
X0008200Y0207409D01*
X0008200Y0209008D02*
X0076476Y0209008D01*
X0076484Y0210606D02*
X0008200Y0210606D01*
X0008200Y0212205D02*
X0076493Y0212205D01*
X0076501Y0213803D02*
X0008200Y0213803D01*
X0008200Y0215402D02*
X0076510Y0215402D01*
X0076519Y0217001D02*
X0008200Y0217001D01*
X0008200Y0218599D02*
X0076527Y0218599D01*
X0076536Y0220198D02*
X0008200Y0220198D01*
X0008200Y0221796D02*
X0076544Y0221796D01*
X0076553Y0223395D02*
X0008200Y0223395D01*
X0008200Y0224993D02*
X0076561Y0224993D01*
X0076570Y0226592D02*
X0008200Y0226592D01*
X0008200Y0228190D02*
X0076578Y0228190D01*
X0076587Y0229789D02*
X0008200Y0229789D01*
X0008200Y0231387D02*
X0076595Y0231387D01*
X0076604Y0232986D02*
X0008200Y0232986D01*
X0008200Y0234584D02*
X0076780Y0234584D01*
X0077452Y0236183D02*
X0008200Y0236183D01*
X0008200Y0237781D02*
X0078259Y0237781D01*
X0079866Y0239380D02*
X0008200Y0239380D01*
X0008200Y0240978D02*
X0082716Y0240978D01*
X0083414Y0244175D02*
X0008200Y0244175D01*
X0008200Y0242577D02*
X0086300Y0242577D01*
X0081816Y0245774D02*
X0008200Y0245774D01*
X0008200Y0247372D02*
X0080217Y0247372D01*
X0078618Y0248971D02*
X0008200Y0248971D01*
X0008200Y0250569D02*
X0077020Y0250569D01*
X0075421Y0252168D02*
X0008200Y0252168D01*
X0008200Y0253766D02*
X0073823Y0253766D01*
X0072224Y0255365D02*
X0008200Y0255365D01*
X0008200Y0256963D02*
X0071138Y0256963D01*
X0070476Y0258562D02*
X0008200Y0258562D01*
X0008200Y0260160D02*
X0070100Y0260160D01*
X0070100Y0261759D02*
X0008200Y0261759D01*
X0008200Y0263357D02*
X0070100Y0263357D01*
X0070100Y0264956D02*
X0008200Y0264956D01*
X0008200Y0266554D02*
X0070100Y0266554D01*
X0070100Y0268153D02*
X0008200Y0268153D01*
X0008200Y0269751D02*
X0070100Y0269751D01*
X0070100Y0271350D02*
X0008200Y0271350D01*
X0008200Y0272948D02*
X0070100Y0272948D01*
X0070100Y0274547D02*
X0008200Y0274547D01*
X0008200Y0276145D02*
X0070100Y0276145D01*
X0070100Y0277744D02*
X0008200Y0277744D01*
X0008200Y0279342D02*
X0070100Y0279342D01*
X0070100Y0280941D02*
X0008200Y0280941D01*
X0008200Y0282539D02*
X0070100Y0282539D01*
X0070100Y0284138D02*
X0008200Y0284138D01*
X0008200Y0285737D02*
X0070100Y0285737D01*
X0070100Y0287335D02*
X0008200Y0287335D01*
X0008200Y0288934D02*
X0070226Y0288934D01*
X0070888Y0290532D02*
X0008200Y0290532D01*
X0008200Y0292131D02*
X0071620Y0292131D01*
X0073218Y0293729D02*
X0008200Y0293729D01*
X0008200Y0295328D02*
X0074817Y0295328D01*
X0076415Y0296926D02*
X0008200Y0296926D01*
X0008200Y0298525D02*
X0078014Y0298525D01*
X0079612Y0300123D02*
X0008200Y0300123D01*
X0008200Y0301722D02*
X0081211Y0301722D01*
X0082809Y0303320D02*
X0008200Y0303320D01*
X0008200Y0304919D02*
X0084408Y0304919D01*
X0086006Y0306517D02*
X0008200Y0306517D01*
X0008200Y0308116D02*
X0087605Y0308116D01*
X0089203Y0309714D02*
X0008200Y0309714D01*
X0008200Y0311313D02*
X0090802Y0311313D01*
X0092400Y0312911D02*
X0008200Y0312911D01*
X0008200Y0314510D02*
X0093999Y0314510D01*
X0095597Y0316108D02*
X0008200Y0316108D01*
X0008200Y0317707D02*
X0097196Y0317707D01*
X0097881Y0319305D02*
X0008200Y0319305D01*
X0008200Y0320904D02*
X0097886Y0320904D01*
X0097891Y0322502D02*
X0008200Y0322502D01*
X0008200Y0324101D02*
X0097897Y0324101D01*
X0097902Y0325699D02*
X0008200Y0325699D01*
X0008200Y0327298D02*
X0097908Y0327298D01*
X0097913Y0328896D02*
X0008200Y0328896D01*
X0008200Y0330495D02*
X0097919Y0330495D01*
X0097924Y0332093D02*
X0008200Y0332093D01*
X0008200Y0333692D02*
X0097930Y0333692D01*
X0097935Y0335290D02*
X0008200Y0335290D01*
X0008200Y0336889D02*
X0097940Y0336889D01*
X0097946Y0338487D02*
X0008200Y0338487D01*
X0008200Y0340086D02*
X0097951Y0340086D01*
X0097957Y0341684D02*
X0008200Y0341684D01*
X0008200Y0343283D02*
X0097962Y0343283D01*
X0097968Y0344881D02*
X0008200Y0344881D01*
X0008200Y0346480D02*
X0097973Y0346480D01*
X0097978Y0348078D02*
X0008200Y0348078D01*
X0008200Y0349677D02*
X0097984Y0349677D01*
X0097989Y0351275D02*
X0008200Y0351275D01*
X0008200Y0352874D02*
X0097995Y0352874D01*
X0098000Y0354472D02*
X0008200Y0354472D01*
X0008200Y0356071D02*
X0098006Y0356071D01*
X0098011Y0357670D02*
X0008200Y0357670D01*
X0008200Y0359268D02*
X0098016Y0359268D01*
X0098022Y0360867D02*
X0008200Y0360867D01*
X0008200Y0362465D02*
X0098027Y0362465D01*
X0098033Y0364064D02*
X0008200Y0364064D01*
X0008200Y0365662D02*
X0098038Y0365662D01*
X0098044Y0367261D02*
X0008200Y0367261D01*
X0008200Y0368859D02*
X0098049Y0368859D01*
X0098054Y0370458D02*
X0008200Y0370458D01*
X0008200Y0372056D02*
X0098060Y0372056D01*
X0098065Y0373655D02*
X0008200Y0373655D01*
X0008200Y0375253D02*
X0098071Y0375253D01*
X0098076Y0376852D02*
X0008200Y0376852D01*
X0008200Y0378450D02*
X0098082Y0378450D01*
X0098087Y0380049D02*
X0008200Y0380049D01*
X0008200Y0381647D02*
X0098093Y0381647D01*
X0098098Y0383246D02*
X0008200Y0383246D01*
X0008200Y0384844D02*
X0098103Y0384844D01*
X0098109Y0386443D02*
X0008200Y0386443D01*
X0008200Y0388041D02*
X0098114Y0388041D01*
X0098120Y0389640D02*
X0008200Y0389640D01*
X0008200Y0391238D02*
X0098125Y0391238D01*
X0098131Y0392837D02*
X0008200Y0392837D01*
X0008200Y0394435D02*
X0098136Y0394435D01*
X0098141Y0396034D02*
X0008200Y0396034D01*
X0008200Y0397632D02*
X0098147Y0397632D01*
X0098152Y0399231D02*
X0008200Y0399231D01*
X0008200Y0400829D02*
X0098158Y0400829D01*
X0098163Y0402428D02*
X0008200Y0402428D01*
X0008200Y0404026D02*
X0098169Y0404026D01*
X0098174Y0405625D02*
X0008200Y0405625D01*
X0008200Y0407223D02*
X0098179Y0407223D01*
X0098185Y0408822D02*
X0008200Y0408822D01*
X0008200Y0410420D02*
X0098190Y0410420D01*
X0098196Y0412019D02*
X0008200Y0412019D01*
X0008200Y0413617D02*
X0098201Y0413617D01*
X0098207Y0415216D02*
X0008200Y0415216D01*
X0008200Y0416814D02*
X0098212Y0416814D01*
X0098217Y0418413D02*
X0008200Y0418413D01*
X0008200Y0420011D02*
X0098223Y0420011D01*
X0098228Y0421610D02*
X0008200Y0421610D01*
X0008200Y0423208D02*
X0098234Y0423208D01*
X0098239Y0424807D02*
X0008200Y0424807D01*
X0008200Y0426405D02*
X0098245Y0426405D01*
X0098250Y0428004D02*
X0008200Y0428004D01*
X0008200Y0429603D02*
X0098256Y0429603D01*
X0098261Y0431201D02*
X0008200Y0431201D01*
X0008200Y0432800D02*
X0098266Y0432800D01*
X0098272Y0434398D02*
X0008200Y0434398D01*
X0008200Y0435997D02*
X0098277Y0435997D01*
X0098283Y0437595D02*
X0008200Y0437595D01*
X0008200Y0439194D02*
X0098288Y0439194D01*
X0098294Y0440792D02*
X0008200Y0440792D01*
X0008200Y0442391D02*
X0098299Y0442391D01*
X0098304Y0443989D02*
X0008200Y0443989D01*
X0008200Y0445588D02*
X0098310Y0445588D01*
X0098315Y0447186D02*
X0008200Y0447186D01*
X0008200Y0448785D02*
X0098321Y0448785D01*
X0098326Y0450383D02*
X0008200Y0450383D01*
X0008200Y0451982D02*
X0098332Y0451982D01*
X0098337Y0453580D02*
X0008200Y0453580D01*
X0008200Y0455179D02*
X0076305Y0455179D01*
X0075379Y0455427D02*
X0078609Y0454561D01*
X0081953Y0454561D01*
X0085183Y0455427D01*
X0088079Y0457099D01*
X0090443Y0459463D01*
X0092115Y0462359D01*
X0092980Y0465589D01*
X0092980Y0468933D01*
X0092115Y0472162D01*
X0090443Y0475058D01*
X0088079Y0477423D01*
X0085183Y0479094D01*
X0081953Y0479960D01*
X0078609Y0479960D01*
X0075379Y0479094D01*
X0072484Y0477423D01*
X0070119Y0475058D01*
X0068447Y0472162D01*
X0067582Y0468933D01*
X0067582Y0465589D01*
X0068447Y0462359D01*
X0070119Y0459463D01*
X0072484Y0457099D01*
X0075379Y0455427D01*
X0073040Y0456777D02*
X0008200Y0456777D01*
X0008200Y0458376D02*
X0071207Y0458376D01*
X0069824Y0459974D02*
X0008200Y0459974D01*
X0008200Y0461573D02*
X0068901Y0461573D01*
X0068230Y0463171D02*
X0008200Y0463171D01*
X0008200Y0464770D02*
X0021821Y0464770D01*
X0021444Y0464871D02*
X0024973Y0463925D01*
X0028627Y0463925D01*
X0032156Y0464871D01*
X0035319Y0466697D01*
X0037903Y0469281D01*
X0039729Y0472444D01*
X0040675Y0475973D01*
X0040675Y0479627D01*
X0039729Y0483156D01*
X0037903Y0486319D01*
X0035319Y0488903D01*
X0032156Y0490729D01*
X0028627Y0491675D01*
X0024973Y0491675D01*
X0021444Y0490729D01*
X0018281Y0488903D01*
X0015697Y0486319D01*
X0013871Y0483156D01*
X0012925Y0479627D01*
X0012925Y0475973D01*
X0013871Y0472444D01*
X0015697Y0469281D01*
X0018281Y0466697D01*
X0021444Y0464871D01*
X0018850Y0466368D02*
X0008200Y0466368D01*
X0008200Y0467967D02*
X0017011Y0467967D01*
X0015533Y0469565D02*
X0008200Y0469565D01*
X0008200Y0471164D02*
X0014610Y0471164D01*
X0013785Y0472762D02*
X0008200Y0472762D01*
X0008200Y0474361D02*
X0013357Y0474361D01*
X0012929Y0475959D02*
X0008200Y0475959D01*
X0008200Y0477558D02*
X0012925Y0477558D01*
X0012925Y0479156D02*
X0008200Y0479156D01*
X0008200Y0480755D02*
X0013227Y0480755D01*
X0013656Y0482353D02*
X0008200Y0482353D01*
X0008200Y0483952D02*
X0014330Y0483952D01*
X0015253Y0485550D02*
X0008200Y0485550D01*
X0008200Y0487149D02*
X0016527Y0487149D01*
X0018125Y0488747D02*
X0008200Y0488747D01*
X0008200Y0490346D02*
X0020780Y0490346D01*
X0032820Y0490346D02*
X0102100Y0490346D01*
X0102100Y0491944D02*
X0008200Y0491944D01*
X0008200Y0493543D02*
X0102100Y0493543D01*
X0102100Y0495141D02*
X0008200Y0495141D01*
X0008200Y0496740D02*
X0102242Y0496740D01*
X0102671Y0498339D02*
X0008200Y0498339D01*
X0008200Y0499937D02*
X0103411Y0499937D01*
X0104403Y0501536D02*
X0008200Y0501536D01*
X0008200Y0503134D02*
X0106002Y0503134D01*
X0107600Y0504733D02*
X0008200Y0504733D01*
X0008200Y0506331D02*
X0109199Y0506331D01*
X0110798Y0507930D02*
X0008200Y0507930D01*
X0008200Y0509528D02*
X0112396Y0509528D01*
X0113995Y0511127D02*
X0008200Y0511127D01*
X0008200Y0512725D02*
X0115593Y0512725D01*
X0117192Y0514324D02*
X0008200Y0514324D01*
X0008200Y0515922D02*
X0118790Y0515922D01*
X0120389Y0517521D02*
X0008200Y0517521D01*
X0008200Y0519119D02*
X0121987Y0519119D01*
X0123586Y0520718D02*
X0008200Y0520718D01*
X0008200Y0522316D02*
X0125184Y0522316D01*
X0127187Y0523915D02*
X0008200Y0523915D01*
X0008200Y0525513D02*
X0345381Y0525513D01*
X0346980Y0527112D02*
X0008200Y0527112D01*
X0008200Y0528710D02*
X0348578Y0528710D01*
X0350177Y0530309D02*
X0008200Y0530309D01*
X0008200Y0531907D02*
X0351775Y0531907D01*
X0353374Y0533506D02*
X0008200Y0533506D01*
X0008200Y0535104D02*
X0354972Y0535104D01*
X0356571Y0536703D02*
X0008200Y0536703D01*
X0008200Y0538301D02*
X0358169Y0538301D01*
X0359768Y0539900D02*
X0008200Y0539900D01*
X0008200Y0541498D02*
X0361366Y0541498D01*
X0362965Y0543097D02*
X0008200Y0543097D01*
X0008200Y0544695D02*
X0364563Y0544695D01*
X0366162Y0546294D02*
X0008200Y0546294D01*
X0008200Y0547892D02*
X0367760Y0547892D01*
X0369359Y0549491D02*
X0008200Y0549491D01*
X0008200Y0551089D02*
X0370957Y0551089D01*
X0372556Y0552688D02*
X0008200Y0552688D01*
X0008200Y0554286D02*
X0374154Y0554286D01*
X0375753Y0555885D02*
X0008200Y0555885D01*
X0008200Y0557483D02*
X0377351Y0557483D01*
X0378950Y0559082D02*
X0008200Y0559082D01*
X0008200Y0560680D02*
X0380548Y0560680D01*
X0382147Y0562279D02*
X0008200Y0562279D01*
X0008200Y0563877D02*
X0383745Y0563877D01*
X0385344Y0565476D02*
X0008200Y0565476D01*
X0008200Y0567074D02*
X0386942Y0567074D01*
X0388541Y0568673D02*
X0334547Y0568673D01*
X0334648Y0568700D02*
X0337364Y0570268D01*
X0339582Y0572486D01*
X0341150Y0575202D01*
X0341962Y0578232D01*
X0341962Y0581368D01*
X0341150Y0584398D01*
X0339582Y0587114D01*
X0337364Y0589332D01*
X0334648Y0590900D01*
X0331618Y0591712D01*
X0328482Y0591712D01*
X0325452Y0590900D01*
X0322736Y0589332D01*
X0320518Y0587114D01*
X0318950Y0584398D01*
X0318138Y0581368D01*
X0318138Y0578232D01*
X0318950Y0575202D01*
X0320518Y0572486D01*
X0322736Y0570268D01*
X0325452Y0568700D01*
X0328482Y0567888D01*
X0331618Y0567888D01*
X0334648Y0568700D01*
X0337367Y0570272D02*
X0390139Y0570272D01*
X0391738Y0571870D02*
X0338966Y0571870D01*
X0340149Y0573469D02*
X0393336Y0573469D01*
X0394935Y0575067D02*
X0341072Y0575067D01*
X0341542Y0576666D02*
X0396533Y0576666D01*
X0398132Y0578264D02*
X0341962Y0578264D01*
X0341962Y0579863D02*
X0399731Y0579863D01*
X0401329Y0581461D02*
X0341937Y0581461D01*
X0341509Y0583060D02*
X0402928Y0583060D01*
X0404526Y0584658D02*
X0341000Y0584658D01*
X0340077Y0586257D02*
X0406125Y0586257D01*
X0407723Y0587855D02*
X0338841Y0587855D01*
X0337153Y0589454D02*
X0409322Y0589454D01*
X0410920Y0591052D02*
X0334080Y0591052D01*
X0326020Y0591052D02*
X0045580Y0591052D01*
X0046148Y0590900D02*
X0043118Y0591712D01*
X0039982Y0591712D01*
X0036952Y0590900D01*
X0034236Y0589332D01*
X0032018Y0587114D01*
X0030450Y0584398D01*
X0029638Y0581368D01*
X0029638Y0578232D01*
X0030450Y0575202D01*
X0032018Y0572486D01*
X0034236Y0570268D01*
X0036952Y0568700D01*
X0039982Y0567888D01*
X0043118Y0567888D01*
X0046148Y0568700D01*
X0048864Y0570268D01*
X0051082Y0572486D01*
X0052650Y0575202D01*
X0053462Y0578232D01*
X0053462Y0581368D01*
X0052650Y0584398D01*
X0051082Y0587114D01*
X0048864Y0589332D01*
X0046148Y0590900D01*
X0048653Y0589454D02*
X0322947Y0589454D01*
X0321259Y0587855D02*
X0050341Y0587855D01*
X0051577Y0586257D02*
X0320023Y0586257D01*
X0319100Y0584658D02*
X0052500Y0584658D01*
X0053009Y0583060D02*
X0318591Y0583060D01*
X0318163Y0581461D02*
X0053437Y0581461D01*
X0053462Y0579863D02*
X0318138Y0579863D01*
X0318138Y0578264D02*
X0053462Y0578264D01*
X0053042Y0576666D02*
X0318558Y0576666D01*
X0319028Y0575067D02*
X0052572Y0575067D01*
X0051649Y0573469D02*
X0319951Y0573469D01*
X0321134Y0571870D02*
X0050466Y0571870D01*
X0048867Y0570272D02*
X0322733Y0570272D01*
X0325553Y0568673D02*
X0046047Y0568673D01*
X0037053Y0568673D02*
X0008200Y0568673D01*
X0008200Y0570272D02*
X0034233Y0570272D01*
X0032634Y0571870D02*
X0008200Y0571870D01*
X0008200Y0573469D02*
X0031451Y0573469D01*
X0030528Y0575067D02*
X0008200Y0575067D01*
X0008200Y0576666D02*
X0030058Y0576666D01*
X0029638Y0578264D02*
X0008200Y0578264D01*
X0008200Y0579863D02*
X0029638Y0579863D01*
X0029663Y0581461D02*
X0008200Y0581461D01*
X0008200Y0583060D02*
X0030091Y0583060D01*
X0030600Y0584658D02*
X0008200Y0584658D01*
X0008200Y0586257D02*
X0031523Y0586257D01*
X0032759Y0587855D02*
X0008200Y0587855D01*
X0008200Y0589454D02*
X0034447Y0589454D01*
X0037520Y0591052D02*
X0008200Y0591052D01*
X0008200Y0592651D02*
X0412519Y0592651D01*
X0414117Y0594249D02*
X0008200Y0594249D01*
X0008200Y0595848D02*
X0415716Y0595848D01*
X0417314Y0597446D02*
X0008200Y0597446D01*
X0008200Y0599045D02*
X0418913Y0599045D01*
X0420511Y0600643D02*
X0008200Y0600643D01*
X0008200Y0602242D02*
X0422110Y0602242D01*
X0425241Y0603840D02*
X0008200Y0603840D01*
X0008200Y0605439D02*
X0595400Y0605439D01*
X0595400Y0607037D02*
X0008200Y0607037D01*
X0008200Y0608636D02*
X0595400Y0608636D01*
X0595400Y0610234D02*
X0008200Y0610234D01*
X0008200Y0611833D02*
X0595400Y0611833D01*
X0595400Y0613431D02*
X0008200Y0613431D01*
X0008200Y0615030D02*
X0595400Y0615030D01*
X0595400Y0616628D02*
X0008200Y0616628D01*
X0008200Y0618227D02*
X0595400Y0618227D01*
X0595400Y0619825D02*
X0008200Y0619825D01*
X0008200Y0621424D02*
X0595400Y0621424D01*
X0595400Y0623022D02*
X0008200Y0623022D01*
X0008200Y0624621D02*
X0595400Y0624621D01*
X0595400Y0626219D02*
X0008200Y0626219D01*
X0008200Y0627818D02*
X0595400Y0627818D01*
X0595400Y0629416D02*
X0008200Y0629416D01*
X0008200Y0631015D02*
X0595400Y0631015D01*
X0595400Y0632613D02*
X0008200Y0632613D01*
X0008200Y0634212D02*
X0595400Y0634212D01*
X0595400Y0635810D02*
X0008200Y0635810D01*
X0008200Y0637409D02*
X0595400Y0637409D01*
X0595400Y0639008D02*
X0008200Y0639008D01*
X0008200Y0640606D02*
X0595400Y0640606D01*
X0595400Y0642205D02*
X0008200Y0642205D01*
X0008200Y0643803D02*
X0595400Y0643803D01*
X0595400Y0645402D02*
X0008200Y0645402D01*
X0008200Y0647000D02*
X0595400Y0647000D01*
X0595400Y0648599D02*
X0008200Y0648599D01*
X0008200Y0650197D02*
X0036091Y0650197D01*
X0036952Y0649700D02*
X0034236Y0651268D01*
X0032018Y0653486D01*
X0030450Y0656202D01*
X0029638Y0659232D01*
X0029638Y0662368D01*
X0030450Y0665398D01*
X0032018Y0668114D01*
X0034236Y0670332D01*
X0036952Y0671900D01*
X0039982Y0672712D01*
X0043118Y0672712D01*
X0046148Y0671900D01*
X0048864Y0670332D01*
X0051082Y0668114D01*
X0052650Y0665398D01*
X0053462Y0662368D01*
X0053462Y0659232D01*
X0052650Y0656202D01*
X0051082Y0653486D01*
X0048864Y0651268D01*
X0046148Y0649700D01*
X0043118Y0648888D01*
X0039982Y0648888D01*
X0036952Y0649700D01*
X0033709Y0651796D02*
X0008200Y0651796D01*
X0008200Y0653394D02*
X0032110Y0653394D01*
X0031148Y0654993D02*
X0008200Y0654993D01*
X0008200Y0656591D02*
X0030346Y0656591D01*
X0029917Y0658190D02*
X0008200Y0658190D01*
X0008200Y0659788D02*
X0029638Y0659788D01*
X0029638Y0661387D02*
X0008200Y0661387D01*
X0008200Y0662985D02*
X0029804Y0662985D01*
X0030232Y0664584D02*
X0008200Y0664584D01*
X0008200Y0666182D02*
X0030903Y0666182D01*
X0031826Y0667781D02*
X0008200Y0667781D01*
X0008200Y0669379D02*
X0033283Y0669379D01*
X0035355Y0670978D02*
X0008200Y0670978D01*
X0008200Y0672576D02*
X0039476Y0672576D01*
X0043624Y0672576D02*
X0327976Y0672576D01*
X0328482Y0672712D02*
X0325452Y0671900D01*
X0322736Y0670332D01*
X0320518Y0668114D01*
X0318950Y0665398D01*
X0318138Y0662368D01*
X0318138Y0659232D01*
X0318950Y0656202D01*
X0320518Y0653486D01*
X0322736Y0651268D01*
X0325452Y0649700D01*
X0328482Y0648888D01*
X0331618Y0648888D01*
X0334648Y0649700D01*
X0337364Y0651268D01*
X0339582Y0653486D01*
X0341150Y0656202D01*
X0341962Y0659232D01*
X0341962Y0662368D01*
X0341150Y0665398D01*
X0339582Y0668114D01*
X0337364Y0670332D01*
X0334648Y0671900D01*
X0331618Y0672712D01*
X0328482Y0672712D01*
X0332124Y0672576D02*
X0595400Y0672576D01*
X0595400Y0670978D02*
X0336245Y0670978D01*
X0338317Y0669379D02*
X0595400Y0669379D01*
X0595400Y0667781D02*
X0339774Y0667781D01*
X0340697Y0666182D02*
X0595400Y0666182D01*
X0595400Y0664584D02*
X0341368Y0664584D01*
X0341796Y0662985D02*
X0595400Y0662985D01*
X0595400Y0661387D02*
X0341962Y0661387D01*
X0341962Y0659788D02*
X0595400Y0659788D01*
X0595400Y0658190D02*
X0341683Y0658190D01*
X0341254Y0656591D02*
X0595400Y0656591D01*
X0595400Y0654993D02*
X0340452Y0654993D01*
X0339490Y0653394D02*
X0595400Y0653394D01*
X0595400Y0651796D02*
X0337891Y0651796D01*
X0335509Y0650197D02*
X0595400Y0650197D01*
X0595400Y0674175D02*
X0008200Y0674175D01*
X0008200Y0675773D02*
X0595400Y0675773D01*
X0595400Y0677372D02*
X0008200Y0677372D01*
X0008200Y0678970D02*
X0595400Y0678970D01*
X0595400Y0680569D02*
X0008200Y0680569D01*
X0008200Y0682167D02*
X0595400Y0682167D01*
X0595400Y0683766D02*
X0008200Y0683766D01*
X0008200Y0685364D02*
X0595400Y0685364D01*
X0595400Y0686963D02*
X0008200Y0686963D01*
X0008200Y0688561D02*
X0595400Y0688561D01*
X0595400Y0690160D02*
X0008200Y0690160D01*
X0008200Y0691758D02*
X0595400Y0691758D01*
X0595400Y0693357D02*
X0008200Y0693357D01*
X0008200Y0694955D02*
X0595400Y0694955D01*
X0595400Y0696554D02*
X0008200Y0696554D01*
X0008200Y0698152D02*
X0595400Y0698152D01*
X0595400Y0699751D02*
X0008200Y0699751D01*
X0008200Y0701349D02*
X0595400Y0701349D01*
X0595400Y0702948D02*
X0008200Y0702948D01*
X0008200Y0704546D02*
X0595400Y0704546D01*
X0595400Y0706145D02*
X0008200Y0706145D01*
X0008200Y0707743D02*
X0595400Y0707743D01*
X0595400Y0709342D02*
X0008200Y0709342D01*
X0008200Y0710941D02*
X0595400Y0710941D01*
X0595400Y0712539D02*
X0008200Y0712539D01*
X0008200Y0714138D02*
X0595400Y0714138D01*
X0595400Y0715736D02*
X0008200Y0715736D01*
X0008200Y0717335D02*
X0595400Y0717335D01*
X0595400Y0718933D02*
X0008200Y0718933D01*
X0008200Y0720532D02*
X0595400Y0720532D01*
X0595400Y0722130D02*
X0008200Y0722130D01*
X0008200Y0723729D02*
X0595400Y0723729D01*
X0595400Y0725327D02*
X0008200Y0725327D01*
X0008200Y0726926D02*
X0595400Y0726926D01*
X0595400Y0728524D02*
X0008200Y0728524D01*
X0008200Y0730123D02*
X0039107Y0730123D01*
X0039982Y0729888D02*
X0043118Y0729888D01*
X0046148Y0730700D01*
X0048864Y0732268D01*
X0051082Y0734486D01*
X0052650Y0737202D01*
X0053462Y0740232D01*
X0053462Y0743368D01*
X0052650Y0746398D01*
X0051082Y0749114D01*
X0048864Y0751332D01*
X0046148Y0752900D01*
X0043118Y0753712D01*
X0039982Y0753712D01*
X0036952Y0752900D01*
X0034236Y0751332D01*
X0032018Y0749114D01*
X0030450Y0746398D01*
X0029638Y0743368D01*
X0029638Y0740232D01*
X0030450Y0737202D01*
X0032018Y0734486D01*
X0034236Y0732268D01*
X0036952Y0730700D01*
X0039982Y0729888D01*
X0043993Y0730123D02*
X0327607Y0730123D01*
X0328482Y0729888D02*
X0331618Y0729888D01*
X0334648Y0730700D01*
X0337364Y0732268D01*
X0339582Y0734486D01*
X0341150Y0737202D01*
X0341962Y0740232D01*
X0341962Y0743368D01*
X0341150Y0746398D01*
X0339582Y0749114D01*
X0337364Y0751332D01*
X0334648Y0752900D01*
X0331618Y0753712D01*
X0328482Y0753712D01*
X0325452Y0752900D01*
X0322736Y0751332D01*
X0320518Y0749114D01*
X0318950Y0746398D01*
X0318138Y0743368D01*
X0318138Y0740232D01*
X0318950Y0737202D01*
X0320518Y0734486D01*
X0322736Y0732268D01*
X0325452Y0730700D01*
X0328482Y0729888D01*
X0332493Y0730123D02*
X0595400Y0730123D01*
X0595400Y0731721D02*
X0336417Y0731721D01*
X0338416Y0733320D02*
X0595400Y0733320D01*
X0595400Y0734918D02*
X0339831Y0734918D01*
X0340754Y0736517D02*
X0595400Y0736517D01*
X0595400Y0738115D02*
X0341395Y0738115D01*
X0341823Y0739714D02*
X0595400Y0739714D01*
X0595400Y0741312D02*
X0341962Y0741312D01*
X0341962Y0742911D02*
X0595400Y0742911D01*
X0595400Y0744509D02*
X0341656Y0744509D01*
X0341228Y0746108D02*
X0595400Y0746108D01*
X0595400Y0747706D02*
X0340395Y0747706D01*
X0339391Y0749305D02*
X0595400Y0749305D01*
X0595400Y0750903D02*
X0337793Y0750903D01*
X0335338Y0752502D02*
X0595400Y0752502D01*
X0595400Y0754100D02*
X0008200Y0754100D01*
X0008200Y0752502D02*
X0036262Y0752502D01*
X0033807Y0750903D02*
X0008200Y0750903D01*
X0008200Y0749305D02*
X0032209Y0749305D01*
X0031205Y0747706D02*
X0008200Y0747706D01*
X0008200Y0746108D02*
X0030372Y0746108D01*
X0029944Y0744509D02*
X0008200Y0744509D01*
X0008200Y0742911D02*
X0029638Y0742911D01*
X0029638Y0741312D02*
X0008200Y0741312D01*
X0008200Y0739714D02*
X0029777Y0739714D01*
X0030205Y0738115D02*
X0008200Y0738115D01*
X0008200Y0736517D02*
X0030846Y0736517D01*
X0031769Y0734918D02*
X0008200Y0734918D01*
X0008200Y0733320D02*
X0033184Y0733320D01*
X0035183Y0731721D02*
X0008200Y0731721D01*
X0008200Y0755699D02*
X0595400Y0755699D01*
X0595400Y0757297D02*
X0008200Y0757297D01*
X0008200Y0758896D02*
X0595400Y0758896D01*
X0595400Y0760494D02*
X0008200Y0760494D01*
X0008200Y0762093D02*
X0595400Y0762093D01*
X0595400Y0763691D02*
X0008200Y0763691D01*
X0008200Y0765290D02*
X0370718Y0765290D01*
X0371444Y0764871D02*
X0374973Y0763925D01*
X0378627Y0763925D01*
X0382156Y0764871D01*
X0385319Y0766697D01*
X0387903Y0769281D01*
X0389729Y0772444D01*
X0390675Y0775973D01*
X0390675Y0779627D01*
X0389729Y0783156D01*
X0387903Y0786319D01*
X0385319Y0788903D01*
X0382156Y0790729D01*
X0378627Y0791675D01*
X0374973Y0791675D01*
X0371444Y0790729D01*
X0368281Y0788903D01*
X0365697Y0786319D01*
X0363871Y0783156D01*
X0362925Y0779627D01*
X0362925Y0775973D01*
X0363871Y0772444D01*
X0365697Y0769281D01*
X0368281Y0766697D01*
X0371444Y0764871D01*
X0368089Y0766888D02*
X0008200Y0766888D01*
X0008200Y0768487D02*
X0366491Y0768487D01*
X0365233Y0770085D02*
X0008200Y0770085D01*
X0008200Y0771684D02*
X0364310Y0771684D01*
X0363646Y0773282D02*
X0008200Y0773282D01*
X0008200Y0774881D02*
X0363218Y0774881D01*
X0362925Y0776479D02*
X0008200Y0776479D01*
X0008200Y0778078D02*
X0362925Y0778078D01*
X0362938Y0779677D02*
X0008200Y0779677D01*
X0008200Y0781275D02*
X0363367Y0781275D01*
X0363795Y0782874D02*
X0008200Y0782874D01*
X0008200Y0784472D02*
X0364631Y0784472D01*
X0365554Y0786071D02*
X0008200Y0786071D01*
X0008200Y0787669D02*
X0367047Y0787669D01*
X0368912Y0789268D02*
X0008200Y0789268D01*
X0008200Y0790866D02*
X0371954Y0790866D01*
X0381646Y0790866D02*
X0571954Y0790866D01*
X0571444Y0790729D02*
X0568281Y0788903D01*
X0565697Y0786319D01*
X0563871Y0783156D01*
X0562925Y0779627D01*
X0562925Y0775973D01*
X0563871Y0772444D01*
X0565697Y0769281D01*
X0568281Y0766697D01*
X0571444Y0764871D01*
X0574973Y0763925D01*
X0578627Y0763925D01*
X0582156Y0764871D01*
X0585319Y0766697D01*
X0587903Y0769281D01*
X0589729Y0772444D01*
X0590675Y0775973D01*
X0590675Y0779627D01*
X0589729Y0783156D01*
X0587903Y0786319D01*
X0585319Y0788903D01*
X0582156Y0790729D01*
X0578627Y0791675D01*
X0574973Y0791675D01*
X0571444Y0790729D01*
X0568912Y0789268D02*
X0384688Y0789268D01*
X0386553Y0787669D02*
X0567047Y0787669D01*
X0565554Y0786071D02*
X0388046Y0786071D01*
X0388969Y0784472D02*
X0564631Y0784472D01*
X0563795Y0782874D02*
X0389805Y0782874D01*
X0390233Y0781275D02*
X0563367Y0781275D01*
X0562938Y0779677D02*
X0390662Y0779677D01*
X0390675Y0778078D02*
X0562925Y0778078D01*
X0562925Y0776479D02*
X0390675Y0776479D01*
X0390382Y0774881D02*
X0563218Y0774881D01*
X0563646Y0773282D02*
X0389954Y0773282D01*
X0389290Y0771684D02*
X0564310Y0771684D01*
X0565233Y0770085D02*
X0388367Y0770085D01*
X0387109Y0768487D02*
X0566491Y0768487D01*
X0568089Y0766888D02*
X0385511Y0766888D01*
X0382882Y0765290D02*
X0570718Y0765290D01*
X0582882Y0765290D02*
X0595400Y0765290D01*
X0595400Y0766888D02*
X0585511Y0766888D01*
X0587109Y0768487D02*
X0595400Y0768487D01*
X0595400Y0770085D02*
X0588367Y0770085D01*
X0589290Y0771684D02*
X0595400Y0771684D01*
X0595400Y0773282D02*
X0589954Y0773282D01*
X0590382Y0774881D02*
X0595400Y0774881D01*
X0595400Y0776479D02*
X0590675Y0776479D01*
X0590675Y0778078D02*
X0595400Y0778078D01*
X0595400Y0779677D02*
X0590662Y0779677D01*
X0590233Y0781275D02*
X0595400Y0781275D01*
X0595400Y0782874D02*
X0589805Y0782874D01*
X0588969Y0784472D02*
X0595400Y0784472D01*
X0595400Y0786071D02*
X0588046Y0786071D01*
X0586553Y0787669D02*
X0595400Y0787669D01*
X0595400Y0789268D02*
X0584688Y0789268D01*
X0581646Y0790866D02*
X0595400Y0790866D01*
X0595400Y0792465D02*
X0008200Y0792465D01*
X0008200Y0794063D02*
X0595400Y0794063D01*
X0595400Y0795662D02*
X0008200Y0795662D01*
X0046838Y0752502D02*
X0324762Y0752502D01*
X0322307Y0750903D02*
X0049293Y0750903D01*
X0050891Y0749305D02*
X0320709Y0749305D01*
X0319705Y0747706D02*
X0051895Y0747706D01*
X0052728Y0746108D02*
X0318872Y0746108D01*
X0318444Y0744509D02*
X0053156Y0744509D01*
X0053462Y0742911D02*
X0318138Y0742911D01*
X0318138Y0741312D02*
X0053462Y0741312D01*
X0053323Y0739714D02*
X0318277Y0739714D01*
X0318705Y0738115D02*
X0052895Y0738115D01*
X0052254Y0736517D02*
X0319346Y0736517D01*
X0320269Y0734918D02*
X0051331Y0734918D01*
X0049916Y0733320D02*
X0321684Y0733320D01*
X0323683Y0731721D02*
X0047917Y0731721D01*
X0047745Y0670978D02*
X0323855Y0670978D01*
X0321783Y0669379D02*
X0049817Y0669379D01*
X0051274Y0667781D02*
X0320326Y0667781D01*
X0319403Y0666182D02*
X0052197Y0666182D01*
X0052868Y0664584D02*
X0318732Y0664584D01*
X0318304Y0662985D02*
X0053296Y0662985D01*
X0053462Y0661387D02*
X0318138Y0661387D01*
X0318138Y0659788D02*
X0053462Y0659788D01*
X0053183Y0658190D02*
X0318417Y0658190D01*
X0318846Y0656591D02*
X0052754Y0656591D01*
X0051952Y0654993D02*
X0319648Y0654993D01*
X0320610Y0653394D02*
X0050990Y0653394D01*
X0049391Y0651796D02*
X0322209Y0651796D01*
X0324591Y0650197D02*
X0047009Y0650197D01*
X0035475Y0488747D02*
X0102100Y0488747D01*
X0102100Y0487149D02*
X0037073Y0487149D01*
X0038347Y0485550D02*
X0102100Y0485550D01*
X0102100Y0483952D02*
X0039270Y0483952D01*
X0039944Y0482353D02*
X0102100Y0482353D01*
X0102100Y0480755D02*
X0040373Y0480755D01*
X0040675Y0479156D02*
X0075611Y0479156D01*
X0072718Y0477558D02*
X0040675Y0477558D01*
X0040671Y0475959D02*
X0071020Y0475959D01*
X0069717Y0474361D02*
X0040243Y0474361D01*
X0039815Y0472762D02*
X0068794Y0472762D01*
X0068180Y0471164D02*
X0038990Y0471164D01*
X0038067Y0469565D02*
X0067751Y0469565D01*
X0067582Y0467967D02*
X0036589Y0467967D01*
X0034750Y0466368D02*
X0067582Y0466368D01*
X0067801Y0464770D02*
X0031779Y0464770D01*
X0084257Y0455179D02*
X0098342Y0455179D01*
X0098348Y0456777D02*
X0087522Y0456777D01*
X0089356Y0458376D02*
X0097917Y0458376D01*
X0097917Y0459974D02*
X0090738Y0459974D01*
X0091661Y0461573D02*
X0097917Y0461573D01*
X0097917Y0463171D02*
X0092333Y0463171D01*
X0092761Y0464770D02*
X0097917Y0464770D01*
X0098618Y0466368D02*
X0092980Y0466368D01*
X0092980Y0467967D02*
X0100217Y0467967D01*
X0101815Y0469565D02*
X0092811Y0469565D01*
X0092382Y0471164D02*
X0102233Y0471164D01*
X0102100Y0472762D02*
X0091768Y0472762D01*
X0090846Y0474361D02*
X0102100Y0474361D01*
X0102100Y0475959D02*
X0089542Y0475959D01*
X0087844Y0477558D02*
X0102100Y0477558D01*
X0102100Y0479156D02*
X0084952Y0479156D01*
X0134500Y0479156D02*
X0173996Y0479156D01*
X0173765Y0479094D02*
X0170869Y0477423D01*
X0168505Y0475058D01*
X0166833Y0472162D01*
X0165968Y0468933D01*
X0165968Y0465589D01*
X0166833Y0462359D01*
X0168505Y0459463D01*
X0170869Y0457099D01*
X0173765Y0455427D01*
X0176995Y0454561D01*
X0180339Y0454561D01*
X0183569Y0455427D01*
X0186464Y0457099D01*
X0188829Y0459463D01*
X0190501Y0462359D01*
X0191366Y0465589D01*
X0191366Y0468933D01*
X0190501Y0472162D01*
X0188829Y0475058D01*
X0186464Y0477423D01*
X0183569Y0479094D01*
X0180339Y0479960D01*
X0176995Y0479960D01*
X0173765Y0479094D01*
X0171104Y0477558D02*
X0134500Y0477558D01*
X0134500Y0475959D02*
X0169406Y0475959D01*
X0168102Y0474361D02*
X0134596Y0474361D01*
X0134623Y0472762D02*
X0167180Y0472762D01*
X0166566Y0471164D02*
X0155337Y0471164D01*
X0156936Y0469565D02*
X0166137Y0469565D01*
X0165968Y0467967D02*
X0158534Y0467967D01*
X0160133Y0466368D02*
X0165968Y0466368D01*
X0166187Y0464770D02*
X0160835Y0464770D01*
X0160835Y0463171D02*
X0166615Y0463171D01*
X0167287Y0461573D02*
X0160835Y0461573D01*
X0160835Y0459974D02*
X0168210Y0459974D01*
X0169592Y0458376D02*
X0160835Y0458376D01*
X0159938Y0456777D02*
X0171426Y0456777D01*
X0174691Y0455179D02*
X0158340Y0455179D01*
X0156741Y0453580D02*
X0529600Y0453580D01*
X0529600Y0451982D02*
X0149481Y0451982D01*
X0149481Y0450383D02*
X0529600Y0450383D01*
X0529600Y0448785D02*
X0149481Y0448785D01*
X0149481Y0447186D02*
X0529600Y0447186D01*
X0529600Y0445588D02*
X0149481Y0445588D01*
X0149481Y0443989D02*
X0529600Y0443989D01*
X0529600Y0442391D02*
X0149481Y0442391D01*
X0149481Y0440792D02*
X0529600Y0440792D01*
X0529600Y0439194D02*
X0149481Y0439194D01*
X0149481Y0437595D02*
X0529600Y0437595D01*
X0529600Y0435997D02*
X0149481Y0435997D01*
X0149481Y0434398D02*
X0529600Y0434398D01*
X0529600Y0432800D02*
X0149481Y0432800D01*
X0149481Y0431201D02*
X0529600Y0431201D01*
X0529600Y0429603D02*
X0149481Y0429603D01*
X0149607Y0428004D02*
X0529600Y0428004D01*
X0529600Y0426405D02*
X0151205Y0426405D01*
X0152804Y0424807D02*
X0529600Y0424807D01*
X0529600Y0423208D02*
X0154402Y0423208D01*
X0156001Y0421610D02*
X0529600Y0421610D01*
X0529600Y0420011D02*
X0157599Y0420011D01*
X0159198Y0418413D02*
X0529600Y0418413D01*
X0529600Y0416814D02*
X0160796Y0416814D01*
X0162395Y0415216D02*
X0529600Y0415216D01*
X0529600Y0413617D02*
X0163993Y0413617D01*
X0165592Y0412019D02*
X0529600Y0412019D01*
X0529600Y0410420D02*
X0167190Y0410420D01*
X0168789Y0408822D02*
X0529600Y0408822D01*
X0529600Y0407223D02*
X0170387Y0407223D01*
X0171986Y0405625D02*
X0529600Y0405625D01*
X0529600Y0404026D02*
X0173584Y0404026D01*
X0175183Y0402428D02*
X0529600Y0402428D01*
X0529600Y0400829D02*
X0176781Y0400829D01*
X0178380Y0399231D02*
X0529600Y0399231D01*
X0529600Y0397632D02*
X0179978Y0397632D01*
X0181577Y0396034D02*
X0529600Y0396034D01*
X0529600Y0394435D02*
X0183175Y0394435D01*
X0184774Y0392837D02*
X0529600Y0392837D01*
X0529600Y0391238D02*
X0186373Y0391238D01*
X0187760Y0389640D02*
X0529600Y0389640D01*
X0529600Y0388041D02*
X0188415Y0388041D01*
X0189007Y0386443D02*
X0529600Y0386443D01*
X0529600Y0384844D02*
X0189000Y0384844D01*
X0189000Y0383246D02*
X0529600Y0383246D01*
X0529600Y0381647D02*
X0188987Y0381647D01*
X0188980Y0380049D02*
X0529600Y0380049D01*
X0529600Y0378450D02*
X0188974Y0378450D01*
X0188967Y0376852D02*
X0529600Y0376852D01*
X0529600Y0375253D02*
X0188961Y0375253D01*
X0188954Y0373655D02*
X0529600Y0373655D01*
X0529600Y0372056D02*
X0188948Y0372056D01*
X0188941Y0370458D02*
X0529600Y0370458D01*
X0529600Y0368859D02*
X0188934Y0368859D01*
X0188928Y0367261D02*
X0529600Y0367261D01*
X0529600Y0366391D02*
X0530329Y0363670D01*
X0531738Y0361230D01*
X0533730Y0359238D01*
X0536170Y0357829D01*
X0538891Y0357100D01*
X0541459Y0357100D01*
X0540888Y0354968D01*
X0540888Y0351832D01*
X0541700Y0348802D01*
X0543268Y0346086D01*
X0545486Y0343868D01*
X0548202Y0342300D01*
X0551232Y0341488D01*
X0554368Y0341488D01*
X0557398Y0342300D01*
X0560114Y0343868D01*
X0562332Y0346086D01*
X0563900Y0348802D01*
X0564712Y0351832D01*
X0564712Y0354968D01*
X0563900Y0357998D01*
X0562332Y0360714D01*
X0560114Y0362932D01*
X0557398Y0364500D01*
X0554368Y0365312D01*
X0551232Y0365312D01*
X0550670Y0365161D01*
X0551000Y0366391D01*
X0551000Y0524709D01*
X0550271Y0527430D01*
X0548862Y0529870D01*
X0525362Y0553370D01*
X0523370Y0555362D01*
X0520930Y0556771D01*
X0518209Y0557500D01*
X0497324Y0557500D01*
X0497228Y0557556D01*
X0494323Y0558334D01*
X0481277Y0558334D01*
X0478372Y0557556D01*
X0475768Y0556052D01*
X0473642Y0553926D01*
X0472139Y0551322D01*
X0471361Y0548418D01*
X0471361Y0545411D01*
X0472139Y0542506D01*
X0473642Y0539902D01*
X0475768Y0537776D01*
X0478372Y0536273D01*
X0481277Y0535494D01*
X0494323Y0535494D01*
X0496583Y0536100D01*
X0512368Y0536100D01*
X0529600Y0518868D01*
X0529600Y0366391D01*
X0529795Y0365662D02*
X0188921Y0365662D01*
X0188915Y0364064D02*
X0481946Y0364064D01*
X0482702Y0364500D02*
X0479986Y0362932D01*
X0477768Y0360714D01*
X0476200Y0357998D01*
X0475388Y0354968D01*
X0475388Y0351832D01*
X0476200Y0348802D01*
X0477768Y0346086D01*
X0479986Y0343868D01*
X0482702Y0342300D01*
X0485732Y0341488D01*
X0488868Y0341488D01*
X0491898Y0342300D01*
X0494614Y0343868D01*
X0496832Y0346086D01*
X0498400Y0348802D01*
X0499212Y0351832D01*
X0499212Y0354968D01*
X0498400Y0357998D01*
X0496832Y0360714D01*
X0494614Y0362932D01*
X0491898Y0364500D01*
X0488868Y0365312D01*
X0485732Y0365312D01*
X0482702Y0364500D01*
X0479519Y0362465D02*
X0188908Y0362465D01*
X0188902Y0360867D02*
X0477921Y0360867D01*
X0476933Y0359268D02*
X0188895Y0359268D01*
X0188888Y0357670D02*
X0476112Y0357670D01*
X0475684Y0356071D02*
X0188882Y0356071D01*
X0188875Y0354472D02*
X0475388Y0354472D01*
X0475388Y0352874D02*
X0188869Y0352874D01*
X0188862Y0351275D02*
X0475537Y0351275D01*
X0475966Y0349677D02*
X0188856Y0349677D01*
X0188849Y0348078D02*
X0476618Y0348078D01*
X0477541Y0346480D02*
X0188842Y0346480D01*
X0188836Y0344881D02*
X0478973Y0344881D01*
X0481000Y0343283D02*
X0188829Y0343283D01*
X0188823Y0341684D02*
X0484999Y0341684D01*
X0489600Y0341684D02*
X0550499Y0341684D01*
X0546500Y0343283D02*
X0493600Y0343283D01*
X0495627Y0344881D02*
X0544473Y0344881D01*
X0543041Y0346480D02*
X0497059Y0346480D01*
X0497982Y0348078D02*
X0542118Y0348078D01*
X0541466Y0349677D02*
X0498634Y0349677D01*
X0499063Y0351275D02*
X0541037Y0351275D01*
X0540888Y0352874D02*
X0499212Y0352874D01*
X0499212Y0354472D02*
X0540888Y0354472D01*
X0541184Y0356071D02*
X0498916Y0356071D01*
X0498488Y0357670D02*
X0536766Y0357670D01*
X0533700Y0359268D02*
X0497667Y0359268D01*
X0496679Y0360867D02*
X0532101Y0360867D01*
X0531025Y0362465D02*
X0495081Y0362465D01*
X0492654Y0364064D02*
X0530224Y0364064D01*
X0550805Y0365662D02*
X0595400Y0365662D01*
X0595400Y0364064D02*
X0558154Y0364064D01*
X0560581Y0362465D02*
X0595400Y0362465D01*
X0595400Y0360867D02*
X0562179Y0360867D01*
X0563167Y0359268D02*
X0595400Y0359268D01*
X0595400Y0357670D02*
X0563988Y0357670D01*
X0564416Y0356071D02*
X0595400Y0356071D01*
X0595400Y0354472D02*
X0564712Y0354472D01*
X0564712Y0352874D02*
X0595400Y0352874D01*
X0595400Y0351275D02*
X0564563Y0351275D01*
X0564134Y0349677D02*
X0595400Y0349677D01*
X0595400Y0348078D02*
X0563482Y0348078D01*
X0562559Y0346480D02*
X0595400Y0346480D01*
X0595400Y0344881D02*
X0561127Y0344881D01*
X0559100Y0343283D02*
X0595400Y0343283D01*
X0595400Y0341684D02*
X0555100Y0341684D01*
X0551000Y0367261D02*
X0595400Y0367261D01*
X0595400Y0368859D02*
X0551000Y0368859D01*
X0551000Y0370458D02*
X0595400Y0370458D01*
X0595400Y0372056D02*
X0551000Y0372056D01*
X0551000Y0373655D02*
X0595400Y0373655D01*
X0595400Y0375253D02*
X0551000Y0375253D01*
X0551000Y0376852D02*
X0595400Y0376852D01*
X0595400Y0378450D02*
X0551000Y0378450D01*
X0551000Y0380049D02*
X0595400Y0380049D01*
X0595400Y0381647D02*
X0551000Y0381647D01*
X0551000Y0383246D02*
X0595400Y0383246D01*
X0595400Y0384844D02*
X0551000Y0384844D01*
X0551000Y0386443D02*
X0595400Y0386443D01*
X0595400Y0388041D02*
X0551000Y0388041D01*
X0551000Y0389640D02*
X0595400Y0389640D01*
X0595400Y0391238D02*
X0551000Y0391238D01*
X0551000Y0392837D02*
X0595400Y0392837D01*
X0595400Y0394435D02*
X0551000Y0394435D01*
X0551000Y0396034D02*
X0595400Y0396034D01*
X0595400Y0397632D02*
X0551000Y0397632D01*
X0551000Y0399231D02*
X0595400Y0399231D01*
X0595400Y0400829D02*
X0551000Y0400829D01*
X0551000Y0402428D02*
X0595400Y0402428D01*
X0595400Y0404026D02*
X0551000Y0404026D01*
X0551000Y0405625D02*
X0595400Y0405625D01*
X0595400Y0407223D02*
X0551000Y0407223D01*
X0551000Y0408822D02*
X0595400Y0408822D01*
X0595400Y0410420D02*
X0551000Y0410420D01*
X0551000Y0412019D02*
X0595400Y0412019D01*
X0595400Y0413617D02*
X0551000Y0413617D01*
X0551000Y0415216D02*
X0595400Y0415216D01*
X0595400Y0416814D02*
X0551000Y0416814D01*
X0551000Y0418413D02*
X0595400Y0418413D01*
X0595400Y0420011D02*
X0551000Y0420011D01*
X0551000Y0421610D02*
X0595400Y0421610D01*
X0595400Y0423208D02*
X0551000Y0423208D01*
X0551000Y0424807D02*
X0595400Y0424807D01*
X0595400Y0426405D02*
X0551000Y0426405D01*
X0551000Y0428004D02*
X0595400Y0428004D01*
X0595400Y0429603D02*
X0551000Y0429603D01*
X0551000Y0431201D02*
X0595400Y0431201D01*
X0595400Y0432800D02*
X0551000Y0432800D01*
X0551000Y0434398D02*
X0595400Y0434398D01*
X0595400Y0435997D02*
X0551000Y0435997D01*
X0551000Y0437595D02*
X0595400Y0437595D01*
X0595400Y0439194D02*
X0551000Y0439194D01*
X0551000Y0440792D02*
X0595400Y0440792D01*
X0595400Y0442391D02*
X0551000Y0442391D01*
X0551000Y0443989D02*
X0595400Y0443989D01*
X0595400Y0445588D02*
X0551000Y0445588D01*
X0551000Y0447186D02*
X0595400Y0447186D01*
X0595400Y0448785D02*
X0551000Y0448785D01*
X0551000Y0450383D02*
X0595400Y0450383D01*
X0595400Y0451982D02*
X0551000Y0451982D01*
X0551000Y0453580D02*
X0595400Y0453580D01*
X0595400Y0455179D02*
X0551000Y0455179D01*
X0551000Y0456777D02*
X0595400Y0456777D01*
X0595400Y0458376D02*
X0551000Y0458376D01*
X0551000Y0459974D02*
X0595400Y0459974D01*
X0595400Y0461573D02*
X0551000Y0461573D01*
X0551000Y0463171D02*
X0595400Y0463171D01*
X0595400Y0464770D02*
X0551000Y0464770D01*
X0551000Y0466368D02*
X0595400Y0466368D01*
X0595400Y0467967D02*
X0551000Y0467967D01*
X0551000Y0469565D02*
X0595400Y0469565D01*
X0595400Y0471164D02*
X0551000Y0471164D01*
X0551000Y0472762D02*
X0595400Y0472762D01*
X0595400Y0474361D02*
X0551000Y0474361D01*
X0551000Y0475959D02*
X0595400Y0475959D01*
X0595400Y0477558D02*
X0551000Y0477558D01*
X0551000Y0479156D02*
X0595400Y0479156D01*
X0595400Y0480755D02*
X0551000Y0480755D01*
X0551000Y0482353D02*
X0595400Y0482353D01*
X0595400Y0483952D02*
X0551000Y0483952D01*
X0551000Y0485550D02*
X0595400Y0485550D01*
X0595400Y0487149D02*
X0551000Y0487149D01*
X0551000Y0488747D02*
X0595400Y0488747D01*
X0595400Y0490346D02*
X0551000Y0490346D01*
X0551000Y0491944D02*
X0595400Y0491944D01*
X0595400Y0493543D02*
X0551000Y0493543D01*
X0551000Y0495141D02*
X0595400Y0495141D01*
X0595400Y0496740D02*
X0551000Y0496740D01*
X0551000Y0498339D02*
X0595400Y0498339D01*
X0595400Y0499937D02*
X0551000Y0499937D01*
X0551000Y0501536D02*
X0595400Y0501536D01*
X0595400Y0503134D02*
X0551000Y0503134D01*
X0551000Y0504733D02*
X0595400Y0504733D01*
X0595400Y0506331D02*
X0551000Y0506331D01*
X0551000Y0507930D02*
X0595400Y0507930D01*
X0595400Y0509528D02*
X0551000Y0509528D01*
X0551000Y0511127D02*
X0595400Y0511127D01*
X0595400Y0512725D02*
X0551000Y0512725D01*
X0551000Y0514324D02*
X0595400Y0514324D01*
X0595400Y0515922D02*
X0551000Y0515922D01*
X0551000Y0517521D02*
X0595400Y0517521D01*
X0595400Y0519119D02*
X0551000Y0519119D01*
X0551000Y0520718D02*
X0595400Y0520718D01*
X0595400Y0522316D02*
X0551000Y0522316D01*
X0551000Y0523915D02*
X0595400Y0523915D01*
X0595400Y0525513D02*
X0550784Y0525513D01*
X0550356Y0527112D02*
X0595400Y0527112D01*
X0595400Y0528710D02*
X0549532Y0528710D01*
X0548423Y0530309D02*
X0595400Y0530309D01*
X0595400Y0531907D02*
X0546825Y0531907D01*
X0545226Y0533506D02*
X0595400Y0533506D01*
X0595400Y0535104D02*
X0543628Y0535104D01*
X0542029Y0536703D02*
X0595400Y0536703D01*
X0595400Y0538301D02*
X0540431Y0538301D01*
X0538832Y0539900D02*
X0595400Y0539900D01*
X0595400Y0541498D02*
X0537234Y0541498D01*
X0535635Y0543097D02*
X0595400Y0543097D01*
X0595400Y0544695D02*
X0534037Y0544695D01*
X0532438Y0546294D02*
X0595400Y0546294D01*
X0595400Y0547892D02*
X0530840Y0547892D01*
X0529241Y0549491D02*
X0595400Y0549491D01*
X0595400Y0551089D02*
X0527643Y0551089D01*
X0526044Y0552688D02*
X0595400Y0552688D01*
X0595400Y0554286D02*
X0524446Y0554286D01*
X0522464Y0555885D02*
X0595400Y0555885D01*
X0595400Y0557483D02*
X0518270Y0557483D01*
X0501146Y0570272D02*
X0595400Y0570272D01*
X0595400Y0571870D02*
X0502412Y0571870D01*
X0503335Y0573469D02*
X0595400Y0573469D01*
X0595400Y0575067D02*
X0503831Y0575067D01*
X0504239Y0576666D02*
X0595400Y0576666D01*
X0595400Y0578264D02*
X0504239Y0578264D01*
X0504169Y0579863D02*
X0595400Y0579863D01*
X0595400Y0581461D02*
X0503740Y0581461D01*
X0503140Y0583060D02*
X0595400Y0583060D01*
X0595400Y0584658D02*
X0502217Y0584658D01*
X0501540Y0586257D02*
X0595400Y0586257D01*
X0595400Y0587855D02*
X0502640Y0587855D01*
X0503508Y0589454D02*
X0595400Y0589454D01*
X0595400Y0591052D02*
X0503937Y0591052D01*
X0504239Y0592651D02*
X0595400Y0592651D01*
X0595400Y0594249D02*
X0504239Y0594249D01*
X0504063Y0595848D02*
X0595400Y0595848D01*
X0595400Y0597446D02*
X0503635Y0597446D01*
X0502912Y0599045D02*
X0595400Y0599045D01*
X0595400Y0600643D02*
X0501989Y0600643D01*
X0500414Y0602242D02*
X0595400Y0602242D01*
X0595400Y0603840D02*
X0498071Y0603840D01*
X0499339Y0568673D02*
X0595400Y0568673D01*
X0595400Y0567074D02*
X0495812Y0567074D01*
X0479788Y0567074D02*
X0438207Y0567074D01*
X0436608Y0565476D02*
X0595400Y0565476D01*
X0595400Y0563877D02*
X0435010Y0563877D01*
X0433411Y0562279D02*
X0595400Y0562279D01*
X0595400Y0560680D02*
X0431813Y0560680D01*
X0430214Y0559082D02*
X0595400Y0559082D01*
X0529349Y0519119D02*
X0390251Y0519119D01*
X0388653Y0517521D02*
X0529600Y0517521D01*
X0529600Y0515922D02*
X0387054Y0515922D01*
X0385456Y0514324D02*
X0529600Y0514324D01*
X0529600Y0512725D02*
X0383857Y0512725D01*
X0382259Y0511127D02*
X0529600Y0511127D01*
X0529600Y0509528D02*
X0380660Y0509528D01*
X0379062Y0507930D02*
X0529600Y0507930D01*
X0529600Y0506331D02*
X0377463Y0506331D01*
X0375865Y0504733D02*
X0529600Y0504733D01*
X0529600Y0503134D02*
X0374266Y0503134D01*
X0372668Y0501536D02*
X0529600Y0501536D01*
X0529600Y0499937D02*
X0371069Y0499937D01*
X0369471Y0498339D02*
X0529600Y0498339D01*
X0529600Y0496740D02*
X0367872Y0496740D01*
X0366274Y0495141D02*
X0529600Y0495141D01*
X0529600Y0493543D02*
X0364675Y0493543D01*
X0363077Y0491944D02*
X0529600Y0491944D01*
X0529600Y0490346D02*
X0360825Y0490346D01*
X0391850Y0520718D02*
X0527750Y0520718D01*
X0526152Y0522316D02*
X0393448Y0522316D01*
X0395047Y0523915D02*
X0524553Y0523915D01*
X0522955Y0525513D02*
X0396645Y0525513D01*
X0398244Y0527112D02*
X0521356Y0527112D01*
X0519758Y0528710D02*
X0399842Y0528710D01*
X0401441Y0530309D02*
X0518159Y0530309D01*
X0516561Y0531907D02*
X0403039Y0531907D01*
X0404638Y0533506D02*
X0514962Y0533506D01*
X0513364Y0535104D02*
X0406236Y0535104D01*
X0407835Y0536703D02*
X0477628Y0536703D01*
X0475243Y0538301D02*
X0409433Y0538301D01*
X0411032Y0539900D02*
X0473645Y0539900D01*
X0472721Y0541498D02*
X0412630Y0541498D01*
X0414229Y0543097D02*
X0471981Y0543097D01*
X0471552Y0544695D02*
X0415827Y0544695D01*
X0417426Y0546294D02*
X0471361Y0546294D01*
X0471361Y0547892D02*
X0419024Y0547892D01*
X0420623Y0549491D02*
X0471648Y0549491D01*
X0472077Y0551089D02*
X0422221Y0551089D01*
X0423820Y0552688D02*
X0472927Y0552688D01*
X0474003Y0554286D02*
X0425418Y0554286D01*
X0427017Y0555885D02*
X0475601Y0555885D01*
X0478247Y0557483D02*
X0428616Y0557483D01*
X0529600Y0488747D02*
X0139880Y0488747D01*
X0138281Y0487149D02*
X0529600Y0487149D01*
X0529600Y0485550D02*
X0136682Y0485550D01*
X0135084Y0483952D02*
X0529600Y0483952D01*
X0529600Y0482353D02*
X0134500Y0482353D01*
X0134500Y0480755D02*
X0529600Y0480755D01*
X0529600Y0479156D02*
X0183337Y0479156D01*
X0186230Y0477558D02*
X0529600Y0477558D01*
X0529600Y0475959D02*
X0187928Y0475959D01*
X0189231Y0474361D02*
X0529600Y0474361D01*
X0529600Y0472762D02*
X0190154Y0472762D01*
X0190768Y0471164D02*
X0529600Y0471164D01*
X0529600Y0469565D02*
X0191197Y0469565D01*
X0191366Y0467967D02*
X0529600Y0467967D01*
X0529600Y0466368D02*
X0191366Y0466368D01*
X0191147Y0464770D02*
X0529600Y0464770D01*
X0529600Y0463171D02*
X0190718Y0463171D01*
X0190047Y0461573D02*
X0529600Y0461573D01*
X0529600Y0459974D02*
X0189124Y0459974D01*
X0187741Y0458376D02*
X0529600Y0458376D01*
X0529600Y0456777D02*
X0185908Y0456777D01*
X0182643Y0455179D02*
X0529600Y0455179D01*
X0595400Y0340086D02*
X0188816Y0340086D01*
X0188809Y0338487D02*
X0595400Y0338487D01*
X0595400Y0336889D02*
X0188803Y0336889D01*
X0188796Y0335290D02*
X0595400Y0335290D01*
X0595400Y0333692D02*
X0188790Y0333692D01*
X0188783Y0332093D02*
X0595400Y0332093D01*
X0595400Y0330495D02*
X0188777Y0330495D01*
X0188770Y0328896D02*
X0595400Y0328896D01*
X0595400Y0327298D02*
X0188763Y0327298D01*
X0188757Y0325699D02*
X0595400Y0325699D01*
X0595400Y0324101D02*
X0188750Y0324101D01*
X0188744Y0322502D02*
X0595400Y0322502D01*
X0595400Y0320904D02*
X0188737Y0320904D01*
X0188731Y0319305D02*
X0595400Y0319305D01*
X0595400Y0317707D02*
X0188724Y0317707D01*
X0188717Y0316108D02*
X0595400Y0316108D01*
X0595400Y0314510D02*
X0188711Y0314510D01*
X0188704Y0312911D02*
X0595400Y0312911D01*
X0595400Y0311313D02*
X0188698Y0311313D01*
X0188691Y0309714D02*
X0484248Y0309714D01*
X0480651Y0308116D02*
X0188684Y0308116D01*
X0188678Y0306517D02*
X0478771Y0306517D01*
X0477424Y0304919D02*
X0188671Y0304919D01*
X0188665Y0303320D02*
X0476502Y0303320D01*
X0475912Y0301722D02*
X0188658Y0301722D01*
X0188652Y0300123D02*
X0475483Y0300123D01*
X0475388Y0298525D02*
X0188645Y0298525D01*
X0188638Y0296926D02*
X0475388Y0296926D01*
X0475738Y0295328D02*
X0188632Y0295328D01*
X0188625Y0293729D02*
X0476166Y0293729D01*
X0477050Y0292131D02*
X0188619Y0292131D01*
X0188612Y0290532D02*
X0478122Y0290532D01*
X0479721Y0288934D02*
X0188606Y0288934D01*
X0188599Y0287335D02*
X0482295Y0287335D01*
X0489413Y0285737D02*
X0188592Y0285737D01*
X0188586Y0284138D02*
X0489266Y0284138D01*
X0489266Y0282539D02*
X0188579Y0282539D01*
X0188573Y0280941D02*
X0489661Y0280941D01*
X0490210Y0279342D02*
X0188566Y0279342D01*
X0188559Y0277744D02*
X0490600Y0277744D01*
X0490600Y0276145D02*
X0188553Y0276145D01*
X0188546Y0274547D02*
X0490600Y0274547D01*
X0490600Y0272948D02*
X0188540Y0272948D01*
X0188533Y0271350D02*
X0490600Y0271350D01*
X0490600Y0269751D02*
X0188527Y0269751D01*
X0188520Y0268153D02*
X0490600Y0268153D01*
X0490600Y0266554D02*
X0188513Y0266554D01*
X0188507Y0264956D02*
X0490600Y0264956D01*
X0490600Y0263357D02*
X0188500Y0263357D01*
X0188500Y0261759D02*
X0490600Y0261759D01*
X0490600Y0260160D02*
X0187959Y0260160D01*
X0187295Y0258562D02*
X0490600Y0258562D01*
X0490600Y0256963D02*
X0185976Y0256963D01*
X0184376Y0255365D02*
X0490600Y0255365D01*
X0490600Y0253766D02*
X0182777Y0253766D01*
X0181179Y0252168D02*
X0490600Y0252168D01*
X0490600Y0250569D02*
X0179580Y0250569D01*
X0177982Y0248971D02*
X0490600Y0248971D01*
X0490600Y0247372D02*
X0176383Y0247372D01*
X0174784Y0245774D02*
X0490600Y0245774D01*
X0490600Y0244175D02*
X0173186Y0244175D01*
X0164300Y0242577D02*
X0490600Y0242577D01*
X0490600Y0240978D02*
X0164344Y0240978D01*
X0164505Y0239380D02*
X0490600Y0239380D01*
X0490600Y0237781D02*
X0164492Y0237781D01*
X0164480Y0236183D02*
X0490600Y0236183D01*
X0490600Y0234584D02*
X0164467Y0234584D01*
X0164455Y0232986D02*
X0490600Y0232986D01*
X0490600Y0231387D02*
X0164442Y0231387D01*
X0164430Y0229789D02*
X0490600Y0229789D01*
X0506367Y0292131D02*
X0506733Y0292131D01*
X0509656Y0293729D02*
X0503444Y0293729D01*
X0498862Y0295328D02*
X0541238Y0295328D01*
X0540888Y0296926D02*
X0499212Y0296926D01*
X0499212Y0298525D02*
X0540888Y0298525D01*
X0540983Y0300123D02*
X0499117Y0300123D01*
X0498688Y0301722D02*
X0541412Y0301722D01*
X0542002Y0303320D02*
X0498098Y0303320D01*
X0497176Y0304919D02*
X0542924Y0304919D01*
X0544271Y0306517D02*
X0495829Y0306517D01*
X0493949Y0308116D02*
X0546151Y0308116D01*
X0549748Y0309714D02*
X0490352Y0309714D01*
X0516944Y0293729D02*
X0523156Y0293729D01*
X0520233Y0292131D02*
X0519867Y0292131D01*
X0530444Y0293729D02*
X0536656Y0293729D01*
X0533733Y0292131D02*
X0533367Y0292131D01*
X0549476Y0277744D02*
X0595400Y0277744D01*
X0595400Y0279342D02*
X0549890Y0279342D01*
X0550439Y0280941D02*
X0595400Y0280941D01*
X0595400Y0282539D02*
X0550834Y0282539D01*
X0550834Y0284138D02*
X0595400Y0284138D01*
X0595400Y0285737D02*
X0550687Y0285737D01*
X0557805Y0287335D02*
X0595400Y0287335D01*
X0595400Y0288934D02*
X0560379Y0288934D01*
X0561978Y0290532D02*
X0595400Y0290532D01*
X0595400Y0292131D02*
X0563050Y0292131D01*
X0563934Y0293729D02*
X0595400Y0293729D01*
X0595400Y0295328D02*
X0564362Y0295328D01*
X0564712Y0296926D02*
X0595400Y0296926D01*
X0595400Y0298525D02*
X0564712Y0298525D01*
X0564617Y0300123D02*
X0595400Y0300123D01*
X0595400Y0301722D02*
X0564188Y0301722D01*
X0563598Y0303320D02*
X0595400Y0303320D01*
X0595400Y0304919D02*
X0562676Y0304919D01*
X0561329Y0306517D02*
X0595400Y0306517D01*
X0595400Y0308116D02*
X0559449Y0308116D01*
X0555852Y0309714D02*
X0595400Y0309714D01*
X0595400Y0276145D02*
X0549469Y0276145D01*
X0549463Y0274547D02*
X0595400Y0274547D01*
X0595400Y0272948D02*
X0549456Y0272948D01*
X0549450Y0271350D02*
X0595400Y0271350D01*
X0595400Y0269751D02*
X0549443Y0269751D01*
X0549437Y0268153D02*
X0595400Y0268153D01*
X0595400Y0266554D02*
X0549430Y0266554D01*
X0549424Y0264956D02*
X0595400Y0264956D01*
X0595400Y0263357D02*
X0549417Y0263357D01*
X0549411Y0261759D02*
X0595400Y0261759D01*
X0595400Y0260160D02*
X0549404Y0260160D01*
X0549398Y0258562D02*
X0595400Y0258562D01*
X0595400Y0256963D02*
X0549391Y0256963D01*
X0549385Y0255365D02*
X0595400Y0255365D01*
X0595400Y0253766D02*
X0549378Y0253766D01*
X0549372Y0252168D02*
X0595400Y0252168D01*
X0595400Y0250569D02*
X0549366Y0250569D01*
X0549359Y0248971D02*
X0595400Y0248971D01*
X0595400Y0247372D02*
X0549353Y0247372D01*
X0549346Y0245774D02*
X0595400Y0245774D01*
X0595400Y0244175D02*
X0549340Y0244175D01*
X0549333Y0242577D02*
X0595400Y0242577D01*
X0595400Y0240978D02*
X0549327Y0240978D01*
X0549320Y0239380D02*
X0595400Y0239380D01*
X0595400Y0237781D02*
X0549314Y0237781D01*
X0549307Y0236183D02*
X0595400Y0236183D01*
X0595400Y0234584D02*
X0549301Y0234584D01*
X0549294Y0232986D02*
X0595400Y0232986D01*
X0595400Y0231387D02*
X0549288Y0231387D01*
X0549281Y0229789D02*
X0595400Y0229789D01*
X0595400Y0228190D02*
X0549275Y0228190D01*
X0549268Y0226592D02*
X0595400Y0226592D01*
X0595400Y0224993D02*
X0549262Y0224993D01*
X0549255Y0223395D02*
X0595400Y0223395D01*
X0595400Y0221796D02*
X0549249Y0221796D01*
X0549243Y0220198D02*
X0595400Y0220198D01*
X0595400Y0218599D02*
X0549236Y0218599D01*
X0549230Y0217001D02*
X0595400Y0217001D01*
X0595400Y0215402D02*
X0549223Y0215402D01*
X0549217Y0213803D02*
X0595400Y0213803D01*
X0595400Y0212205D02*
X0549210Y0212205D01*
X0549204Y0210606D02*
X0595400Y0210606D01*
X0595400Y0209008D02*
X0549197Y0209008D01*
X0549191Y0207409D02*
X0595400Y0207409D01*
X0595400Y0205811D02*
X0549184Y0205811D01*
X0549178Y0204212D02*
X0595400Y0204212D01*
X0595400Y0202614D02*
X0549171Y0202614D01*
X0549165Y0201015D02*
X0595400Y0201015D01*
X0595400Y0199417D02*
X0549158Y0199417D01*
X0549152Y0197818D02*
X0595400Y0197818D01*
X0595400Y0196220D02*
X0549145Y0196220D01*
X0549139Y0194621D02*
X0595400Y0194621D01*
X0595400Y0193023D02*
X0549133Y0193023D01*
X0549126Y0191424D02*
X0595400Y0191424D01*
X0595400Y0189826D02*
X0549120Y0189826D01*
X0549113Y0188227D02*
X0595400Y0188227D01*
X0595400Y0186629D02*
X0549107Y0186629D01*
X0549100Y0185030D02*
X0595400Y0185030D01*
X0595400Y0183432D02*
X0549094Y0183432D01*
X0549087Y0181833D02*
X0595400Y0181833D01*
X0595400Y0180235D02*
X0549081Y0180235D01*
X0549074Y0178636D02*
X0595400Y0178636D01*
X0595400Y0177038D02*
X0549068Y0177038D01*
X0549061Y0175439D02*
X0595400Y0175439D01*
X0595400Y0173841D02*
X0549055Y0173841D01*
X0549048Y0172242D02*
X0595400Y0172242D01*
X0595400Y0170644D02*
X0549042Y0170644D01*
X0549035Y0169045D02*
X0595400Y0169045D01*
X0595400Y0167447D02*
X0549029Y0167447D01*
X0549023Y0165848D02*
X0595400Y0165848D01*
X0595400Y0164250D02*
X0549016Y0164250D01*
X0550460Y0162651D02*
X0595400Y0162651D01*
X0595400Y0161053D02*
X0552058Y0161053D01*
X0553657Y0159454D02*
X0595400Y0159454D01*
X0595400Y0157856D02*
X0555255Y0157856D01*
X0556854Y0156257D02*
X0595400Y0156257D01*
X0595400Y0154659D02*
X0558452Y0154659D01*
X0560051Y0153060D02*
X0595400Y0153060D01*
X0595400Y0151462D02*
X0561649Y0151462D01*
X0563248Y0149863D02*
X0595400Y0149863D01*
X0595400Y0148265D02*
X0564846Y0148265D01*
X0566445Y0146666D02*
X0595400Y0146666D01*
X0595400Y0145068D02*
X0568043Y0145068D01*
X0569642Y0143469D02*
X0595400Y0143469D01*
X0595400Y0141870D02*
X0571240Y0141870D01*
X0572839Y0140272D02*
X0595400Y0140272D01*
X0595400Y0138673D02*
X0574437Y0138673D01*
X0576036Y0137075D02*
X0595400Y0137075D01*
X0595400Y0135476D02*
X0576735Y0135476D01*
X0577397Y0133878D02*
X0595400Y0133878D01*
X0595400Y0132279D02*
X0577500Y0132279D01*
X0577500Y0130681D02*
X0595400Y0130681D01*
X0595400Y0129082D02*
X0577500Y0129082D01*
X0577500Y0127484D02*
X0595400Y0127484D01*
X0595400Y0125885D02*
X0577500Y0125885D01*
X0577500Y0124287D02*
X0595400Y0124287D01*
X0595400Y0122688D02*
X0577500Y0122688D01*
X0577500Y0121090D02*
X0595400Y0121090D01*
X0595400Y0119491D02*
X0577095Y0119491D01*
X0576432Y0117893D02*
X0595400Y0117893D01*
X0595400Y0116294D02*
X0575305Y0116294D01*
X0573707Y0114696D02*
X0595400Y0114696D01*
X0595400Y0113097D02*
X0572108Y0113097D01*
X0570510Y0111499D02*
X0595400Y0111499D01*
X0595400Y0109900D02*
X0568911Y0109900D01*
X0567313Y0108302D02*
X0595400Y0108302D01*
X0595400Y0106703D02*
X0565714Y0106703D01*
X0564115Y0105105D02*
X0595400Y0105105D01*
X0595400Y0103506D02*
X0562517Y0103506D01*
X0559373Y0101908D02*
X0595400Y0101908D01*
X0595400Y0100309D02*
X0550800Y0100309D01*
X0550800Y0098711D02*
X0595400Y0098711D01*
X0595400Y0097112D02*
X0550800Y0097112D01*
X0550800Y0095514D02*
X0595400Y0095514D01*
X0595400Y0093915D02*
X0550800Y0093915D01*
X0550554Y0092317D02*
X0595400Y0092317D01*
X0595400Y0090718D02*
X0549892Y0090718D01*
X0548948Y0089120D02*
X0595400Y0089120D01*
X0595400Y0087521D02*
X0547349Y0087521D01*
X0544128Y0085923D02*
X0595400Y0085923D01*
X0595400Y0084324D02*
X0462177Y0084324D01*
X0462839Y0082726D02*
X0595400Y0082726D01*
X0595400Y0081127D02*
X0463500Y0081127D01*
X0463500Y0079529D02*
X0595400Y0079529D01*
X0595400Y0077930D02*
X0463500Y0077930D01*
X0463028Y0076332D02*
X0595400Y0076332D01*
X0595400Y0074733D02*
X0462366Y0074733D01*
X0461148Y0073134D02*
X0595400Y0073134D01*
X0595400Y0071536D02*
X0459547Y0071536D01*
X0460691Y0085923D02*
X0479472Y0085923D01*
X0476251Y0087521D02*
X0458493Y0087521D01*
X0484128Y0085923D02*
X0489472Y0085923D01*
X0494128Y0085923D02*
X0499472Y0085923D01*
X0504128Y0085923D02*
X0509472Y0085923D01*
X0514128Y0085923D02*
X0519472Y0085923D01*
X0524128Y0085923D02*
X0529472Y0085923D01*
X0534128Y0085923D02*
X0539472Y0085923D01*
X0249586Y0097112D02*
X0249014Y0097112D01*
X0239586Y0097112D02*
X0239014Y0097112D01*
X0147036Y0471164D02*
X0144432Y0471164D01*
X0136130Y0471164D02*
X0134548Y0471164D01*
D20*
X0123923Y0472851D02*
X0123800Y0472974D01*
X0123800Y0487800D01*
X0135800Y0499800D01*
X0355800Y0499800D01*
X0434095Y0578095D01*
X0487800Y0578095D01*
X0487800Y0593686D02*
X0428686Y0593686D01*
X0349800Y0514800D01*
X0132800Y0514800D01*
X0112800Y0494800D01*
X0112800Y0473069D01*
X0113017Y0472851D01*
X0487800Y0546914D02*
X0488414Y0546800D01*
X0516800Y0546800D01*
X0540300Y0523300D01*
X0540300Y0367800D01*
M02*
