G75*
%MOIN*%
%OFA0B0*%
%FSLAX25Y25*%
%IPPOS*%
%LPD*%
%AMOC8*
5,1,8,0,0,1.08239X$1,22.5*
%
%ADD10C,0.15750*%
%ADD11C,0.06737*%
%ADD12OC8,0.07296*%
%ADD13C,0.13398*%
%ADD14C,0.11824*%
%ADD15C,0.09068*%
%ADD16R,0.09068X0.09068*%
%ADD17C,0.12650*%
%ADD18C,0.06000*%
%ADD19C,0.10839*%
%ADD20R,0.04762X0.04762*%
D10*
X0026800Y0027800D03*
X0026800Y0477800D03*
X0376800Y0777800D03*
X0576800Y0777800D03*
X0576800Y0027800D03*
D11*
X0284300Y0105300D03*
X0284300Y0115300D03*
X0274300Y0115300D03*
X0274300Y0105300D03*
X0264300Y0105300D03*
X0264300Y0115300D03*
X0254300Y0115300D03*
X0254300Y0105300D03*
X0244300Y0105300D03*
X0244300Y0115300D03*
X0234300Y0115300D03*
X0234300Y0105300D03*
X0224300Y0105300D03*
X0224300Y0115300D03*
X0214300Y0115300D03*
X0214300Y0105300D03*
X0204300Y0105300D03*
X0204300Y0115300D03*
X0194300Y0115300D03*
X0194300Y0105300D03*
X0184300Y0105300D03*
X0184300Y0115300D03*
X0174300Y0115300D03*
X0174300Y0105300D03*
X0164300Y0105300D03*
X0164300Y0115300D03*
X0154300Y0115300D03*
X0154300Y0105300D03*
X0144300Y0105300D03*
X0144300Y0115300D03*
X0134300Y0115300D03*
X0134300Y0105300D03*
X0124300Y0105300D03*
X0124300Y0115300D03*
X0114300Y0115300D03*
X0114300Y0105300D03*
X0104300Y0105300D03*
X0104300Y0115300D03*
X0094300Y0115300D03*
X0094300Y0105300D03*
D12*
X0107565Y0461670D03*
X0113017Y0472851D03*
X0118470Y0461670D03*
X0123923Y0472851D03*
X0129376Y0461670D03*
X0140281Y0461670D03*
X0134828Y0472851D03*
X0145734Y0472851D03*
X0151187Y0461670D03*
D13*
X0178667Y0467261D03*
X0080281Y0467261D03*
D14*
X0041550Y0579800D03*
X0041550Y0660800D03*
X0041550Y0741800D03*
X0330050Y0741800D03*
X0330050Y0660800D03*
X0330050Y0579800D03*
X0487300Y0353400D03*
X0487300Y0298200D03*
X0552800Y0298200D03*
X0552800Y0353400D03*
D15*
X0540300Y0367800D03*
X0540300Y0283800D03*
X0526800Y0283800D03*
X0513300Y0283800D03*
X0499800Y0283800D03*
D16*
X0499800Y0367800D03*
D17*
X0136800Y0057225D02*
X0136800Y0045375D01*
X0082800Y0046375D02*
X0082800Y0058225D01*
D18*
X0095300Y0236200D02*
X0095300Y0241400D01*
X0105300Y0241400D02*
X0105300Y0236200D01*
X0115300Y0236200D02*
X0115300Y0241400D01*
X0125300Y0241400D02*
X0125300Y0236200D01*
X0135300Y0236200D02*
X0135300Y0241400D01*
X0145300Y0241400D02*
X0145300Y0236200D01*
X0155300Y0236200D02*
X0155300Y0241400D01*
X0165300Y0241400D02*
X0165300Y0236200D01*
X0165300Y0266200D02*
X0165300Y0271400D01*
X0155300Y0271400D02*
X0155300Y0266200D01*
X0145300Y0266200D02*
X0145300Y0271400D01*
X0135300Y0271400D02*
X0135300Y0266200D01*
X0125300Y0266200D02*
X0125300Y0271400D01*
X0115300Y0271400D02*
X0115300Y0266200D01*
X0105300Y0266200D02*
X0105300Y0271400D01*
X0095300Y0271400D02*
X0095300Y0266200D01*
X0481800Y0129900D02*
X0481800Y0124700D01*
X0491800Y0124700D02*
X0491800Y0129900D01*
X0501800Y0129900D02*
X0501800Y0124700D01*
X0511800Y0124700D02*
X0511800Y0129900D01*
X0521800Y0129900D02*
X0521800Y0124700D01*
X0531800Y0124700D02*
X0531800Y0129900D01*
X0541800Y0129900D02*
X0541800Y0124700D01*
X0551800Y0124700D02*
X0551800Y0129900D01*
X0551800Y0099900D02*
X0551800Y0094700D01*
X0541800Y0094700D02*
X0541800Y0099900D01*
X0531800Y0099900D02*
X0531800Y0094700D01*
X0521800Y0094700D02*
X0521800Y0099900D01*
X0511800Y0099900D02*
X0511800Y0094700D01*
X0501800Y0094700D02*
X0501800Y0099900D01*
X0491800Y0099900D02*
X0491800Y0094700D01*
X0481800Y0094700D02*
X0481800Y0099900D01*
D19*
X0482780Y0546914D02*
X0492820Y0546914D01*
X0492820Y0562505D02*
X0482780Y0562505D01*
X0482780Y0578095D02*
X0492820Y0578095D01*
X0492820Y0593686D02*
X0482780Y0593686D01*
D20*
X0454300Y0079300D03*
X0085800Y0232300D03*
M02*
